# This file uses feet as units for non-parametric coordinates.

mtllib Bush.mtl
g default
v 14.478926 17.492226 31.793550
v -30.263774 18.034215 25.042629
v -46.784472 18.735951 -17.080898
v -18.562436 18.895651 -52.453470
v 26.180254 18.353664 -45.702529
v 42.700927 17.651911 -3.579027
v 7.672255 39.015469 14.208116
v -18.159979 39.328420 10.310461
v -27.698175 39.733517 -14.009554
v -11.404194 39.825731 -34.431942
v 14.428007 39.512799 -30.534270
v 23.966272 39.107698 -6.214251
v -1.801624 47.190084 -10.032111
v 17.482831 -7.879124 40.642897
v -38.272682 -7.203732 32.230323
v -58.859715 -6.329342 -20.261297
v -23.691218 -6.130285 -64.340366
v 32.064272 -6.805711 -55.927784
v 52.651329 -7.680108 -3.436156
vt 0.496871 0.212929
vt 0.498137 0.342139
vt 0.367322 0.417600
vt 0.259274 0.349986
vt 0.368330 0.577731
vt 0.273660 0.655477
vt 0.500154 0.662402
vt 0.500534 0.794618
vt 0.630969 0.586942
vt 0.738132 0.657560
vt 0.629961 0.426810
vt 0.736300 0.366716
vt 0.499320 0.501678
vt 0.129524 0.263465
vt 0.493670 0.103062
vt 0.138560 0.774768
vt 0.501280 0.908060
vt 0.857057 0.745565
vt 0.854299 0.307495
vn -0.111317 0.607429 0.786536
vn -0.111317 0.607429 0.786536
vn -0.111317 0.607429 0.786536
vn -0.111317 0.607429 0.786536
vn -0.728003 0.618466 0.295823
vn -0.728003 0.618466 0.295823
vn -0.728003 0.618466 0.295823
vn -0.728003 0.618466 0.295823
vn -0.610867 0.626139 -0.484553
vn -0.610867 0.626139 -0.484553
vn -0.610866 0.626139 -0.484553
vn -0.610866 0.626139 -0.484553
vn 0.124106 0.622731 -0.772531
vn 0.124106 0.622731 -0.772531
vn 0.124106 0.622731 -0.772531
vn 0.124106 0.622731 -0.772531
vn 0.739901 0.611676 -0.279997
vn 0.739901 0.611676 -0.279997
vn 0.739901 0.611676 -0.279997
vn 0.739901 0.611676 -0.279997
vn 0.621633 0.604047 0.498697
vn 0.621634 0.604047 0.498697
vn 0.621634 0.604047 0.498697
vn 0.621634 0.604047 0.498697
vn -0.038815 0.942163 0.332899
vn -0.038815 0.942163 0.332899
vn -0.038815 0.942163 0.332899
vn -0.292797 0.947212 0.130612
vn -0.292797 0.947212 0.130612
vn -0.292798 0.947212 0.130612
vn -0.244450 0.950716 -0.190742
vn -0.244450 0.950716 -0.190742
vn -0.244450 0.950716 -0.190742
vn 0.058178 0.949160 -0.309370
vn 0.058178 0.949160 -0.309370
vn 0.058178 0.949160 -0.309370
vn 0.311925 0.944106 -0.106611
vn 0.311925 0.944106 -0.106611
vn 0.311925 0.944106 -0.106611
vn 0.263282 0.940614 0.214307
vn 0.263282 0.940614 0.214307
vn 0.263282 0.940614 0.214307
vn -0.138077 0.311566 0.940139
vn -0.138077 0.311566 0.940139
vn -0.138077 0.311566 0.940139
vn -0.138077 0.311566 0.940139
vn -0.862156 0.371655 0.344325
vn -0.862155 0.371655 0.344325
vn -0.862155 0.371655 0.344325
vn -0.862155 0.371655 0.344325
vn -0.712135 0.414928 -0.566303
vn -0.712135 0.414928 -0.566303
vn -0.712135 0.414928 -0.566303
vn -0.712135 0.414928 -0.566303
vn 0.141425 0.400935 -0.905124
vn 0.141425 0.400935 -0.905124
vn 0.141425 0.400935 -0.905124
vn 0.141425 0.400935 -0.905124
vn 0.876605 0.342422 -0.338097
vn 0.876605 0.342422 -0.338097
vn 0.876606 0.342422 -0.338097
vn 0.876605 0.342422 -0.338097
vn 0.745919 0.296360 0.596470
vn 0.745919 0.296360 0.596470
vn 0.745919 0.296360 0.596470
vn 0.745919 0.296360 0.596470
s off
g Bush
usemtl lambert3SG
f 1/1/1 7/2/2 8/3/3 2/4/4
f 2/4/5 8/3/6 9/5/7 3/6/8
f 3/6/9 9/5/10 10/7/11 4/8/12
f 4/8/13 10/7/14 11/9/15 5/10/16
f 5/10/17 11/9/18 12/11/19 6/12/20
f 6/12/21 12/11/22 7/2/23 1/1/24
f 7/2/25 13/13/26 8/3/27
f 8/3/28 13/13/29 9/5/30
f 9/5/31 13/13/32 10/7/33
f 10/7/34 13/13/35 11/9/36
f 11/9/37 13/13/38 12/11/39
f 12/11/40 13/13/41 7/2/42
f 1/1/43 2/4/44 15/14/45 14/15/46
f 2/4/47 3/6/48 16/16/49 15/14/50
f 3/6/51 4/8/52 17/17/53 16/16/54
f 4/8/55 5/10/56 18/18/57 17/17/58
f 5/10/59 6/12/60 19/19/61 18/18/62
f 6/12/63 1/1/64 14/15/65 19/19/66
