# This file uses feet as units for non-parametric coordinates.

mtllib fern.mtl
g default
v 1.044697 -0.354217 -0.603160
v 0.603160 -0.354217 -1.044697
v 0.000000 -0.354217 -1.206320
v -0.603160 -0.354217 -1.044697
v -1.044697 -0.354217 -0.603160
v -1.206320 -0.354217 0.000000
v -1.044697 -0.354217 0.603160
v -0.603160 -0.354217 1.044697
v 0.000000 -0.354217 1.206320
v 0.603160 -0.354217 1.044697
v 1.044697 -0.354217 0.603160
v 1.206320 -0.354217 0.000000
v 59.095304 7.506486 -34.118688
v 34.118688 7.506486 -59.095304
v 0.000000 7.506486 -68.237376
v -34.118688 7.506486 -59.095304
v -59.095304 7.506486 -34.118688
v -68.237376 7.506486 0.000000
v -59.095304 7.506486 34.118688
v -34.118688 7.506486 59.095304
v 0.000000 7.506486 68.237376
v 34.118688 7.506486 59.095304
v 59.095304 7.506486 34.118688
v 68.237376 7.506486 0.000000
v 0.000000 21.336522 33.012833
v 16.506417 21.336522 28.589952
v 28.589952 21.336522 16.506417
v 33.012833 21.336522 0.000000
v 28.589952 21.336522 -16.506417
v 16.506417 21.336522 -28.589952
v 0.000000 21.336522 -33.012833
v -16.506417 21.336522 -28.589952
v -28.589952 21.336522 -16.506417
v -33.012833 21.336522 0.000000
v -28.589952 21.336522 16.506417
v -16.506417 21.336522 28.589952
v 0.000000 11.949742 15.240770
v 7.620385 11.949742 13.198884
v 13.198884 11.949742 7.620385
v 15.240770 11.949742 0.000000
v 13.198884 11.949742 -7.620385
v 7.620385 11.949742 -13.198884
v 0.000000 11.949742 -15.240770
v -7.620385 11.949742 -13.198884
v -13.198884 11.949742 -7.620385
v -15.240770 11.949742 0.000000
v -13.198884 11.949742 7.620385
v -7.620385 11.949742 13.198884
v 44.534622 14.479906 -25.712082
v 25.712082 14.479906 -44.534622
v 0.000000 14.479906 -51.424164
v -25.712082 14.479906 -44.534622
v -44.534622 14.479906 -25.712082
v -51.424164 14.479906 0.000000
v -44.534622 14.479906 25.712082
v -25.712082 14.479906 44.534622
v 0.000000 14.479906 51.424164
v 25.712082 14.479906 44.534622
v 44.534622 14.479906 25.712082
v 51.424164 14.479906 0.000000
v 0.000000 18.800302 -24.529713
v -12.264857 18.800302 -21.243349
v -21.243349 18.800302 -12.264857
v -24.529713 18.800302 0.000000
v -21.243349 18.800302 12.264857
v -12.264857 18.800302 21.243349
v 0.000000 18.800302 24.529713
v 12.264857 18.800302 21.243349
v 21.243349 18.800302 12.264857
v 24.529713 18.800302 0.000000
v 21.243349 18.800302 -12.264857
v 12.264857 18.800302 -21.243349
vt 0.501687 0.488797
vt 0.912553 0.726010
vt 0.736982 0.901331
vt 0.500056 0.490424
vt 0.497638 0.965084
vt 0.497829 0.491020
vt 0.258705 0.900876
vt 0.495599 0.490424
vt 0.083537 0.725934
vt 0.493965 0.488794
vt 0.019083 0.486626
vt 0.493367 0.486567
vt 0.083100 0.247125
vt 0.493962 0.484337
vt 0.258505 0.071935
vt 0.495596 0.482706
vt 0.497979 0.008099
vt 0.497824 0.482111
vt 0.737067 0.072329
vt 0.500052 0.482710
vt 0.912140 0.247146
vt 0.501684 0.484344
vt 0.976599 0.486301
vt 0.502281 0.486570
vt 0.497813 0.266758
vt 0.607721 0.296239
vt 0.688186 0.376678
vt 0.717721 0.486565
vt 0.688288 0.596531
vt 0.607771 0.677003
vt 0.497839 0.706369
vt 0.387945 0.676904
vt 0.307459 0.596461
vt 0.277930 0.486544
vt 0.307362 0.376603
vt 0.387858 0.296144
vt 0.497786 0.393806
vt 0.544206 0.406281
vt 0.578182 0.440258
vt 0.590627 0.486632
vt 0.578215 0.532980
vt 0.544282 0.566903
vt 0.497899 0.579312
vt 0.451486 0.566878
vt 0.417472 0.532913
vt 0.404992 0.486516
vt 0.417395 0.440130
vt 0.451364 0.406197
vt 0.803195 0.662872
vt 0.674008 0.791937
vt 0.497756 0.838999
vt 0.321702 0.791696
vt 0.192690 0.662788
vt 0.145290 0.486561
vt 0.192434 0.310250
vt 0.321553 0.181266
vt 0.497869 0.134202
vt 0.674014 0.181475
vt 0.803005 0.310291
vt 0.850375 0.486461
vt 0.497864 0.652107
vt 0.415081 0.629915
vt 0.354442 0.569322
vt 0.332194 0.486532
vt 0.354354 0.403734
vt 0.414979 0.343144
vt 0.497801 0.321016
vt 0.580596 0.343234
vt 0.641207 0.403831
vt 0.663443 0.486593
vt 0.641280 0.569390
vt 0.580657 0.629983
vn -0.475231 0.740481 0.475231
vn -0.445205 0.776907 0.445205
vn -0.445205 0.776907 0.445205
vn -0.475231 0.740481 0.475231
vn -0.173948 0.740481 0.649177
vn -0.162957 0.776907 0.608161
vn -0.162957 0.776907 0.608161
vn -0.173948 0.740481 0.649177
vn 0.173948 0.740481 0.649177
vn 0.162957 0.776907 0.608161
vn 0.162957 0.776907 0.608161
vn 0.173948 0.740481 0.649177
vn 0.475231 0.740481 0.475231
vn 0.445205 0.776907 0.445205
vn 0.445205 0.776907 0.445205
vn 0.475231 0.740481 0.475231
vn 0.649177 0.740481 0.173948
vn 0.608162 0.776907 0.162957
vn 0.608162 0.776907 0.162957
vn 0.649177 0.740481 0.173948
vn 0.649177 0.740481 -0.173948
vn 0.608162 0.776907 -0.162957
vn 0.608162 0.776907 -0.162957
vn 0.649177 0.740481 -0.173948
vn 0.475231 0.740481 -0.475231
vn 0.445205 0.776907 -0.445205
vn 0.445205 0.776907 -0.445205
vn 0.475231 0.740481 -0.475231
vn 0.173948 0.740481 -0.649177
vn 0.162957 0.776907 -0.608161
vn 0.162957 0.776907 -0.608161
vn 0.173948 0.740481 -0.649177
vn -0.173948 0.740481 -0.649177
vn -0.162957 0.776907 -0.608161
vn -0.162957 0.776907 -0.608161
vn -0.173948 0.740481 -0.649177
vn -0.475231 0.740481 -0.475231
vn -0.445205 0.776907 -0.445205
vn -0.445205 0.776907 -0.445205
vn -0.475231 0.740481 -0.475231
vn -0.649177 0.740481 -0.173948
vn -0.608162 0.776907 -0.162957
vn -0.608162 0.776907 -0.162957
vn -0.649177 0.740481 -0.173948
vn -0.649177 0.740481 0.173948
vn -0.608162 0.776907 0.162957
vn -0.608162 0.776907 0.162957
vn -0.649177 0.740481 0.173948
vn 0.064273 0.968675 0.239868
vn 0.098912 0.924094 0.369143
vn 0.098912 0.924094 0.369143
vn 0.064273 0.968675 0.239868
vn 0.175596 0.968676 0.175596
vn 0.175596 0.968676 0.175596
vn 0.270232 0.924094 0.270232
vn 0.270232 0.924094 0.270232
vn 0.239868 0.968675 0.064273
vn 0.239868 0.968675 0.064273
vn 0.369143 0.924094 0.098912
vn 0.369143 0.924094 0.098912
vn 0.239868 0.968675 -0.064273
vn 0.239868 0.968675 -0.064273
vn 0.369143 0.924094 -0.098912
vn 0.369143 0.924094 -0.098912
vn 0.175596 0.968676 -0.175596
vn 0.175596 0.968676 -0.175596
vn 0.270232 0.924094 -0.270232
vn 0.270232 0.924094 -0.270232
vn 0.064273 0.968675 -0.239868
vn 0.064273 0.968675 -0.239868
vn 0.098912 0.924094 -0.369143
vn 0.098912 0.924094 -0.369143
vn -0.064273 0.968675 -0.239868
vn -0.064273 0.968675 -0.239868
vn -0.098912 0.924094 -0.369143
vn -0.098912 0.924094 -0.369143
vn -0.175596 0.968676 -0.175596
vn -0.175596 0.968676 -0.175596
vn -0.270232 0.924094 -0.270232
vn -0.270232 0.924094 -0.270232
vn -0.239868 0.968675 -0.064273
vn -0.239868 0.968675 -0.064273
vn -0.369143 0.924094 -0.098912
vn -0.369143 0.924094 -0.098912
vn -0.239868 0.968675 0.064273
vn -0.239868 0.968675 0.064273
vn -0.369143 0.924094 0.098912
vn -0.369143 0.924094 0.098912
vn -0.175596 0.968676 0.175596
vn -0.175596 0.968676 0.175596
vn -0.270232 0.924094 0.270232
vn -0.270232 0.924094 0.270232
vn -0.064273 0.968675 0.239868
vn -0.064273 0.968675 0.239868
vn -0.098912 0.924094 0.369143
vn -0.098912 0.924094 0.369143
vn -0.110764 0.903798 -0.413377
vn -0.110764 0.903798 -0.413377
vn -0.302613 0.903798 -0.302613
vn -0.302613 0.903798 -0.302613
vn -0.413377 0.903798 -0.110764
vn -0.413377 0.903798 -0.110764
vn -0.413377 0.903798 0.110764
vn -0.413377 0.903798 0.110764
vn -0.302613 0.903798 0.302613
vn -0.302613 0.903798 0.302613
vn -0.110764 0.903798 0.413377
vn -0.110764 0.903798 0.413377
vn 0.110764 0.903798 0.413377
vn 0.110764 0.903798 0.413377
vn 0.302613 0.903798 0.302613
vn 0.302613 0.903798 0.302613
vn 0.413377 0.903798 0.110764
vn 0.413377 0.903798 0.110764
vn 0.413377 0.903798 -0.110764
vn 0.413377 0.903798 -0.110764
vn 0.302613 0.903798 -0.302613
vn 0.302613 0.903798 -0.302613
vn 0.110764 0.903798 -0.413377
vn 0.110764 0.903798 -0.413377
vn 0.278992 0.918873 -0.278992
vn 0.278992 0.918873 -0.278992
vn 0.102118 0.918873 -0.381110
vn 0.102118 0.918873 -0.381110
vn -0.102118 0.918873 -0.381110
vn -0.102118 0.918873 -0.381110
vn -0.278992 0.918873 -0.278992
vn -0.278992 0.918873 -0.278992
vn -0.381110 0.918873 -0.102118
vn -0.381110 0.918873 -0.102118
vn -0.381110 0.918873 0.102118
vn -0.381110 0.918873 0.102118
vn -0.278992 0.918873 0.278992
vn -0.278992 0.918873 0.278992
vn -0.102118 0.918873 0.381110
vn -0.102118 0.918873 0.381110
vn 0.102118 0.918873 0.381110
vn 0.102118 0.918873 0.381110
vn 0.278992 0.918873 0.278992
vn 0.278992 0.918873 0.278992
vn 0.381110 0.918873 0.102118
vn 0.381110 0.918873 0.102118
vn 0.381110 0.918873 -0.102118
vn 0.381110 0.918873 -0.102118
s 1
g pCylinder1
usemtl lambert2SG
f 1/1/1 41/41/2 42/42/3 2/4/4
s 2
f 2/4/5 42/42/6 43/43/7 3/6/8
s 3
f 3/6/9 43/43/10 44/44/11 4/8/12
s 4
f 4/8/13 44/44/14 45/45/15 5/10/16
s 5
f 5/10/17 45/45/18 46/46/19 6/12/20
s 6
f 6/12/21 46/46/22 47/47/23 7/14/24
s 7
f 7/14/25 47/47/26 48/48/27 8/16/28
s 8
f 8/16/29 48/48/30 37/37/31 9/18/32
s 9
f 9/18/33 37/37/34 38/38/35 10/20/36
s 10
f 10/20/37 38/38/38 39/39/39 11/22/40
s 11
f 11/22/41 39/39/42 40/40/43 12/24/44
s 12
f 12/24/45 40/40/46 41/41/47 1/1/48
s 9
f 25/25/49 57/57/50 58/58/51 26/26/52
s 10
f 27/27/53 26/26/54 58/58/55 59/59/56
s 11
f 28/28/57 27/27/58 59/59/59 60/60/60
s 12
f 29/29/61 28/28/62 60/60/63 49/49/64
s 1
f 30/30/65 29/29/66 49/49/67 50/50/68
s 2
f 31/31/69 30/30/70 50/50/71 51/51/72
s 3
f 32/32/73 31/31/74 51/51/75 52/52/76
s 4
f 33/33/77 32/32/78 52/52/79 53/53/80
s 5
f 34/34/81 33/33/82 53/53/83 54/54/84
s 6
f 35/35/85 34/34/86 54/54/87 55/55/88
s 7
f 36/36/89 35/35/90 55/55/91 56/56/92
s 8
f 25/25/93 36/36/94 56/56/95 57/57/96
s 9
f 37/37/34 67/67/97 68/68/98 38/38/35
s 10
f 39/39/39 38/38/38 68/68/99 69/69/100
s 11
f 40/40/43 39/39/42 69/69/101 70/70/102
s 12
f 41/41/47 40/40/46 70/70/103 71/71/104
s 1
f 42/42/3 41/41/2 71/71/105 72/72/106
s 2
f 43/43/7 42/42/6 72/72/107 61/61/108
s 3
f 44/44/11 43/43/10 61/61/109 62/62/110
s 4
f 45/45/15 44/44/14 62/62/111 63/63/112
s 5
f 46/46/19 45/45/18 63/63/113 64/64/114
s 6
f 47/47/23 46/46/22 64/64/115 65/65/116
s 7
f 48/48/27 47/47/26 65/65/117 66/66/118
s 8
f 37/37/31 48/48/30 66/66/119 67/67/120
s 1
f 50/50/68 49/49/67 13/2/121 14/3/122
s 2
f 51/51/72 50/50/71 14/3/123 15/5/124
s 3
f 52/52/76 51/51/75 15/5/125 16/7/126
s 4
f 53/53/80 52/52/79 16/7/127 17/9/128
s 5
f 54/54/84 53/53/83 17/9/129 18/11/130
s 6
f 55/55/88 54/54/87 18/11/131 19/13/132
s 7
f 56/56/92 55/55/91 19/13/133 20/15/134
s 8
f 57/57/96 56/56/95 20/15/135 21/17/136
s 9
f 58/58/51 57/57/50 21/17/137 22/19/138
s 10
f 59/59/56 58/58/55 22/19/139 23/21/140
s 11
f 60/60/60 59/59/59 23/21/141 24/23/142
s 12
f 49/49/64 60/60/63 24/23/143 13/2/144
s 3
f 62/62/110 61/61/109 31/31/74 32/32/73
s 4
f 63/63/112 62/62/111 32/32/78 33/33/77
s 5
f 64/64/114 63/63/113 33/33/82 34/34/81
s 6
f 65/65/116 64/64/115 34/34/86 35/35/85
s 7
f 66/66/118 65/65/117 35/35/90 36/36/89
s 8
f 67/67/120 66/66/119 36/36/94 25/25/93
s 9
f 68/68/98 67/67/97 25/25/49 26/26/52
s 10
f 69/69/100 68/68/99 26/26/54 27/27/53
s 11
f 70/70/102 69/69/101 27/27/58 28/28/57
s 12
f 71/71/104 70/70/103 28/28/62 29/29/61
s 1
f 72/72/106 71/71/105 29/29/66 30/30/65
s 2
f 61/61/108 72/72/107 30/30/70 31/31/69
