# This file uses feet as units for non-parametric coordinates.

mtllib furnace.mtl
g default
v 24.610849 -0.000000 -30.480001
v 23.417412 7.535070 -30.480001
v 19.953920 14.332556 -30.480001
v 14.559406 19.727072 -30.480001
v 7.761921 23.190563 -30.480001
v 0.226850 24.384001 -30.480001
v -7.308221 23.190563 -30.480001
v -14.105707 19.727072 -30.480001
v -19.500223 14.332556 -30.480001
v -22.963715 7.535070 -30.480001
v -24.157152 -0.000001 -30.480001
v 24.610849 0.000000 30.481225
v 23.417412 7.535070 30.481225
v 19.953920 14.332556 30.481225
v 14.559406 19.727072 30.481225
v 7.761921 23.190563 30.481225
v 0.226850 24.384001 30.481225
v -7.308221 23.190563 30.481225
v -14.105707 19.727072 30.481225
v -19.500223 14.332556 30.481225
v -22.963715 7.535070 30.481225
v -24.157152 -0.000001 30.481225
v 30.706850 0.000000 30.481225
v 29.215053 9.418839 30.481225
v 24.885689 17.915695 30.481225
v 18.142545 24.658840 30.481225
v 9.645689 28.988207 30.481225
v 0.226849 30.480005 30.481225
v -9.191990 28.988209 30.481225
v -17.688849 24.658844 30.481225
v -24.431996 17.915699 30.481225
v -28.761362 9.418840 30.481225
v -30.253161 -0.000001 30.481225
v 30.706850 -0.000000 -30.480001
v 29.215053 9.418839 -30.480001
v 24.885689 17.915695 -30.480001
v 18.142545 24.658840 -30.480001
v 9.645689 28.988207 -30.480001
v 0.226849 30.480005 -30.480001
v -9.191990 28.988209 -30.480001
v -17.688849 24.658844 -30.480001
v -24.431996 17.915699 -30.480001
v -28.761362 9.418840 -30.480001
v -30.253161 -0.000001 -30.480001
v 30.706850 60.959999 30.481225
v 29.215053 60.959999 30.481225
v 30.706850 60.959999 -30.480001
v 29.215053 60.959999 -30.480001
v 24.885689 60.959999 30.481225
v 24.885689 60.959999 -30.480001
v 18.142545 60.959999 30.481225
v 18.142545 60.959999 -30.480001
v 9.645689 60.959999 30.481225
v 9.645689 60.959999 -30.480001
v 0.226849 60.959999 30.481225
v 0.226849 60.959999 -30.480001
v -9.191990 60.959999 30.481225
v -9.191990 60.959999 -30.480001
v -17.688849 60.959999 30.481225
v -17.688849 60.959999 -30.480001
v -24.431996 60.960003 30.481225
v -24.431996 60.960003 -30.480001
v -28.761362 60.959991 30.481225
v -28.761362 60.959991 -30.480001
v -30.253161 60.959999 30.481225
v -30.253161 60.959999 -30.480001
v 38.323328 0.000000 30.481225
v 38.323328 -0.000000 -30.480001
v 38.323328 60.959999 -30.480001
v 38.323328 60.959999 30.481225
v -37.869635 -0.000001 30.481225
v -37.869635 -0.000001 -30.480001
v -37.869635 60.959999 30.481225
v -37.869635 60.959999 -30.480001
vt 0.229046 0.476795
vt 0.272413 0.476795
vt 0.272413 0.676313
vt 0.229046 0.676313
vt 0.189923 0.476795
vt 0.189923 0.676313
vt 0.158876 0.476795
vt 0.158876 0.676313
vt 0.433488 0.475289
vt 0.472611 0.475289
vt 0.472611 0.674807
vt 0.433488 0.674807
vt 0.390121 0.475289
vt 0.390121 0.674807
vt 0.346753 0.475289
vt 0.346753 0.674807
vt 0.307631 0.475289
vt 0.307631 0.674807
vt 0.276583 0.475289
vt 0.276583 0.674807
vt 0.214015 0.473680
vt 0.253138 0.473680
vt 0.253138 0.673198
vt 0.214015 0.673198
vt 0.170648 0.473680
vt 0.170648 0.673198
vt 0.539367 0.106561
vt 0.546236 0.063194
vt 0.581321 0.063194
vt 0.572735 0.117403
vt 0.581321 0.414044
vt 0.572735 0.414045
vt 0.519433 0.145684
vt 0.547818 0.166306
vt 0.625157 0.063194
vt 0.625157 0.414044
vt 0.547818 0.414045
vt 0.488386 0.176731
vt 0.509008 0.205116
vt 0.509008 0.414044
vt 0.449263 0.196665
vt 0.460105 0.230033
vt 0.460105 0.414045
vt 0.405896 0.203534
vt 0.405896 0.238619
vt 0.405896 0.414045
vt 0.362528 0.196665
vt 0.351686 0.230033
vt 0.351686 0.414044
vt 0.323406 0.176731
vt 0.302783 0.205116
vt 0.302783 0.414045
vt 0.292358 0.145684
vt 0.263974 0.166306
vt 0.263974 0.414045
vt 0.272424 0.106561
vt 0.239056 0.117403
vt 0.239056 0.414044
vt 0.265555 0.063194
vt 0.230470 0.063194
vt 0.230470 0.414045
vt 0.186634 0.414044
vt 0.186634 0.063194
vt 0.550156 0.927000
vt 0.541570 0.927000
vt 0.541570 0.727482
vt 0.550156 0.727482
vt 0.497734 0.927000
vt 0.497734 0.727482
vt 0.575074 0.927000
vt 0.575073 0.727482
vt 0.613883 0.927000
vt 0.613883 0.727482
vt 0.662786 0.927000
vt 0.662786 0.727482
vt 0.716996 0.927000
vt 0.716996 0.727482
vt 0.771205 0.927000
vt 0.771205 0.727482
vt 0.820108 0.927000
vt 0.820108 0.727482
vt 0.858918 0.927000
vt 0.858918 0.727482
vt 0.883835 0.927000
vt 0.883835 0.727482
vt 0.892421 0.927000
vt 0.892421 0.727482
vt 0.936257 0.727482
vt 0.936257 0.927000
vt 0.572735 0.118384
vt 0.581321 0.064175
vt 0.546236 0.064175
vt 0.539367 0.107542
vt 0.572735 0.415025
vt 0.581321 0.415026
vt 0.547818 0.167287
vt 0.519433 0.146665
vt 0.547818 0.415025
vt 0.625157 0.415026
vt 0.625157 0.064175
vt 0.509008 0.206097
vt 0.488386 0.177712
vt 0.509008 0.415026
vt 0.460105 0.231014
vt 0.449263 0.197646
vt 0.460105 0.415025
vt 0.405896 0.239600
vt 0.405896 0.204515
vt 0.405896 0.415025
vt 0.351686 0.231014
vt 0.362528 0.197646
vt 0.351686 0.415025
vt 0.302783 0.206097
vt 0.323406 0.177712
vt 0.302783 0.415026
vt 0.263974 0.167287
vt 0.292358 0.146665
vt 0.263974 0.415025
vt 0.239056 0.118384
vt 0.272424 0.107542
vt 0.239056 0.415025
vt 0.230470 0.064175
vt 0.265555 0.064175
vt 0.230470 0.415025
vt 0.186634 0.064175
vt 0.186634 0.415025
vt 0.630215 0.478488
vt 0.815777 0.478487
vt 0.815777 0.725042
vt 0.630215 0.725042
vt 0.815597 0.725042
vt 0.630035 0.725042
vt 0.630035 0.478488
vt 0.815597 0.478487
vt 0.259354 0.673198
vt 0.259354 0.473680
vt 0.303190 0.473680
vt 0.303190 0.673198
vt 0.353630 0.473680
vt 0.353630 0.673198
vt 0.309794 0.673198
vt 0.309794 0.473680
vn -0.951057 -0.309017 0.000000
vn -0.987688 -0.156434 0.000000
vn -0.987688 -0.156434 0.000000
vn -0.951057 -0.309017 0.000000
vn -0.809017 -0.587785 0.000000
vn -0.809017 -0.587785 0.000000
vn -0.587785 -0.809017 0.000000
vn -0.587785 -0.809017 0.000000
vn -0.309017 -0.951057 0.000000
vn -0.309017 -0.951057 0.000000
vn 0.000000 -1.000000 0.000000
vn 0.000000 -1.000000 0.000000
vn 0.309017 -0.951057 0.000000
vn 0.309017 -0.951057 0.000000
vn 0.587785 -0.809017 0.000000
vn 0.587785 -0.809017 0.000000
vn 0.809017 -0.587785 0.000000
vn 0.809017 -0.587785 0.000000
vn 0.951057 -0.309017 0.000000
vn 0.951057 -0.309017 0.000000
vn 0.987688 -0.156434 0.000000
vn 0.987688 -0.156434 0.000000
vn 0.000000 0.000000 1.000000
vn 0.000000 0.000000 1.000000
vn 0.000000 0.000000 1.000000
vn 0.000000 0.000000 1.000000
vn 0.000000 0.000000 1.000000
vn 0.000000 0.000000 1.000000
vn 0.000000 0.000000 1.000000
vn 0.000000 0.000000 1.000000
vn 0.000000 0.000000 1.000000
vn 0.000000 0.000000 1.000000
vn 0.000000 0.000000 1.000000
vn 0.000000 0.000000 1.000000
vn 0.000000 0.000000 1.000000
vn 0.000000 0.000000 1.000000
vn 0.000000 -0.000000 1.000000
vn 0.000000 -0.000000 1.000000
vn 0.000000 -0.000000 1.000000
vn 0.000000 -0.000000 1.000000
vn 0.000000 -0.000000 1.000000
vn 0.000000 -0.000000 1.000000
vn 0.000000 -0.000000 1.000000
vn 0.000000 -0.000000 1.000000
vn 0.000000 1.000000 -0.000000
vn 0.000000 1.000000 -0.000000
vn 0.000000 1.000000 -0.000000
vn 0.000000 1.000000 -0.000000
vn 0.000000 1.000000 -0.000000
vn 0.000000 1.000000 -0.000000
vn 0.000000 1.000000 -0.000000
vn 0.000000 1.000000 -0.000000
vn 0.000000 1.000000 -0.000000
vn 0.000000 1.000000 -0.000000
vn 0.000000 1.000000 -0.000000
vn 0.000000 1.000000 -0.000000
vn 0.000000 1.000000 -0.000000
vn 0.000000 1.000000 -0.000000
vn 0.000000 1.000000 -0.000000
vn 0.000000 1.000000 -0.000000
vn -0.000001 1.000000 -0.000000
vn -0.000001 1.000000 -0.000000
vn -0.000001 1.000000 -0.000000
vn -0.000001 1.000000 -0.000000
vn 0.000001 1.000000 -0.000000
vn 0.000001 1.000000 -0.000000
vn 0.000000 -0.000000 -1.000000
vn 0.000000 -0.000000 -1.000000
vn 0.000000 -0.000000 -1.000000
vn 0.000000 -0.000000 -1.000000
vn 0.000000 -0.000000 -1.000000
vn 0.000000 -0.000000 -1.000000
vn 0.000000 -0.000000 -1.000000
vn 0.000000 -0.000000 -1.000000
vn 0.000000 -0.000000 -1.000000
vn 0.000000 -0.000000 -1.000000
vn 0.000000 -0.000000 -1.000000
vn 0.000000 -0.000000 -1.000000
vn 0.000000 -0.000000 -1.000000
vn 0.000000 -0.000000 -1.000000
vn 0.000000 -0.000000 -1.000000
vn 0.000000 -0.000000 -1.000000
vn 0.000000 -0.000000 -1.000000
vn 0.000000 -0.000000 -1.000000
vn 0.000000 -0.000000 -1.000000
vn 0.000000 -0.000000 -1.000000
vn 0.000000 -0.000000 -1.000000
vn 0.000000 -0.000000 -1.000000
vn 0.000000 0.000000 1.000000
vn 0.000000 0.000000 1.000000
vn 0.000000 0.000000 1.000000
vn 0.000000 0.000000 1.000000
vn 1.000000 0.000000 0.000000
vn 1.000000 0.000000 0.000000
vn 1.000000 0.000000 0.000000
vn 1.000000 0.000000 0.000000
vn 0.000000 -0.000000 -1.000000
vn 0.000000 -0.000000 -1.000000
vn 0.000000 -0.000000 -1.000000
vn 0.000000 -0.000000 -1.000000
vn 0.000000 0.000000 1.000000
vn 0.000000 0.000000 1.000000
vn 0.000000 0.000000 1.000000
vn 0.000000 0.000000 1.000000
vn 0.000000 -0.000000 -1.000000
vn 0.000000 -0.000000 -1.000000
vn 0.000000 -0.000000 -1.000000
vn 0.000000 -0.000000 -1.000000
vn 0.000000 0.000000 1.000000
vn 0.000000 0.000000 1.000000
vn 0.000000 0.000000 1.000000
vn 0.000000 0.000000 1.000000
vn 0.000000 -0.000000 -1.000000
vn 0.000000 -0.000000 -1.000000
vn 0.000000 -0.000000 -1.000000
vn 0.000000 -0.000000 -1.000000
vn 0.000000 0.000000 1.000000
vn 0.000000 0.000000 1.000000
vn 0.000000 0.000000 1.000000
vn 0.000000 0.000000 1.000000
vn 0.000000 -0.000000 -1.000000
vn 0.000000 -0.000000 -1.000000
vn 0.000000 -0.000000 -1.000000
vn 0.000000 -0.000000 -1.000000
vn 0.000000 0.000000 1.000000
vn 0.000000 0.000000 1.000000
vn 0.000000 0.000000 1.000000
vn 0.000000 0.000000 1.000000
vn 0.000000 -0.000000 -1.000000
vn 0.000000 -0.000000 -1.000000
vn 0.000000 -0.000000 -1.000000
vn 0.000000 -0.000000 -1.000000
vn 0.000000 0.000000 1.000000
vn 0.000000 0.000000 1.000000
vn 0.000000 0.000000 1.000000
vn 0.000000 0.000000 1.000000
vn 0.000000 -0.000000 -1.000000
vn 0.000000 -0.000000 -1.000000
vn 0.000000 -0.000000 -1.000000
vn 0.000000 -0.000000 -1.000000
vn 0.000000 0.000000 1.000000
vn 0.000000 0.000000 1.000000
vn 0.000000 0.000000 1.000000
vn 0.000000 0.000000 1.000000
vn 0.000000 -0.000000 -1.000000
vn 0.000000 -0.000000 -1.000000
vn 0.000000 -0.000000 -1.000000
vn 0.000000 -0.000000 -1.000000
vn 0.000000 0.000000 1.000000
vn 0.000000 0.000000 1.000000
vn 0.000000 0.000000 1.000000
vn 0.000000 0.000000 1.000000
vn 0.000000 -0.000000 -1.000000
vn 0.000000 -0.000000 -1.000000
vn 0.000000 -0.000000 -1.000000
vn 0.000000 -0.000000 -1.000000
vn 0.000000 0.000000 1.000000
vn 0.000000 0.000000 1.000000
vn 0.000000 0.000000 1.000000
vn 0.000000 0.000000 1.000000
vn 0.000000 -0.000000 -1.000000
vn 0.000000 -0.000000 -1.000000
vn 0.000000 -0.000000 -1.000000
vn 0.000000 -0.000000 -1.000000
vn 0.000000 0.000000 1.000000
vn 0.000000 0.000000 1.000000
vn 0.000000 0.000000 1.000000
vn 0.000000 0.000000 1.000000
vn 0.000000 -0.000000 -1.000000
vn 0.000000 -0.000000 -1.000000
vn 0.000000 -0.000000 -1.000000
vn 0.000000 -0.000000 -1.000000
vn -1.000000 0.000000 0.000000
vn -1.000000 0.000000 0.000000
vn -1.000000 0.000000 0.000000
vn -1.000000 0.000000 0.000000
vn 0.000000 -1.000000 0.000000
vn 0.000000 -1.000000 0.000000
vn 0.000000 -1.000000 0.000000
vn 0.000000 -1.000000 0.000000
vn 0.000000 -0.000000 -1.000000
vn 0.000000 -0.000000 -1.000000
vn 0.000000 1.000000 -0.000000
vn 0.000000 1.000000 -0.000000
vn 0.000000 0.000000 1.000000
vn 0.000000 0.000000 1.000000
vn 0.000000 -1.000000 0.000000
vn 0.000000 -1.000000 0.000000
vn 0.000000 -1.000000 0.000000
vn 0.000000 -1.000000 0.000000
vn 0.000000 0.000000 1.000000
vn 0.000000 0.000000 1.000000
vn 0.000000 1.000000 -0.000000
vn 0.000000 1.000000 -0.000000
vn 0.000000 -0.000000 -1.000000
vn 0.000000 -0.000000 -1.000000
s 1
g furnace
usemtl lambert3SG
f 2/1/1 1/2/2 12/3/3 13/4/4
f 3/5/5 2/1/1 13/4/4 14/6/6
f 4/7/7 3/5/5 14/6/6 15/8/8
f 5/9/9 4/10/7 15/11/8 16/12/10
f 6/13/11 5/9/9 16/12/10 17/14/12
f 7/15/13 6/13/11 17/14/12 18/16/14
f 8/17/15 7/15/13 18/16/14 19/18/16
f 9/19/17 8/17/15 19/18/16 20/20/18
f 10/21/19 9/22/17 20/23/18 21/24/20
f 11/25/21 10/21/19 21/24/20 22/26/22
s 2
f 13/27/23 12/28/24 23/29/25 24/30/26
f 14/33/27 13/27/23 24/30/26 25/34/28
f 15/38/29 14/33/27 25/34/28 26/39/30
f 16/41/31 15/38/29 26/39/30 27/42/32
f 17/44/33 16/41/31 27/42/32 28/45/34
f 18/47/35 17/44/33 28/45/34 29/48/36
f 19/50/37 18/47/35 29/48/36 30/51/38
f 20/53/39 19/50/37 30/51/38 31/54/40
f 21/56/41 20/53/39 31/54/40 32/57/42
f 22/59/43 21/56/41 32/57/42 33/60/44
s 3
f 46/64/45 45/65/46 47/66/47 48/67/48
f 49/70/49 46/64/45 48/67/48 50/71/50
f 51/72/51 49/70/49 50/71/50 52/73/52
f 53/74/53 51/72/51 52/73/52 54/75/54
f 55/76/55 53/74/53 54/75/54 56/77/56
f 57/78/57 55/76/55 56/77/56 58/79/58
f 59/80/59 57/78/57 58/79/58 60/81/60
f 61/82/61 59/80/59 60/81/60 62/83/62
f 63/84/63 61/82/61 62/83/62 64/85/64
f 65/86/65 63/84/63 64/85/64 66/87/66
s 4
f 35/90/67 34/91/68 1/92/69 2/93/70
f 36/96/71 35/90/67 2/93/70 3/97/72
f 37/101/73 36/96/71 3/97/72 4/102/74
f 38/104/75 37/101/73 4/102/74 5/105/76
f 39/107/77 38/104/75 5/105/76 6/108/78
f 40/110/79 39/107/77 6/108/78 7/111/80
f 41/113/81 40/110/79 7/111/80 8/114/82
f 42/116/83 41/113/81 8/114/82 9/117/84
f 43/119/85 42/116/83 9/117/84 10/120/86
f 44/122/87 43/119/85 10/120/86 11/123/88
s 5
f 24/30/89 23/29/90 45/31/91 46/32/92
s off
f 67/127/93 68/128/94 69/129/95 70/130/96
s 6
f 34/91/97 35/90/98 48/94/99 47/95/100
s off
f 25/34/101 24/30/102 46/32/103 49/37/104
f 35/90/105 36/96/106 50/98/107 48/94/108
f 26/39/109 25/34/110 49/37/111 51/40/112
f 36/96/113 37/101/114 52/103/115 50/98/116
f 27/42/117 26/39/118 51/40/119 53/43/120
f 37/101/121 38/104/122 54/106/123 52/103/124
f 28/45/125 27/42/126 53/43/127 55/46/128
f 38/104/129 39/107/130 56/109/131 54/106/132
f 29/48/133 28/45/134 55/46/135 57/49/136
f 39/107/137 40/110/138 58/112/139 56/109/140
f 30/51/141 29/48/142 57/49/143 59/52/144
f 40/110/145 41/113/146 60/115/147 58/112/148
f 31/54/149 30/51/150 59/52/151 61/55/152
f 41/113/153 42/116/154 62/118/155 60/115/156
f 32/57/157 31/54/158 61/55/159 63/58/160
f 42/116/161 43/119/162 64/121/163 62/118/164
s 7
f 33/60/165 32/57/166 63/58/167 65/61/168
s 8
f 43/119/169 44/122/170 66/124/171 64/121/172
s off
f 72/131/173 71/132/174 73/133/175 74/134/176
f 23/135/177 34/136/178 68/137/179 67/138/180
s 6
f 34/91/97 47/95/100 69/99/181 68/100/182
s 3
f 47/66/47 45/65/46 70/68/183 69/69/184
s 5
f 45/31/91 23/29/90 67/35/185 70/36/186
s off
f 44/139/187 33/140/188 71/141/189 72/142/190
s 7
f 33/60/165 65/61/168 73/62/191 71/63/192
s 3
f 65/86/65 66/87/66 74/88/193 73/89/194
s 8
f 66/124/171 44/122/170 72/125/195 74/126/196
