# This file uses feet as units for non-parametric coordinates.

mtllib Shelf.mtl
g default
v 87.734791 35.928648 40.776005
v 87.734791 41.871827 40.776005
v -101.162256 35.928648 40.776005
v -101.162256 41.871827 40.776005
v -101.162256 35.928648 -28.642033
v -101.162256 41.871827 -28.642033
v 87.734791 35.928648 -28.642033
v 87.734791 41.871827 -28.642033
vt 0.134900 0.032410
vt 0.200239 0.032410
vt 0.200239 0.941696
vt 0.134900 0.941696
vt 0.785610 0.032410
vt 0.821462 0.032410
vt 0.821462 0.198271
vt 0.785610 0.198271
vt 0.202725 0.032410
vt 0.268064 0.032410
vt 0.268064 0.941696
vt 0.202725 0.941696
vt 0.859965 0.202018
vt 0.909221 0.202018
vt 0.909221 0.367879
vt 0.859965 0.367879
vt 0.376627 0.032410
vt 0.542488 0.032410
vt 0.542488 0.941696
vt 0.376627 0.941696
vt 0.548616 0.032410
vt 0.714477 0.032410
vt 0.714477 0.941696
vt 0.548616 0.941696
vn 0.000000 0.000000 1.000000
vn 0.000000 0.000000 1.000000
vn 0.000000 0.000000 1.000000
vn 0.000000 0.000000 1.000000
vn -1.000000 0.000000 0.000000
vn -1.000000 0.000000 0.000000
vn -1.000000 0.000000 0.000000
vn -1.000000 0.000000 0.000000
vn 0.000000 0.000000 -1.000000
vn 0.000000 0.000000 -1.000000
vn 0.000000 0.000000 -1.000000
vn 0.000000 0.000000 -1.000000
vn 1.000000 -0.000000 0.000000
vn 1.000000 -0.000000 0.000000
vn 1.000000 -0.000000 0.000000
vn 1.000000 -0.000000 0.000000
vn 0.000000 1.000000 0.000000
vn 0.000000 1.000000 0.000000
vn 0.000000 1.000000 0.000000
vn 0.000000 1.000000 0.000000
vn -0.000000 -1.000000 0.000000
vn -0.000000 -1.000000 0.000000
vn -0.000000 -1.000000 0.000000
vn -0.000000 -1.000000 0.000000
s off
g pCube4 SHelf
usemtl lambert3SG
f 1/1/1 2/2/2 4/3/3 3/4/4
f 3/5/5 4/6/6 6/7/7 5/8/8
f 5/9/9 6/10/10 8/11/11 7/12/12
f 7/13/13 8/14/14 2/15/15 1/16/16
f 2/17/17 8/18/18 6/19/19 4/20/20
f 7/21/21 1/22/22 3/23/23 5/24/24
g default
v 87.734791 99.149407 31.956125
v 87.734791 105.092586 31.956125
v -101.162256 99.149407 31.956125
v -101.162256 105.092586 31.956125
v -101.162256 99.149407 -24.009549
v -101.162256 105.092586 -24.009549
v 87.734791 99.149407 -24.009549
v 87.734791 105.092586 -24.009549
vt 0.154021 0.032410
vt 0.200596 0.032410
vt 0.200596 0.941696
vt 0.154021 0.941696
vt 0.792758 0.032410
vt 0.814314 0.032410
vt 0.814314 0.198271
vt 0.792758 0.198271
vt 0.202368 0.032410
vt 0.248943 0.032410
vt 0.248943 0.941696
vt 0.202368 0.941696
vt 0.871358 0.202018
vt 0.897828 0.202018
vt 0.897828 0.367879
vt 0.871358 0.367879
vt 0.376627 0.032410
vt 0.542488 0.032410
vt 0.542488 0.941696
vt 0.376627 0.941696
vt 0.548616 0.032410
vt 0.714477 0.032410
vt 0.714477 0.941696
vt 0.548616 0.941696
vn 0.000000 0.000000 1.000000
vn 0.000000 0.000000 1.000000
vn 0.000000 0.000000 1.000000
vn 0.000000 0.000000 1.000000
vn -1.000000 0.000000 0.000000
vn -1.000000 0.000000 0.000000
vn -1.000000 0.000000 0.000000
vn -1.000000 0.000000 0.000000
vn 0.000000 0.000000 -1.000000
vn 0.000000 0.000000 -1.000000
vn 0.000000 0.000000 -1.000000
vn 0.000000 0.000000 -1.000000
vn 1.000000 -0.000000 0.000000
vn 1.000000 -0.000000 0.000000
vn 1.000000 -0.000000 0.000000
vn 1.000000 -0.000000 0.000000
vn 0.000000 1.000000 0.000000
vn 0.000000 1.000000 0.000000
vn 0.000000 1.000000 0.000000
vn 0.000000 1.000000 0.000000
vn -0.000000 -1.000000 0.000000
vn -0.000000 -1.000000 0.000000
vn -0.000000 -1.000000 0.000000
vn -0.000000 -1.000000 0.000000
s off
g SHelf pCube5
usemtl lambert3SG
f 9/25/25 10/26/26 12/27/27 11/28/28
f 11/29/29 12/30/30 14/31/31 13/32/32
f 13/33/33 14/34/34 16/35/35 15/36/36
f 15/37/37 16/38/38 10/39/39 9/40/40
f 10/41/41 16/42/42 14/43/43 12/44/44
f 15/45/45 9/46/46 11/47/47 13/48/48
g default
v 87.734791 134.722677 31.956125
v 87.734791 140.665856 31.956125
v -101.162256 134.722677 31.956125
v -101.162256 140.665856 31.956125
v -101.162256 134.722677 -24.009549
v -101.162256 140.665856 -24.009549
v 87.734791 134.722677 -24.009549
v 87.734791 140.665856 -24.009549
vt 0.147192 0.032410
vt 0.200469 0.032410
vt 0.200469 0.941696
vt 0.147192 0.941696
vt 0.778238 0.032410
vt 0.828834 0.032410
vt 0.828834 0.198271
vt 0.778238 0.198271
vt 0.202496 0.032410
vt 0.255772 0.032410
vt 0.255772 0.941696
vt 0.202496 0.941696
vt 0.861305 0.202018
vt 0.907881 0.202018
vt 0.907881 0.367879
vt 0.861305 0.367879
vt 0.376627 0.032410
vt 0.542488 0.032410
vt 0.542488 0.941696
vt 0.376627 0.941696
vt 0.548616 0.032410
vt 0.714477 0.032410
vt 0.714477 0.941696
vt 0.548616 0.941696
vn 0.000000 0.000000 1.000000
vn 0.000000 0.000000 1.000000
vn 0.000000 0.000000 1.000000
vn 0.000000 0.000000 1.000000
vn -1.000000 0.000000 0.000000
vn -1.000000 0.000000 0.000000
vn -1.000000 0.000000 0.000000
vn -1.000000 0.000000 0.000000
vn 0.000000 0.000000 -1.000000
vn 0.000000 0.000000 -1.000000
vn 0.000000 0.000000 -1.000000
vn 0.000000 0.000000 -1.000000
vn 1.000000 -0.000000 0.000000
vn 1.000000 -0.000000 0.000000
vn 1.000000 -0.000000 0.000000
vn 1.000000 -0.000000 0.000000
vn 0.000000 1.000000 0.000000
vn 0.000000 1.000000 0.000000
vn 0.000000 1.000000 0.000000
vn 0.000000 1.000000 0.000000
vn -0.000000 -1.000000 0.000000
vn -0.000000 -1.000000 0.000000
vn -0.000000 -1.000000 0.000000
vn -0.000000 -1.000000 0.000000
s off
g SHelf pCube6
usemtl lambert3SG
f 17/49/49 18/50/50 20/51/51 19/52/52
f 19/53/53 20/54/54 22/55/55 21/56/56
f 21/57/57 22/58/58 24/59/59 23/60/60
f 23/61/61 24/62/62 18/63/63 17/64/64
f 18/65/65 24/66/66 22/67/67 20/68/68
f 23/69/69 17/70/70 19/71/71 21/72/72
g default
v 87.734791 159.152513 31.956125
v 87.734791 165.095692 31.956125
v -101.162256 159.152513 31.956125
v -101.162256 165.095692 31.956125
v -101.162256 159.152513 -24.009549
v -101.162256 165.095692 -24.009549
v 87.734791 159.152513 -24.009549
v 87.734791 165.095692 -24.009549
vt 0.049843 0.032410
vt 0.103566 0.032410
vt 0.103566 0.941696
vt 0.049843 0.941696
vt 0.782259 0.032410
vt 0.824813 0.032410
vt 0.824813 0.198271
vt 0.782259 0.198271
vt 0.255569 0.032410
vt 0.319568 0.032410
vt 0.319568 0.941696
vt 0.255569 0.941696
vt 0.857285 0.202018
vt 0.911901 0.202018
vt 0.911901 0.367879
vt 0.857285 0.367879
vt 0.376627 0.032410
vt 0.542488 0.032410
vt 0.542488 0.941696
vt 0.376627 0.941696
vt 0.548616 0.032410
vt 0.714477 0.032410
vt 0.714477 0.941696
vt 0.548616 0.941696
vn 0.000000 0.000000 1.000000
vn 0.000000 0.000000 1.000000
vn 0.000000 0.000000 1.000000
vn 0.000000 0.000000 1.000000
vn -1.000000 0.000000 0.000000
vn -1.000000 0.000000 0.000000
vn -1.000000 0.000000 0.000000
vn -1.000000 0.000000 0.000000
vn 0.000000 0.000000 -1.000000
vn 0.000000 0.000000 -1.000000
vn 0.000000 0.000000 -1.000000
vn 0.000000 0.000000 -1.000000
vn 1.000000 -0.000000 0.000000
vn 1.000000 -0.000000 0.000000
vn 1.000000 -0.000000 0.000000
vn 1.000000 -0.000000 0.000000
vn 0.000000 1.000000 0.000000
vn 0.000000 1.000000 0.000000
vn 0.000000 1.000000 0.000000
vn 0.000000 1.000000 0.000000
vn -0.000000 -1.000000 0.000000
vn -0.000000 -1.000000 0.000000
vn -0.000000 -1.000000 0.000000
vn -0.000000 -1.000000 0.000000
s off
g SHelf pCube7
usemtl lambert3SG
f 25/73/73 26/74/74 28/75/75 27/76/76
f 27/77/77 28/78/78 30/79/79 29/80/80
f 29/81/81 30/82/82 32/83/83 31/84/84
f 31/85/85 32/86/86 26/87/87 25/88/88
f 26/89/89 32/90/90 30/91/91 28/92/92
f 31/93/93 25/94/94 27/95/95 29/96/96
g default
v -18.708556 39.418159 23.487163
v -12.765377 39.418159 23.487163
v -18.708556 191.708177 23.487163
v -12.765377 191.708177 23.487163
v -18.708556 191.708177 -24.009549
v -12.765377 191.708177 -24.009549
v -18.708556 39.418159 -24.009549
v -12.765377 39.418159 -24.009549
vt 0.176499 0.032312
vt 0.229584 0.032312
vt 0.229584 0.892602
vt 0.176499 0.892602
vt 0.779155 0.226957
vt 0.779155 0.032312
vt 0.944345 0.032312
vt 0.944345 0.226957
vt 0.231439 0.032312
vt 0.284524 0.032312
vt 0.284524 0.892602
vt 0.231439 0.892602
vt 0.802333 0.425348
vt 0.802333 0.230704
vt 0.967523 0.230704
vt 0.967523 0.425348
vt 0.076679 0.032312
vt 0.241869 0.032312
vt 0.241869 0.892602
vt 0.076679 0.892602
vt 0.248669 0.032312
vt 0.413859 0.032312
vt 0.413859 0.892602
vt 0.248669 0.892602
vn 0.000000 0.000000 1.000000
vn 0.000000 0.000000 1.000000
vn 0.000000 0.000000 1.000000
vn 0.000000 0.000000 1.000000
vn 0.000000 1.000000 0.000000
vn 0.000000 1.000000 0.000000
vn 0.000000 1.000000 0.000000
vn 0.000000 1.000000 0.000000
vn 0.000000 0.000000 -1.000000
vn 0.000000 0.000000 -1.000000
vn 0.000000 0.000000 -1.000000
vn 0.000000 0.000000 -1.000000
vn 0.000000 -1.000000 0.000000
vn 0.000000 -1.000000 0.000000
vn 0.000000 -1.000000 0.000000
vn 0.000000 -1.000000 0.000000
vn 1.000000 0.000000 0.000000
vn 1.000000 0.000000 0.000000
vn 1.000000 0.000000 0.000000
vn 1.000000 0.000000 0.000000
vn -1.000000 0.000000 0.000000
vn -1.000000 0.000000 0.000000
vn -1.000000 0.000000 0.000000
vn -1.000000 0.000000 0.000000
s off
g SHelf pCube10
usemtl lambert3SG
f 33/97/97 34/98/98 36/99/99 35/100/100
f 35/101/101 36/102/102 38/103/103 37/104/104
f 37/105/105 38/106/106 40/107/107 39/108/108
f 39/109/109 40/110/110 34/111/111 33/112/112
f 34/113/113 40/114/114 38/115/115 36/116/116
f 39/117/117 33/118/118 35/119/119 37/120/120
g default
v 46.975608 101.794462 23.487163
v 52.918786 101.794462 23.487163
v 46.975608 191.708177 23.487163
v 52.918786 191.708177 23.487163
v 46.975608 191.708177 -24.009549
v 52.918786 191.708177 -24.009549
v 46.975608 101.794462 -24.009549
v 52.918786 101.794462 -24.009549
vt 0.220048 0.032327
vt 0.274162 0.032327
vt 0.274162 0.657002
vt 0.220048 0.657002
vt 0.764363 0.900134
vt 0.764363 0.660749
vt 0.967523 0.660749
vt 0.967523 0.900134
vt 0.275513 0.032327
vt 0.329627 0.032327
vt 0.329627 0.657002
vt 0.275513 0.657002
vt 0.555443 0.900134
vt 0.555443 0.660749
vt 0.758604 0.660749
vt 0.758604 0.900134
vt 0.130630 0.032327
vt 0.333790 0.032327
vt 0.333790 0.657002
vt 0.130630 0.657002
vt 0.341042 0.032327
vt 0.544202 0.032327
vt 0.544202 0.657002
vt 0.341042 0.657002
vn 0.000000 0.000000 1.000000
vn 0.000000 0.000000 1.000000
vn 0.000000 0.000000 1.000000
vn 0.000000 0.000000 1.000000
vn 0.000000 1.000000 0.000000
vn 0.000000 1.000000 0.000000
vn 0.000000 1.000000 0.000000
vn 0.000000 1.000000 0.000000
vn 0.000000 0.000000 -1.000000
vn 0.000000 0.000000 -1.000000
vn 0.000000 0.000000 -1.000000
vn 0.000000 0.000000 -1.000000
vn 0.000000 -1.000000 0.000000
vn 0.000000 -1.000000 0.000000
vn 0.000000 -1.000000 0.000000
vn 0.000000 -1.000000 0.000000
vn 1.000000 0.000000 0.000000
vn 1.000000 0.000000 0.000000
vn 1.000000 0.000000 0.000000
vn 1.000000 0.000000 0.000000
vn -1.000000 0.000000 0.000000
vn -1.000000 0.000000 0.000000
vn -1.000000 0.000000 0.000000
vn -1.000000 0.000000 0.000000
s off
g SHelf pCube11
usemtl lambert3SG
f 41/121/121 42/122/122 44/123/123 43/124/124
f 43/125/125 44/126/126 46/127/127 45/128/128
f 45/129/129 46/130/130 48/131/131 47/132/132
f 47/133/133 48/134/134 42/135/135 41/136/136
f 42/137/137 48/138/138 46/139/139 44/140/140
f 47/141/141 41/142/142 43/143/143 45/144/144
g default
v -15.280594 67.016148 31.956125
v -15.280594 72.959326 31.956125
v -101.162256 67.016148 31.956125
v -101.162256 72.959326 31.956125
v -101.162256 67.016148 -24.009549
v -101.162256 72.959326 -24.009549
v -15.280594 67.016148 -24.009549
v -15.280594 72.959326 -24.009549
vt 0.181855 0.032170
vt 0.259308 0.032170
vt 0.259308 0.592855
vt 0.181855 0.592855
vt 0.828009 0.596603
vt 0.882088 0.596603
vt 0.882088 0.821553
vt 0.828009 0.821553
vt 0.261295 0.032170
vt 0.338749 0.032170
vt 0.338749 0.592855
vt 0.261295 0.592855
vt 0.590936 0.596603
vt 0.657739 0.596603
vt 0.657739 0.821553
vt 0.590936 0.821553
vt 0.495556 0.032170
vt 0.720506 0.032170
vt 0.720506 0.592855
vt 0.495556 0.592855
vt 0.727924 0.032170
vt 0.952875 0.032170
vt 0.952875 0.592855
vt 0.727924 0.592855
vn 0.000000 0.000000 1.000000
vn 0.000000 0.000000 1.000000
vn 0.000000 0.000000 1.000000
vn 0.000000 0.000000 1.000000
vn -1.000000 0.000000 0.000000
vn -1.000000 0.000000 0.000000
vn -1.000000 0.000000 0.000000
vn -1.000000 0.000000 0.000000
vn 0.000000 0.000000 -1.000000
vn 0.000000 0.000000 -1.000000
vn 0.000000 0.000000 -1.000000
vn 0.000000 0.000000 -1.000000
vn 1.000000 -0.000000 0.000000
vn 1.000000 -0.000000 0.000000
vn 1.000000 -0.000000 0.000000
vn 1.000000 -0.000000 0.000000
vn 0.000000 1.000000 0.000000
vn 0.000000 1.000000 0.000000
vn 0.000000 1.000000 0.000000
vn 0.000000 1.000000 0.000000
vn -0.000000 -1.000000 0.000000
vn -0.000000 -1.000000 0.000000
vn -0.000000 -1.000000 0.000000
vn -0.000000 -1.000000 0.000000
s off
g SHelf pCube12
usemtl lambert3SG
f 49/145/145 50/146/146 52/147/147 51/148/148
f 51/149/149 52/150/150 54/151/151 53/152/152
f 53/153/153 54/154/154 56/155/155 55/156/156
f 55/157/157 56/158/158 50/159/159 49/160/160
f 50/161/161 56/162/162 54/163/163 52/164/164
f 55/165/165 49/166/166 51/167/167 53/168/168
g default
v 87.734795 189.388547 31.956125
v 87.734795 202.577450 31.956125
v -101.162254 189.388547 31.956125
v -101.162254 202.577450 31.956125
v -101.162254 189.388547 -24.009550
v -101.162254 202.577450 -24.009550
v 87.734795 189.388547 -24.009550
v 87.734795 202.577450 -24.009550
v 75.904182 9.662256 23.619085
v 81.847359 9.662256 23.619085
v 75.904182 190.758359 23.619085
v 81.847359 190.758359 23.619085
v 75.904182 190.758359 -23.619085
v 81.847359 190.758359 -23.619085
v 75.904182 9.662256 -23.619085
v 81.847359 9.662256 -23.619085
v -93.872040 9.662256 23.619085
v -87.928864 9.662256 23.619085
v -93.872040 190.758359 23.619085
v -87.928864 190.758359 23.619085
v -93.872040 190.758359 -23.619085
v -87.928864 190.758359 -23.619085
v -93.872040 9.662256 -23.619085
v -87.928864 9.662256 -23.619085
v 87.734795 -1.499214 31.956125
v 87.734795 11.689686 31.956125
v -101.162254 -1.499214 31.956125
v -101.162254 11.689686 31.956125
v -101.162254 -1.499214 -24.009550
v -101.162254 11.689686 -24.009550
v 87.734795 -1.499214 -24.009550
v 87.734795 11.689686 -24.009550
vt 0.054185 0.039831
vt 0.113963 0.039831
vt 0.113963 0.895991
vt 0.054185 0.895991
vt 0.313152 0.511518
vt 0.346362 0.511518
vt 0.346362 0.652440
vt 0.313152 0.652440
vt 0.118467 0.896932
vt 0.059642 0.896932
vt 0.059642 0.054414
vt 0.118467 0.054414
vt 0.274699 0.511518
vt 0.307909 0.511518
vt 0.307909 0.652440
vt 0.274699 0.652440
vt 0.110751 0.032462
vt 0.251673 0.032462
vt 0.251673 0.508106
vt 0.110751 0.508106
vt 0.257329 0.032462
vt 0.398251 0.032462
vt 0.398251 0.508106
vt 0.257329 0.508106
vt 0.777015 0.032462
vt 0.791980 0.032462
vt 0.791980 0.488463
vt 0.777015 0.488463
vt 0.177584 0.511518
vt 0.192549 0.511518
vt 0.192549 0.630464
vt 0.177584 0.630464
vt 0.798669 0.032462
vt 0.813634 0.032462
vt 0.813634 0.488463
vt 0.798669 0.488463
vt 0.157376 0.511518
vt 0.172341 0.511518
vt 0.172341 0.630464
vt 0.157376 0.630464
vt 0.764591 0.511518
vt 0.883538 0.511518
vt 0.883538 0.967519
vt 0.764591 0.967519
vt 0.640402 0.511518
vt 0.759348 0.511518
vt 0.759348 0.967519
vt 0.640402 0.967519
vt 0.620193 0.511518
vt 0.635158 0.511518
vt 0.635158 0.967519
vt 0.620193 0.967519
vt 0.137167 0.511518
vt 0.152132 0.511518
vt 0.152132 0.630464
vt 0.137167 0.630464
vt 0.599985 0.511518
vt 0.614950 0.511518
vt 0.614950 0.967519
vt 0.599985 0.967519
vt 0.116959 0.511518
vt 0.131924 0.511518
vt 0.131924 0.630464
vt 0.116959 0.630464
vt 0.475795 0.511518
vt 0.594742 0.511518
vt 0.594742 0.967519
vt 0.475795 0.967519
vt 0.351606 0.511518
vt 0.470552 0.511518
vt 0.470552 0.967519
vt 0.351606 0.967519
vt 0.391611 0.049756
vt 0.453052 0.049756
vt 0.453052 0.929746
vt 0.391611 0.929746
vt 0.236246 0.511518
vt 0.269456 0.511518
vt 0.269456 0.652440
vt 0.236246 0.652440
vt 0.527012 0.929746
vt 0.465570 0.929746
vt 0.465570 0.049756
vt 0.527012 0.049756
vt 0.197793 0.511518
vt 0.231002 0.511518
vt 0.231002 0.652440
vt 0.197793 0.652440
vt 0.483859 0.032462
vt 0.624781 0.032462
vt 0.624781 0.508106
vt 0.483859 0.508106
vt 0.630437 0.032462
vt 0.771359 0.032462
vt 0.771359 0.508106
vt 0.630437 0.508106
vn 0.000000 0.000000 1.000000
vn 0.000000 0.000000 1.000000
vn 0.000000 0.000000 1.000000
vn 0.000000 0.000000 1.000000
vn -1.000000 0.000000 0.000000
vn -1.000000 0.000000 0.000000
vn -1.000000 0.000000 0.000000
vn -1.000000 0.000000 0.000000
vn 0.000000 0.000000 -1.000000
vn 0.000000 0.000000 -1.000000
vn 0.000000 0.000000 -1.000000
vn 0.000000 0.000000 -1.000000
vn 1.000000 0.000000 0.000000
vn 1.000000 0.000000 0.000000
vn 1.000000 0.000000 0.000000
vn 1.000000 0.000000 0.000000
vn 0.000000 1.000000 0.000000
vn 0.000000 1.000000 0.000000
vn 0.000000 1.000000 0.000000
vn 0.000000 1.000000 0.000000
vn 0.000000 -1.000000 0.000000
vn 0.000000 -1.000000 0.000000
vn 0.000000 -1.000000 0.000000
vn 0.000000 -1.000000 0.000000
vn 0.000000 0.000000 1.000000
vn 0.000000 0.000000 1.000000
vn 0.000000 0.000000 1.000000
vn 0.000000 0.000000 1.000000
vn 0.000000 1.000000 0.000000
vn 0.000000 1.000000 0.000000
vn 0.000000 1.000000 0.000000
vn 0.000000 1.000000 0.000000
vn 0.000000 0.000000 -1.000000
vn 0.000000 0.000000 -1.000000
vn 0.000000 0.000000 -1.000000
vn 0.000000 0.000000 -1.000000
vn 0.000000 -1.000000 0.000000
vn 0.000000 -1.000000 0.000000
vn 0.000000 -1.000000 0.000000
vn 0.000000 -1.000000 0.000000
vn 1.000000 0.000000 0.000000
vn 1.000000 0.000000 0.000000
vn 1.000000 0.000000 0.000000
vn 1.000000 0.000000 0.000000
vn -1.000000 0.000000 0.000000
vn -1.000000 0.000000 0.000000
vn -1.000000 0.000000 0.000000
vn -1.000000 0.000000 0.000000
vn 0.000000 0.000000 1.000000
vn 0.000000 0.000000 1.000000
vn 0.000000 0.000000 1.000000
vn 0.000000 0.000000 1.000000
vn 0.000000 1.000000 0.000000
vn 0.000000 1.000000 0.000000
vn 0.000000 1.000000 0.000000
vn 0.000000 1.000000 0.000000
vn 0.000000 0.000000 -1.000000
vn 0.000000 0.000000 -1.000000
vn 0.000000 0.000000 -1.000000
vn 0.000000 0.000000 -1.000000
vn 0.000000 -1.000000 0.000000
vn 0.000000 -1.000000 0.000000
vn 0.000000 -1.000000 0.000000
vn 0.000000 -1.000000 0.000000
vn 1.000000 0.000000 0.000000
vn 1.000000 0.000000 0.000000
vn 1.000000 0.000000 0.000000
vn 1.000000 0.000000 0.000000
vn -1.000000 0.000000 0.000000
vn -1.000000 0.000000 0.000000
vn -1.000000 0.000000 0.000000
vn -1.000000 0.000000 0.000000
vn 0.000000 0.000000 1.000000
vn 0.000000 0.000000 1.000000
vn 0.000000 0.000000 1.000000
vn 0.000000 0.000000 1.000000
vn -1.000000 0.000000 0.000000
vn -1.000000 0.000000 0.000000
vn -1.000000 0.000000 0.000000
vn -1.000000 0.000000 0.000000
vn 0.000000 0.000000 -1.000000
vn 0.000000 0.000000 -1.000000
vn 0.000000 0.000000 -1.000000
vn 0.000000 0.000000 -1.000000
vn 1.000000 0.000000 0.000000
vn 1.000000 0.000000 0.000000
vn 1.000000 0.000000 0.000000
vn 1.000000 0.000000 0.000000
vn 0.000000 1.000000 0.000000
vn 0.000000 1.000000 0.000000
vn 0.000000 1.000000 0.000000
vn 0.000000 1.000000 0.000000
vn 0.000000 -1.000000 0.000000
vn 0.000000 -1.000000 0.000000
vn 0.000000 -1.000000 0.000000
vn 0.000000 -1.000000 0.000000
s off
g SHelf polySurface2
usemtl lambert3SG
f 57/169/169 58/170/170 60/171/171 59/172/172
f 59/173/173 60/174/174 62/175/175 61/176/176
f 61/177/177 62/178/178 64/179/179 63/180/180
f 63/181/181 64/182/182 58/183/183 57/184/184
f 58/185/185 64/186/186 62/187/187 60/188/188
f 63/189/189 57/190/190 59/191/191 61/192/192
f 65/193/193 66/194/194 68/195/195 67/196/196
f 67/197/197 68/198/198 70/199/199 69/200/200
f 69/201/201 70/202/202 72/203/203 71/204/204
f 71/205/205 72/206/206 66/207/207 65/208/208
f 66/209/209 72/210/210 70/211/211 68/212/212
f 71/213/213 65/214/214 67/215/215 69/216/216
f 73/217/217 74/218/218 76/219/219 75/220/220
f 75/221/221 76/222/222 78/223/223 77/224/224
f 77/225/225 78/226/226 80/227/227 79/228/228
f 79/229/229 80/230/230 74/231/231 73/232/232
f 74/233/233 80/234/234 78/235/235 76/236/236
f 79/237/237 73/238/238 75/239/239 77/240/240
f 81/241/241 82/242/242 84/243/243 83/244/244
f 83/245/245 84/246/246 86/247/247 85/248/248
f 85/249/249 86/250/250 88/251/251 87/252/252
f 87/253/253 88/254/254 82/255/255 81/256/256
f 82/257/257 88/258/258 86/259/259 84/260/260
f 87/261/261 81/262/262 83/263/263 85/264/264
