# This file uses meters as units for non-parametric coordinates.

v 1.146314 1.475649 -1.146314
v 0.000000 1.475648 -1.621131
v -1.146312 1.475649 -1.146314
v -1.621131 1.475649 0.000000
v -1.146312 1.475649 1.146314
v 0.000000 1.475649 1.621132
v 1.146314 1.475648 1.146314
v 1.621133 1.475649 0.000000
v 1.270265 0.925048 -1.270264
v 1.796425 0.925048 0.000000
v 1.270265 0.925048 1.270265
v 0.000000 0.925048 1.796425
v -1.270264 0.925048 1.270265
v -1.796424 0.925048 0.000000
v -1.270264 0.925048 -1.270264
v 0.000000 0.925048 -1.796424
v 1.270265 0.000000 -1.270264
v 0.000000 0.000000 -1.796424
v 0.000000 0.695618 -1.796424
v 1.270265 0.695618 -1.270264
v -1.270264 0.000000 -1.270264
v -1.270264 0.695618 -1.270264
v -1.796424 0.000000 0.000000
v -1.796424 0.695618 0.000000
v -1.270264 0.000000 1.270265
v -1.270264 0.695618 1.270265
v 0.000000 0.000000 1.796425
v 0.000000 0.695618 1.796425
v 1.270265 0.000000 1.270265
v 1.270265 0.695618 1.270265
v 1.796425 0.000000 0.000000
v 1.796425 0.695618 0.000000
v 0.000000 0.925048 -1.917938
v 1.356187 0.925048 -1.356186
v 1.356187 0.695618 -1.356186
v 0.000000 0.695618 -1.917938
v -1.356185 0.925048 -1.356186
v -1.356185 0.695618 -1.356186
v -1.917937 0.925048 0.000000
v -1.917937 0.695618 0.000000
v -1.356185 0.925048 1.356187
v -1.356185 0.695618 1.356187
v 0.000000 0.925048 1.917939
v 0.000000 0.695618 1.917939
v 1.356188 0.925048 1.356187
v 1.356188 0.695618 1.356187
v 1.917938 0.925048 0.000000
v 1.917938 0.695618 0.000000
v 0.970842 1.475648 -0.970841
v 0.000000 1.475649 -1.372978
v -0.970841 1.475648 -0.970841
v -1.372977 1.475649 0.000000
v -0.970841 1.475649 0.970841
v 0.000000 1.475648 1.372977
v 0.970842 1.475649 0.970841
v 1.372978 1.475649 0.000000
v 0.970842 1.330246 -0.970842
v 0.000000 1.330246 -1.372977
v -0.970841 1.330246 -0.970842
v -1.372977 1.330246 0.000000
v -0.970841 1.330246 0.970841
v 0.000000 1.330246 1.372977
v 0.970842 1.330246 0.970841
v 1.372978 1.330246 0.000000
v 0.097085 1.330246 0.097084
v 0.137299 1.330246 0.000000
v 0.097085 1.330246 -0.097084
v 0.000000 1.330246 -0.137297
v -0.097084 1.330246 -0.097084
v -0.137298 1.330246 0.000000
v -0.097084 1.330246 0.097084
v 0.000000 1.330246 0.137298
v 0.097085 1.249486 -0.097084
v 0.000000 1.249486 -0.137297
v 0.000000 1.249486 0.000000
v -0.097084 1.249486 -0.097084
v -0.137298 1.249486 0.000000
v -0.097084 1.249486 0.097084
v 0.000000 1.249486 0.137298
v 0.097085 1.249486 0.097084
v 0.137299 1.249486 0.000000
vt 0.501137 0.980777
vt 0.501137 0.980582
vt 0.621644 0.980582
vt 0.518352 0.980777
vt 0.518352 0.980582
vt 0.535568 0.980777
vt 0.535568 0.980582
vt 0.552783 0.980777
vt 0.552783 0.980582
vt 0.569998 0.980777
vt 0.569998 0.980582
vt 0.587213 0.980777
vt 0.587213 0.980582
vt 0.604428 0.980777
vt 0.604428 0.980582
vt 0.260300 0.396213
vt 0.260300 0.396213
vt 0.260300 0.396213
vt 0.260300 0.396213
vt 0.260300 0.396213
vt 0.260300 0.396213
vt 0.260300 0.396213
vt 0.260300 0.396213
vt 0.234999 0.064272
vt 0.234999 0.064272
vt 0.234999 0.064272
vt 0.234999 0.064272
vt 0.169516 0.063755
vt 0.234999 0.064272
vt 0.202985 0.063690
vt 0.202985 0.063690
vt 0.202985 0.063690
vt 0.202985 0.063690
vt 0.202985 0.063690
vt 0.202985 0.063690
vt 0.202985 0.063690
vt 0.202985 0.063690
vt 0.202985 0.063690
vt 0.202985 0.063690
vt 0.202985 0.063690
vt 0.202985 0.063690
vt 0.202985 0.063690
vt 0.202985 0.063690
vt 0.202985 0.063690
vt 0.169516 0.063755
vt 0.234999 0.064272
vt 0.202985 0.063690
vt 0.204602 0.396213
vt 0.204602 0.396213
vt 0.204602 0.396213
vt 0.204602 0.396213
vt 0.204602 0.396213
vt 0.204602 0.396213
vt 0.204602 0.396213
vt 0.204602 0.396213
vt 0.592700 0.976722
vt 0.204602 0.396213
vt 0.204602 0.396213
vt 0.204602 0.396213
vt 0.204602 0.396213
vt 0.204602 0.396213
vt 0.204602 0.396213
vt 0.204602 0.396213
vt 0.604428 0.980541
vt 0.621643 0.980416
vt 0.604428 0.980416
vt 0.587213 0.980541
vt 0.587213 0.980416
vt 0.569998 0.980541
vt 0.569998 0.980416
vt 0.552783 0.980541
vt 0.552783 0.980416
vt 0.535568 0.980541
vt 0.535568 0.980416
vt 0.518352 0.980541
vt 0.518352 0.980416
vt 0.501137 0.980541
vt 0.501137 0.980416
vt 0.621644 0.980777
vt 0.638859 0.980777
vt 0.638859 0.980582
vt 0.621644 0.980541
vt 0.638859 0.980541
vt 0.638859 0.980416
vt 0.169516 0.063755
vt 0.202985 0.063690
vt 0.202985 0.063690
vt 0.202985 0.063690
vt 0.202985 0.063690
vt 0.234999 0.064272
vt 0.202985 0.063690
vt 0.202985 0.063690
vt 0.202985 0.063690
vt 0.202985 0.063690
vt 0.202985 0.063690
vt 0.202985 0.063690
vt 0.202985 0.063690
vt 0.202985 0.063690
vt 0.202985 0.063690
vt 0.202985 0.063690
vt 0.202985 0.063690
vt 0.202985 0.063690
vt 0.169516 0.063755
vt 0.234999 0.064272
vt 0.169516 0.063755
vt 0.169516 0.063755
vt 0.169516 0.063755
vt 0.169516 0.063755
vt 0.169516 0.063755
vt 0.169516 0.063755
vt 0.169516 0.063755
vt 0.169516 0.063755
vt 0.169516 0.063755
vt 0.169516 0.063755
vt 0.169516 0.063755
vt 0.169516 0.063755
vt 0.234999 0.064272
vt 0.234999 0.064272
vt 0.234999 0.064272
vt 0.234999 0.064272
vt 0.234999 0.064272
vt 0.234999 0.064272
vt 0.234999 0.064272
vt 0.234999 0.064272
vt 0.260300 0.396213
vt 0.260300 0.396213
vt 0.260300 0.396213
vt 0.260300 0.396213
vt 0.260300 0.396213
vt 0.260300 0.396213
vt 0.260300 0.396213
vt 0.260300 0.396213
vt 0.260300 0.396213
vt 0.260300 0.396213
vt 0.260300 0.396213
vt 0.260300 0.396213
vt 0.260300 0.396213
vt 0.260300 0.396213
vt 0.260300 0.396213
vt 0.260300 0.396213
vt 0.260300 0.396213
vt 0.260300 0.396213
vt 0.260300 0.396213
vt 0.260300 0.396213
vt 0.260300 0.396213
vt 0.260300 0.396213
vt 0.260300 0.396213
vt 0.260300 0.396213
vt 0.204602 0.396213
vt 0.563411 0.976704
vt 0.204602 0.396213
vt 0.204602 0.396213
vt 0.204602 0.396213
vt 0.168626 0.059422
vt 0.204602 0.396213
vt 0.204602 0.396213
vt 0.534122 0.976722
vt 0.204602 0.396213
vt 0.204602 0.396213
vt 0.521990 0.976764
vt 0.204602 0.396213
vt 0.204602 0.396213
vt 0.534122 0.976806
vt 0.204602 0.396213
vt 0.204602 0.396213
vt 0.563411 0.976824
vt 0.204602 0.396213
vt 0.204602 0.396213
vt 0.592700 0.976806
vt 0.204602 0.396213
vt 0.204602 0.396213
vt 0.204602 0.396213
vt 0.604832 0.976764
vt 0.621644 0.980582
vt 0.604428 0.980582
vt 0.604428 0.980777
vt 0.621644 0.980777
vt 0.587213 0.980582
vt 0.587213 0.980777
vt 0.569998 0.980582
vt 0.569998 0.980777
vt 0.552783 0.980582
vt 0.552783 0.980777
vt 0.535568 0.980582
vt 0.535568 0.980777
vt 0.518352 0.980582
vt 0.518352 0.980777
vt 0.566340 0.976768
vt 0.567553 0.976764
vt 0.566340 0.976760
vt 0.563411 0.976758
vt 0.560482 0.976760
vt 0.559269 0.976764
vt 0.560482 0.976768
vt 0.563411 0.976770
vt 0.236133 0.396815
vt 0.236133 0.396815
vt 0.236133 0.396815
vt 0.236133 0.396815
vt 0.236133 0.396815
vt 0.236133 0.396815
vt 0.236133 0.396815
vt 0.236133 0.396815
vt 0.168626 0.059422
vt 0.168626 0.059422
vt 0.168626 0.059422
vt 0.168626 0.059422
vt 0.168626 0.059422
vt 0.168626 0.059422
vt 0.168626 0.059422
vt 0.168626 0.059422
vt 0.236133 0.396815
vt 0.236133 0.396815
vt 0.236133 0.396815
vt 0.236133 0.396815
vt 0.236133 0.396815
vt 0.236133 0.396815
vt 0.236133 0.396815
vt 0.236133 0.396815
vn 0.382684 -0.000000 -0.923879
vn 0.382684 -0.000000 -0.923879
vn 0.382684 -0.000000 -0.923879
vn 0.382684 -0.000000 -0.923879
vn -0.382683 0.000000 -0.923880
vn -0.382683 0.000000 -0.923880
vn -0.382683 0.000000 -0.923880
vn -0.382683 0.000000 -0.923880
vn -0.923880 -0.000000 -0.382684
vn -0.923880 -0.000000 -0.382684
vn -0.923880 -0.000000 -0.382684
vn -0.923880 -0.000000 -0.382684
vn -0.923880 0.000000 0.382683
vn -0.923880 0.000000 0.382683
vn -0.923880 0.000000 0.382683
vn -0.923880 0.000000 0.382683
vn -0.382684 0.000000 0.923879
vn -0.382684 0.000000 0.923879
vn -0.382684 0.000000 0.923879
vn -0.382684 0.000000 0.923879
vn 0.382683 0.000000 0.923880
vn 0.382683 0.000000 0.923880
vn 0.382683 0.000000 0.923880
vn 0.382683 0.000000 0.923880
vn 0.923880 0.000000 0.382683
vn 0.923880 0.000000 0.382683
vn 0.923880 0.000000 0.382683
vn 0.923880 0.000000 0.382683
vn 0.923880 0.000000 -0.382683
vn 0.923880 0.000000 -0.382683
vn 0.923880 0.000000 -0.382683
vn 0.923880 0.000000 -0.382683
vn 0.000000 1.000000 0.000000
vn 0.000000 1.000000 0.000000
vn 0.000000 1.000000 0.000000
vn 0.000000 1.000000 0.000000
vn 0.000000 1.000000 0.000000
vn 0.000000 1.000000 0.000000
vn 0.000000 1.000000 0.000000
vn 0.000000 1.000000 0.000000
vn 0.000000 1.000000 0.000000
vn 0.000000 1.000000 0.000000
vn 0.000000 1.000000 0.000000
vn 0.000000 1.000000 0.000000
vn 0.000000 1.000000 0.000000
vn 0.000000 1.000000 0.000000
vn 0.000000 1.000000 0.000000
vn 0.000000 1.000000 0.000000
vn 0.000000 1.000000 0.000000
vn 0.000000 1.000000 0.000000
vn 0.000000 1.000000 0.000000
vn 0.000000 1.000000 0.000000
vn 0.000000 1.000000 0.000000
vn 0.000000 1.000000 0.000000
vn 0.000000 1.000000 0.000000
vn 0.000000 1.000000 0.000000
vn 0.854041 0.381407 -0.353755
vn 0.854041 0.381407 -0.353755
vn 0.854041 0.381407 -0.353755
vn 0.854041 0.381407 -0.353755
vn 0.854041 0.381407 0.353755
vn 0.854041 0.381407 0.353755
vn 0.854041 0.381407 0.353755
vn 0.854041 0.381407 0.353755
vn 0.353755 0.381408 0.854041
vn 0.353755 0.381408 0.854041
vn 0.353755 0.381408 0.854041
vn 0.353755 0.381408 0.854041
vn -0.353756 0.381407 0.854041
vn -0.353756 0.381407 0.854041
vn -0.353756 0.381408 0.854041
vn -0.353756 0.381408 0.854041
vn -0.854041 0.381407 0.353755
vn -0.854041 0.381407 0.353755
vn -0.854041 0.381407 0.353755
vn -0.854041 0.381407 0.353755
vn -0.854041 0.381407 -0.353755
vn -0.854041 0.381407 -0.353755
vn -0.854041 0.381407 -0.353755
vn -0.854041 0.381407 -0.353755
vn -0.353755 0.381407 -0.854041
vn -0.353755 0.381407 -0.854041
vn -0.353755 0.381407 -0.854041
vn -0.353755 0.381407 -0.854041
vn 0.353755 0.381407 -0.854041
vn 0.353755 0.381407 -0.854041
vn 0.353755 0.381407 -0.854041
vn 0.353755 0.381407 -0.854041
vn 0.382684 0.000000 -0.923879
vn 0.382684 0.000000 -0.923879
vn 0.382684 0.000000 -0.923879
vn 0.382684 0.000000 -0.923879
vn -0.382683 0.000000 -0.923880
vn -0.382683 0.000000 -0.923880
vn -0.382683 0.000000 -0.923880
vn -0.382683 0.000000 -0.923880
vn -0.923880 0.000000 -0.382684
vn -0.923880 0.000000 -0.382684
vn -0.923880 0.000000 -0.382684
vn -0.923880 0.000000 -0.382684
vn -0.923880 0.000000 0.382683
vn -0.923880 0.000000 0.382683
vn -0.923880 0.000000 0.382683
vn -0.923880 0.000000 0.382683
vn -0.382684 0.000000 0.923879
vn -0.382684 0.000000 0.923879
vn -0.382684 0.000000 0.923879
vn -0.382684 0.000000 0.923879
vn 0.382683 0.000000 0.923880
vn 0.382683 0.000000 0.923880
vn 0.382683 0.000000 0.923880
vn 0.382683 0.000000 0.923880
vn 0.923880 0.000000 0.382683
vn 0.923880 0.000000 0.382683
vn 0.923880 0.000000 0.382683
vn 0.923880 0.000000 0.382683
vn 0.923880 0.000000 -0.382683
vn 0.923880 0.000000 -0.382683
vn 0.923880 0.000000 -0.382683
vn 0.923880 0.000000 -0.382683
vn 0.000000 1.000000 0.000000
vn 0.000000 1.000000 0.000000
vn 0.000000 1.000000 0.000000
vn 0.000000 1.000000 0.000000
vn -0.000000 -1.000000 0.000001
vn -0.000000 -1.000000 0.000001
vn -0.000000 -1.000000 0.000001
vn -0.000000 -1.000000 0.000001
vn 0.000000 1.000000 0.000000
vn 0.000000 1.000000 0.000000
vn 0.000000 1.000000 0.000000
vn 0.000000 1.000000 0.000000
vn -0.000000 -1.000000 -0.000002
vn -0.000000 -1.000000 -0.000002
vn -0.000000 -1.000000 -0.000002
vn -0.000000 -1.000000 -0.000002
vn 0.000000 1.000000 -0.000000
vn 0.000000 1.000000 -0.000000
vn 0.000000 1.000000 -0.000000
vn 0.000000 1.000000 -0.000000
vn -0.000000 -1.000000 -0.000000
vn -0.000000 -1.000000 -0.000000
vn -0.000000 -1.000000 -0.000000
vn -0.000000 -1.000000 -0.000000
vn 0.000000 1.000000 0.000000
vn 0.000000 1.000000 0.000000
vn 0.000000 1.000000 0.000000
vn 0.000000 1.000000 0.000000
vn -0.000000 -1.000000 0.000000
vn -0.000000 -1.000000 0.000000
vn -0.000000 -1.000000 0.000000
vn -0.000000 -1.000000 0.000000
vn 0.000000 1.000000 0.000000
vn 0.000000 1.000000 0.000000
vn 0.000000 1.000000 0.000000
vn 0.000000 1.000000 0.000000
vn -0.000000 -1.000000 0.000001
vn -0.000000 -1.000000 0.000001
vn -0.000000 -1.000000 0.000001
vn -0.000000 -1.000000 0.000001
vn 0.000000 1.000000 -0.000001
vn 0.000000 1.000000 -0.000001
vn 0.000000 1.000000 -0.000001
vn 0.000000 1.000000 -0.000001
vn -0.000000 -1.000000 0.000000
vn -0.000000 -1.000000 0.000000
vn -0.000000 -1.000000 0.000000
vn -0.000000 -1.000000 0.000000
vn 0.000000 1.000000 0.000001
vn 0.000000 1.000000 0.000001
vn 0.000000 1.000000 0.000001
vn 0.000000 1.000000 0.000001
vn -0.000000 -1.000000 0.000000
vn -0.000000 -1.000000 0.000000
vn -0.000000 -1.000000 0.000000
vn -0.000000 -1.000000 0.000000
vn 0.000000 1.000000 -0.000000
vn 0.000000 1.000000 -0.000000
vn 0.000000 1.000000 -0.000000
vn 0.000000 1.000000 -0.000000
vn -0.000000 -1.000000 0.000000
vn -0.000000 -1.000000 0.000000
vn -0.000000 -1.000000 0.000000
vn -0.000000 -1.000000 0.000000
vn 0.000000 1.000000 0.000000
vn 0.000000 1.000000 0.000000
vn 0.000000 1.000000 0.000000
vn 0.000000 1.000000 0.000000
vn 0.000000 1.000000 0.000000
vn 0.000000 1.000000 0.000000
vn 0.000000 1.000000 0.000000
vn 0.000000 1.000000 0.000000
vn 0.000000 1.000000 0.000000
vn 0.000000 1.000000 0.000000
vn 0.000000 1.000000 0.000000
vn 0.000000 1.000000 0.000000
vn -0.000000 1.000000 0.000001
vn -0.000000 1.000000 0.000001
vn -0.000000 1.000000 0.000001
vn -0.000000 1.000000 0.000001
vn 0.000000 1.000000 -0.000000
vn 0.000000 1.000000 -0.000000
vn 0.000000 1.000000 -0.000000
vn 0.000000 1.000000 -0.000000
vn 0.000000 1.000000 0.000000
vn 0.000000 1.000000 0.000000
vn 0.000000 1.000000 0.000000
vn 0.000000 1.000000 0.000000
vn 0.000000 1.000000 0.000000
vn 0.000000 1.000000 0.000000
vn 0.000000 1.000000 0.000000
vn 0.000000 1.000000 0.000000
vn -0.000000 1.000000 0.000000
vn -0.000000 1.000000 0.000000
vn -0.000000 1.000000 0.000000
vn -0.000000 1.000000 0.000000
vn -0.382684 0.000000 0.923879
vn -0.382684 0.000000 0.923879
vn -0.382684 0.000000 0.923879
vn -0.382684 0.000000 0.923879
vn 0.382684 -0.000000 0.923880
vn 0.382684 -0.000000 0.923879
vn 0.382684 -0.000000 0.923879
vn 0.382684 -0.000000 0.923879
vn 0.923880 -0.000000 0.382683
vn 0.923880 -0.000000 0.382683
vn 0.923880 -0.000000 0.382683
vn 0.923880 -0.000000 0.382683
vn 0.923880 0.000000 -0.382683
vn 0.923880 0.000000 -0.382683
vn 0.923880 0.000000 -0.382683
vn 0.923880 0.000000 -0.382683
vn 0.382684 0.000000 -0.923879
vn 0.382684 0.000000 -0.923879
vn 0.382684 0.000000 -0.923879
vn 0.382684 0.000000 -0.923879
vn -0.382684 0.000000 -0.923879
vn -0.382684 0.000000 -0.923879
vn -0.382684 0.000000 -0.923879
vn -0.382684 0.000000 -0.923879
vn -0.923880 0.000000 -0.382683
vn -0.923880 0.000000 -0.382683
vn -0.923880 0.000000 -0.382683
vn -0.923880 0.000000 -0.382683
vn -0.923880 -0.000000 0.382683
vn -0.923880 -0.000000 0.382683
vn -0.923880 -0.000000 0.382683
vn -0.923880 -0.000000 0.382683
vn 0.000000 1.000000 0.000000
vn 0.000000 1.000000 0.000000
vn 0.000000 1.000000 0.000000
vn 0.000000 1.000000 0.000000
vn 0.000000 1.000000 0.000000
vn 0.000000 1.000000 0.000000
vn 0.000000 1.000000 0.000000
vn 0.000000 1.000000 0.000000
vn 0.000000 1.000000 0.000000
vn 0.000000 1.000000 0.000000
vn 0.000000 1.000000 -0.000000
vn 0.000000 1.000000 -0.000000
vn 0.000000 1.000000 0.000000
vn 0.000000 1.000000 0.000000
vn 0.000000 1.000000 -0.000000
vn 0.000000 1.000000 -0.000000
vn 0.000000 1.000000 0.000000
vn 0.000000 1.000000 0.000000
vn 0.000000 1.000000 0.000000
vn 0.000000 1.000000 0.000000
vn 0.000000 1.000000 0.000000
vn 0.000000 1.000000 0.000000
vn 0.000000 1.000000 0.000000
vn 0.000000 1.000000 0.000000
vn 0.000000 1.000000 0.000000
vn 0.000000 1.000000 0.000000
vn 0.000000 1.000000 0.000000
vn 0.000000 1.000000 0.000000
vn 0.000000 1.000000 0.000000
vn 0.000000 1.000000 0.000000
vn 0.000000 1.000000 0.000000
vn 0.000000 1.000000 0.000000
vn -0.382675 0.000000 0.923883
vn -0.382675 0.000000 0.923883
vn -0.382675 0.000000 0.923883
vn -0.382675 0.000000 0.923883
vn 0.382676 0.000000 0.923883
vn 0.382676 0.000000 0.923883
vn 0.382676 0.000000 0.923883
vn 0.382676 0.000000 0.923883
vn 0.923878 0.000000 0.382688
vn 0.923878 0.000000 0.382688
vn 0.923878 0.000000 0.382688
vn 0.923878 0.000000 0.382688
vn 0.923878 0.000000 -0.382688
vn 0.923878 0.000000 -0.382688
vn 0.923878 0.000000 -0.382688
vn 0.923878 0.000000 -0.382688
vn 0.382684 0.000000 -0.923880
vn 0.382684 0.000000 -0.923880
vn 0.382684 0.000000 -0.923880
vn 0.382684 0.000000 -0.923880
vn -0.382682 0.000000 -0.923880
vn -0.382682 0.000000 -0.923880
vn -0.382682 0.000000 -0.923880
vn -0.382682 0.000000 -0.923880
vn -0.923879 0.000000 -0.382684
vn -0.923879 0.000000 -0.382684
vn -0.923879 0.000000 -0.382684
vn -0.923879 0.000000 -0.382684
vn -0.923879 0.000000 0.382684
vn -0.923879 0.000000 0.382684
vn -0.923879 0.000000 0.382684
vn -0.923879 0.000000 0.382684
s off
f 17/177/1 18/80/2 19/81/3 20/3/4
f 18/1/5 21/4/6 22/186/7 19/2/8
f 21/187/9 23/6/10 24/184/11 22/5/12
f 23/185/13 25/8/14 26/182/15 24/7/16
f 25/183/17 27/10/18 28/180/19 26/9/20
f 27/181/21 29/12/22 30/178/23 28/11/24
f 29/179/25 31/14/26 32/175/27 30/13/28
f 31/176/29 17/79/30 20/174/31 32/15/32
f 73/154/33 74/204/34 75/205/35
f 74/204/36 76/206/37 75/205/38
f 76/206/39 77/207/40 75/205/41
f 77/207/42 78/208/43 75/205/44
f 78/208/45 79/209/46 75/205/47
f 79/209/48 80/210/49 75/205/50
f 80/210/51 81/211/52 75/205/53
f 81/211/54 73/154/55 75/205/56
f 10/64/57 9/82/58 1/65/59 8/66/60
f 11/67/61 10/64/62 8/66/63 7/68/64
f 12/69/65 11/67/66 7/68/67 6/70/68
f 13/71/69 12/69/70 6/70/71 5/72/72
f 14/73/73 13/71/74 5/72/75 4/74/76
f 15/75/77 14/73/78 4/74/79 3/76/80
f 16/77/81 15/75/82 3/76/83 2/78/84
f 9/82/85 16/83/86 2/84/87 1/65/88
f 33/102/89 34/31/90 35/32/91 36/33/92
f 37/100/93 33/30/94 36/101/95 38/35/96
f 39/98/97 37/34/98 38/99/99 40/37/100
f 41/96/101 39/36/102 40/97/103 42/39/104
f 43/94/105 41/38/106 42/95/107 44/41/108
f 45/92/109 43/40/110 44/93/111 46/43/112
f 47/89/113 45/42/114 46/91/115 48/86/116
f 34/88/117 47/44/118 48/87/119 35/47/120
f 16/24/121 9/25/122 34/26/123 33/27/124
f 20/28/125 19/45/126 36/85/127 35/103/128
f 15/29/129 16/24/130 33/27/131 37/46/132
f 19/45/133 22/105/134 38/106/135 36/85/136
f 14/90/137 15/29/138 37/46/139 39/104/140
f 22/105/141 24/107/142 40/108/143 38/106/144
f 13/117/145 14/90/146 39/104/147 41/118/148
f 24/107/149 26/109/150 42/110/151 40/108/152
f 12/119/153 13/117/154 41/118/155 43/120/156
f 26/109/157 28/111/158 44/112/159 42/110/160
f 11/121/161 12/119/162 43/120/163 45/122/164
f 28/111/165 30/113/166 46/114/167 44/112/168
f 10/123/169 11/121/170 45/122/171 47/124/172
f 30/113/173 32/115/174 48/116/175 46/114/176
f 9/25/177 10/123/178 47/124/179 34/26/180
f 32/115/181 20/28/182 35/103/183 48/116/184
f 1/22/185 2/147/186 50/145/187 49/127/188
f 2/21/189 3/146/190 51/142/191 50/144/192
f 3/20/193 4/143/194 52/139/195 51/141/196
f 4/19/197 5/140/198 53/136/199 52/138/200
f 5/18/201 6/137/202 54/133/203 53/135/204
f 6/17/205 7/134/206 55/130/207 54/132/208
f 7/16/209 8/131/210 56/126/211 55/129/212
f 8/23/213 1/148/214 49/128/215 56/125/216
f 49/48/217 50/171/218 58/168/219 57/151/220
f 50/49/221 51/170/222 59/165/223 58/57/224
f 51/50/225 52/167/226 60/162/227 59/58/228
f 52/51/229 53/164/230 61/159/231 60/59/232
f 53/52/233 54/161/234 62/156/235 61/60/236
f 54/53/237 55/158/238 63/153/239 62/61/240
f 55/54/241 56/155/242 64/149/243 63/62/244
f 56/55/245 49/172/246 57/152/247 64/63/248
f 63/169/249 64/173/250 66/189/251 65/188/252
f 64/173/253 57/56/254 67/190/255 66/189/256
f 57/56/257 58/150/258 68/191/259 67/190/260
f 58/150/261 59/157/262 69/192/263 68/191/264
f 59/157/265 60/160/266 70/193/267 69/192/268
f 60/160/269 61/163/270 71/194/271 70/193/272
f 61/163/273 62/166/274 72/195/275 71/194/276
f 62/166/277 63/169/278 65/188/279 72/195/280
f 67/196/281 68/197/282 74/198/283 73/199/284
f 68/197/285 69/200/286 76/201/287 74/198/288
f 69/200/289 70/202/290 77/203/291 76/201/292
f 70/202/293 71/212/294 78/213/295 77/203/296
f 71/212/297 72/214/298 79/215/299 78/213/300
f 72/214/301 65/216/302 80/217/303 79/215/304
f 65/216/305 66/218/306 81/219/307 80/217/308
f 66/218/309 67/196/310 73/199/311 81/219/312
