# This file uses meters as units for non-parametric coordinates.

v 2.494745 1.094279 0.674428
v 2.711241 1.094279 0.674428
v 2.494745 1.391630 0.674428
v 2.711241 1.391630 0.674428
v 2.494745 1.391630 -0.674428
v 2.711241 1.391630 -0.674428
v 2.494745 1.094279 -0.674428
v 2.711241 1.094279 -0.674428
v -2.711241 1.094279 0.674428
v -2.494744 1.094279 0.674428
v -2.711241 1.391630 0.674428
v -2.494744 1.391630 0.674428
v -2.711241 1.391630 -0.674428
v -2.494744 1.391630 -0.674428
v -2.711241 1.094279 -0.674428
v -2.494744 1.094279 -0.674428
v -0.108248 1.094279 0.674428
v 0.108248 1.094279 0.674428
v -0.108248 1.391630 0.674428
v 0.108248 1.391630 0.674428
v -0.108248 1.391630 -0.674428
v 0.108248 1.391630 -0.674428
v -0.108248 1.094279 -0.674428
v 0.108248 1.094279 -0.674428
v -3.188684 0.000000 0.633083
v 3.188684 0.000000 0.633083
v -3.188684 1.330243 0.633083
v 3.188684 1.330243 0.633083
v -3.188684 1.330243 -0.633084
v 3.188684 1.330243 -0.633084
v -3.188684 0.000000 -0.633084
v 3.188684 0.000000 -0.633084
v -3.188684 0.223608 -0.633084
v -3.188684 0.223608 0.633083
v 3.188684 0.223608 0.633083
v 3.188684 0.223608 -0.633084
v 3.188684 1.130545 0.633083
v -3.188684 1.130545 0.633083
v -3.188684 1.130545 -0.633084
v 3.188684 1.130545 -0.633084
v -3.080277 0.223608 0.530704
v 3.080279 0.223608 0.530704
v 3.080279 1.130545 0.530704
v -3.080277 1.130545 0.530704
v -3.080277 1.130545 -0.530705
v 3.080279 1.130545 -0.530705
v 3.080279 0.223608 -0.530705
v -3.080277 0.223608 -0.530705
v -2.871778 0.410521 0.530704
v 2.871778 0.410521 0.530704
v 2.871778 0.943634 0.530704
v -2.871778 0.943634 0.530704
vt 0.267841 0.063601
vt 0.267841 0.063601
vt 0.267841 0.063601
vt 0.267841 0.063601
vt 0.299454 0.063601
vt 0.299454 0.063601
vt 0.299454 0.063601
vt 0.299454 0.063601
vt 0.267841 0.063601
vt 0.267841 0.063601
vt 0.267841 0.063601
vt 0.267841 0.063601
vt 0.205144 0.063601
vt 0.205144 0.063601
vt 0.205144 0.063601
vt 0.205144 0.063601
vt 0.236756 0.063601
vt 0.236756 0.063601
vt 0.236756 0.063601
vt 0.236756 0.063601
vt 0.236756 0.063601
vt 0.236756 0.063601
vt 0.236756 0.063601
vt 0.236756 0.063601
vt 0.267841 0.063601
vt 0.267841 0.063601
vt 0.267841 0.063601
vt 0.267841 0.063601
vt 0.299454 0.063601
vt 0.299454 0.063601
vt 0.299454 0.063601
vt 0.299454 0.063601
vt 0.267841 0.063601
vt 0.267841 0.063601
vt 0.267841 0.063601
vt 0.267841 0.063601
vt 0.205144 0.063601
vt 0.205144 0.063601
vt 0.205144 0.063601
vt 0.205144 0.063601
vt 0.236756 0.063601
vt 0.236756 0.063601
vt 0.236756 0.063601
vt 0.236756 0.063601
vt 0.236756 0.063601
vt 0.236756 0.063601
vt 0.236756 0.063601
vt 0.236756 0.063601
vt 0.267841 0.063601
vt 0.267841 0.063601
vt 0.267841 0.063601
vt 0.267841 0.063601
vt 0.299454 0.063601
vt 0.299454 0.063601
vt 0.299454 0.063601
vt 0.299454 0.063601
vt 0.267841 0.063601
vt 0.267841 0.063601
vt 0.267841 0.063601
vt 0.267841 0.063601
vt 0.205144 0.063601
vt 0.205144 0.063601
vt 0.205144 0.063601
vt 0.205144 0.063601
vt 0.236756 0.063601
vt 0.236756 0.063601
vt 0.236756 0.063601
vt 0.236756 0.063601
vt 0.236756 0.063601
vt 0.236756 0.063601
vt 0.236756 0.063601
vt 0.236756 0.063601
vt 0.520260 0.979493
vt 0.622992 0.979493
vt 0.622992 0.979987
vt 0.520260 0.979987
vt 0.604497 0.976614
vt 0.604498 0.976775
vt 0.538971 0.976775
vt 0.538971 0.976614
vt 0.237903 0.398971
vt 0.237903 0.398971
vt 0.237903 0.398971
vt 0.237903 0.398971
vt 0.200427 0.398971
vt 0.200427 0.398971
vt 0.200427 0.398971
vt 0.200427 0.398971
vt 0.206136 0.398971
vt 0.206136 0.398971
vt 0.206136 0.398971
vt 0.206136 0.398971
vt 0.206136 0.398971
vt 0.206136 0.398971
vt 0.206136 0.398971
vt 0.206136 0.398971
vt 0.233899 0.398971
vt 0.233899 0.398971
vt 0.233899 0.398971
vt 0.233899 0.398971
vt 0.265666 0.398971
vt 0.265666 0.398971
vt 0.265666 0.398971
vt 0.265666 0.398971
vt 0.233899 0.398971
vt 0.233899 0.398971
vt 0.233899 0.398971
vt 0.233899 0.398971
vt 0.265666 0.398971
vt 0.265666 0.398971
vt 0.265666 0.398971
vt 0.265666 0.398971
vt 0.265666 0.398971
vt 0.265666 0.398971
vt 0.265666 0.398971
vt 0.265666 0.398971
vt 0.539164 0.984607
vt 0.604335 0.984607
vt 0.604335 0.984962
vt 0.539164 0.984962
vt 0.265666 0.398971
vt 0.265666 0.398971
vt 0.265666 0.398971
vt 0.265666 0.398971
vt 0.604335 0.984607
vt 0.539164 0.984607
vt 0.539164 0.984962
vt 0.604335 0.984962
vt 0.296872 0.397417
vt 0.296872 0.397417
vt 0.296872 0.397417
vt 0.296872 0.397417
vt 0.203644 0.399265
vt 0.203644 0.399265
vt 0.203644 0.399265
vt 0.203644 0.399265
vt 0.203644 0.399265
vt 0.203644 0.399265
vt 0.203644 0.399265
vt 0.203644 0.399265
vt 0.296872 0.397417
vt 0.296872 0.397417
vt 0.296872 0.397417
vt 0.296872 0.397417
vt 0.296872 0.397417
vt 0.296872 0.397417
vt 0.296872 0.397417
vt 0.296872 0.397417
vt 0.203644 0.399265
vt 0.203644 0.399265
vt 0.203644 0.399265
vt 0.203644 0.399265
vt 0.296872 0.397417
vt 0.296872 0.397417
vt 0.296872 0.397417
vt 0.296872 0.397417
vt 0.203644 0.399265
vt 0.203644 0.399265
vt 0.203644 0.399265
vt 0.203644 0.399265
vt 0.237903 0.398971
vt 0.237903 0.398971
vt 0.237903 0.398971
vt 0.237903 0.398971
vt 0.237903 0.398971
vt 0.237903 0.398971
vt 0.237903 0.398971
vt 0.237903 0.398971
vt 0.237903 0.398971
vt 0.237903 0.398971
vt 0.237903 0.398971
vt 0.237903 0.398971
vt 0.237903 0.398971
vt 0.237903 0.398971
vt 0.237903 0.398971
vt 0.237903 0.398971
vn 0.000000 0.000000 1.000000
vn 0.000000 0.000000 1.000000
vn 0.000000 0.000000 1.000000
vn 0.000000 0.000000 1.000000
vn 0.000000 1.000000 0.000000
vn 0.000000 1.000000 0.000000
vn 0.000000 1.000000 0.000000
vn 0.000000 1.000000 0.000000
vn 0.000000 0.000000 -1.000000
vn 0.000000 0.000000 -1.000000
vn 0.000000 0.000000 -1.000000
vn 0.000000 0.000000 -1.000000
vn 0.000000 -1.000000 0.000000
vn 0.000000 -1.000000 0.000000
vn 0.000000 -1.000000 0.000000
vn 0.000000 -1.000000 0.000000
vn 1.000000 0.000000 0.000000
vn 1.000000 0.000000 0.000000
vn 1.000000 0.000000 0.000000
vn 1.000000 0.000000 0.000000
vn -1.000000 0.000000 0.000000
vn -1.000000 0.000000 0.000000
vn -1.000000 0.000000 0.000000
vn -1.000000 0.000000 0.000000
vn 0.000000 0.000000 1.000000
vn 0.000000 0.000000 1.000000
vn 0.000000 0.000000 1.000000
vn 0.000000 0.000000 1.000000
vn 0.000000 1.000000 0.000000
vn 0.000000 1.000000 0.000000
vn 0.000000 1.000000 0.000000
vn 0.000000 1.000000 0.000000
vn 0.000000 0.000000 -1.000000
vn 0.000000 0.000000 -1.000000
vn 0.000000 0.000000 -1.000000
vn 0.000000 0.000000 -1.000000
vn 0.000000 -1.000000 0.000000
vn 0.000000 -1.000000 0.000000
vn 0.000000 -1.000000 0.000000
vn 0.000000 -1.000000 0.000000
vn 1.000000 0.000000 0.000000
vn 1.000000 0.000000 0.000000
vn 1.000000 0.000000 0.000000
vn 1.000000 0.000000 0.000000
vn -1.000000 0.000000 0.000000
vn -1.000000 0.000000 0.000000
vn -1.000000 0.000000 0.000000
vn -1.000000 0.000000 0.000000
vn 0.000000 0.000000 1.000000
vn 0.000000 0.000000 1.000000
vn 0.000000 0.000000 1.000000
vn 0.000000 0.000000 1.000000
vn 0.000000 1.000000 0.000000
vn 0.000000 1.000000 0.000000
vn 0.000000 1.000000 0.000000
vn 0.000000 1.000000 0.000000
vn 0.000000 0.000000 -1.000000
vn 0.000000 0.000000 -1.000000
vn 0.000000 0.000000 -1.000000
vn 0.000000 0.000000 -1.000000
vn 0.000000 -1.000000 0.000000
vn 0.000000 -1.000000 0.000000
vn 0.000000 -1.000000 0.000000
vn 0.000000 -1.000000 0.000000
vn 1.000000 0.000000 0.000000
vn 1.000000 0.000000 0.000000
vn 1.000000 0.000000 0.000000
vn 1.000000 0.000000 0.000000
vn -1.000000 0.000000 0.000000
vn -1.000000 0.000000 0.000000
vn -1.000000 0.000000 0.000000
vn -1.000000 0.000000 0.000000
vn 0.000000 0.000000 1.000000
vn 0.000000 0.000000 1.000000
vn 0.000000 0.000000 1.000000
vn 0.000000 0.000000 1.000000
vn 0.000000 1.000000 0.000000
vn 0.000000 1.000000 0.000000
vn 0.000000 1.000000 0.000000
vn 0.000000 1.000000 0.000000
vn -0.000000 0.000000 -1.000000
vn -0.000000 0.000000 -1.000000
vn -0.000000 0.000000 -1.000000
vn -0.000000 0.000000 -1.000000
vn 0.000000 -1.000000 0.000000
vn 0.000000 -1.000000 0.000000
vn 0.000000 -1.000000 0.000000
vn 0.000000 -1.000000 0.000000
vn 1.000000 0.000000 0.000000
vn 1.000000 0.000000 0.000000
vn 1.000000 0.000000 0.000000
vn 1.000000 0.000000 0.000000
vn -1.000000 0.000000 -0.000000
vn -1.000000 0.000000 -0.000000
vn -1.000000 0.000000 -0.000000
vn -1.000000 0.000000 -0.000000
vn -1.000000 0.000000 -0.000000
vn -1.000000 0.000000 -0.000000
vn -1.000000 0.000000 -0.000000
vn -1.000000 0.000000 -0.000000
vn 0.000000 0.000000 1.000000
vn 0.000000 0.000000 1.000000
vn 0.000000 0.000000 1.000000
vn 0.000000 0.000000 1.000000
vn 1.000000 0.000000 0.000000
vn 1.000000 0.000000 0.000000
vn 1.000000 0.000000 0.000000
vn 1.000000 0.000000 0.000000
vn -0.000000 0.000000 -1.000000
vn -0.000000 0.000000 -1.000000
vn -0.000000 0.000000 -1.000000
vn -0.000000 0.000000 -1.000000
vn 0.000000 0.000000 1.000000
vn 0.000000 0.000000 1.000000
vn 0.000000 0.000000 1.000000
vn 0.000000 0.000000 1.000000
vn -1.000000 0.000000 -0.000000
vn -1.000000 0.000000 -0.000000
vn -1.000000 0.000000 -0.000000
vn -1.000000 0.000000 -0.000000
vn -0.000000 0.000000 -1.000000
vn -0.000000 0.000000 -1.000000
vn -0.000000 0.000000 -1.000000
vn -0.000000 0.000000 -1.000000
vn 1.000000 0.000000 0.000000
vn 1.000000 0.000000 0.000000
vn 1.000000 0.000000 0.000000
vn 1.000000 0.000000 0.000000
vn 0.000000 1.000000 0.000000
vn 0.000000 1.000000 0.000000
vn 0.000000 1.000000 0.000000
vn 0.000000 1.000000 0.000000
vn 0.000000 -1.000000 0.000000
vn 0.000000 -1.000000 0.000000
vn 0.000000 -1.000000 0.000000
vn 0.000000 -1.000000 0.000000
vn -0.000000 -1.000000 -0.000000
vn -0.000000 -1.000000 -0.000000
vn -0.000000 -1.000000 -0.000000
vn -0.000000 -1.000000 -0.000000
vn -0.000000 1.000000 -0.000000
vn -0.000000 1.000000 -0.000000
vn -0.000000 1.000000 -0.000000
vn -0.000000 1.000000 -0.000000
vn 0.000000 1.000000 0.000000
vn 0.000000 1.000000 0.000000
vn 0.000000 1.000000 0.000000
vn 0.000000 1.000000 0.000000
vn 0.000000 -1.000000 0.000000
vn 0.000000 -1.000000 0.000000
vn 0.000000 -1.000000 0.000000
vn 0.000000 -1.000000 0.000000
vn 0.000000 1.000000 0.000000
vn 0.000000 1.000000 0.000000
vn 0.000000 1.000000 0.000000
vn 0.000000 1.000000 0.000000
vn 0.000000 -1.000000 0.000000
vn 0.000000 -1.000000 0.000000
vn 0.000000 -1.000000 0.000000
vn 0.000000 -1.000000 0.000000
vn 0.000000 0.000000 1.000000
vn 0.000000 0.000000 1.000000
vn 0.000000 0.000000 1.000000
vn 0.000000 0.000000 1.000000
vn 0.000001 0.000000 1.000000
vn 0.000001 0.000000 1.000000
vn 0.000001 0.000000 1.000000
vn 0.000001 0.000000 1.000000
vn 0.000000 0.000000 1.000000
vn 0.000000 0.000000 1.000000
vn 0.000000 0.000000 1.000000
vn 0.000000 0.000000 1.000000
vn -0.000001 0.000000 1.000000
vn -0.000001 0.000000 1.000000
vn -0.000001 0.000000 1.000000
vn -0.000001 0.000000 1.000000
s off
f 1/1/1 2/2/2 4/3/3 3/4/4
f 3/5/5 4/6/6 6/7/7 5/8/8
f 5/9/9 6/10/10 8/11/11 7/12/12
f 7/13/13 8/14/14 2/15/15 1/16/16
f 2/17/17 8/18/18 6/19/19 4/20/20
f 7/21/21 1/22/22 3/23/23 5/24/24
f 9/25/25 10/26/26 12/27/27 11/28/28
f 11/29/29 12/30/30 14/31/31 13/32/32
f 13/33/33 14/34/34 16/35/35 15/36/36
f 15/37/37 16/38/38 10/39/39 9/40/40
f 10/41/41 16/42/42 14/43/43 12/44/44
f 15/45/45 9/46/46 11/47/47 13/48/48
f 17/49/49 18/50/50 20/51/51 19/52/52
f 19/53/53 20/54/54 22/55/55 21/56/56
f 21/57/57 22/58/58 24/59/59 23/60/60
f 23/61/61 24/62/62 18/63/63 17/64/64
f 18/65/65 24/66/66 22/67/67 20/68/68
f 23/69/69 17/70/70 19/71/71 21/72/72
f 49/73/73 50/74/74 51/75/75 52/76/76
f 27/77/77 28/78/78 30/79/79 29/80/80
f 45/81/81 46/82/82 47/83/83 48/84/84
f 31/85/85 32/86/86 26/87/87 25/88/88
f 42/89/89 47/90/90 46/91/91 43/92/92
f 48/93/93 41/94/94 44/95/95 45/96/96
f 31/97/97 25/98/98 34/99/99 33/100/100
f 25/101/101 26/102/102 35/103/103 34/104/104
f 26/105/105 32/106/106 36/107/107 35/108/108
f 33/109/109 36/110/110 32/111/111 31/112/112
f 38/113/113 37/114/114 28/115/115 27/116/116
f 39/117/117 38/118/118 27/119/119 29/120/120
f 29/121/121 30/122/122 40/123/123 39/124/124
f 37/125/125 40/126/126 30/127/127 28/128/128
f 34/129/129 35/130/130 42/131/131 41/132/132
f 37/133/133 38/134/134 44/135/135 43/136/136
f 39/137/137 40/138/138 46/139/139 45/140/140
f 36/141/141 33/142/142 48/143/143 47/144/144
f 35/145/145 36/146/146 47/147/147 42/148/148
f 40/149/149 37/150/150 43/151/151 46/152/152
f 33/153/153 34/154/154 41/155/155 48/156/156
f 38/157/157 39/158/158 45/159/159 44/160/160
f 41/161/161 42/162/162 50/163/163 49/164/164
f 42/165/165 43/166/166 51/167/167 50/168/168
f 43/169/169 44/170/170 52/171/171 51/172/172
f 44/173/173 41/174/174 49/175/175 52/176/176
