# This file uses meters as units for non-parametric coordinates.

v 0.263863 0.274256 -0.263862
v 3.491699 0.274256 -0.263862
v 1.003922 2.772065 -0.263862
v 2.751640 2.772065 -0.263862
v 1.003922 2.772065 -2.227222
v 2.751640 2.772065 -2.227222
v 0.263863 0.274256 -2.227222
v 3.491699 0.274256 -2.227222
v 3.491699 1.527050 -0.263862
v 0.263863 1.527050 -0.263862
v 0.263863 1.527050 -2.227222
v 3.491699 1.527050 -2.227222
v 0.752731 1.090370 -0.263862
v 3.002831 1.090370 -0.263862
v 3.002831 1.527050 -0.263862
v 0.752731 1.527050 -0.263862
v 2.486946 2.394941 -0.263862
v 1.268616 2.394941 -0.263862
v 0.752731 1.090370 -2.074982
v 3.002831 1.090370 -2.074982
v 3.002831 1.527050 -2.074982
v 0.752731 1.527050 -2.074982
v 2.486946 2.394941 -2.074982
v 1.268616 2.394941 -2.074982
v 3.755554 0.000000 -2.227222
v 0.000000 0.000000 -2.227222
v 3.755554 0.000000 0.000000
v 0.000000 0.000000 0.000000
v 3.755554 0.274256 -2.227222
v 0.000000 0.274256 -2.227222
v 3.755554 0.274256 0.000000
v 0.000000 0.274256 0.000000
v 4.079580 1.090370 1.714586
v 3.095778 1.090370 -0.309050
v 3.854020 2.394942 1.250622
v 3.321337 2.394942 0.154919
v 3.668131 2.394942 1.340990
v 3.135448 2.394942 0.245289
v 3.893691 1.090370 1.804956
v 2.909889 1.090370 -0.218678
v 3.095778 1.527050 -0.309050
v 4.079580 1.527050 1.714586
v 3.893691 1.527050 1.804956
v 2.909889 1.527050 -0.218678
v 3.766638 1.582739 1.543613
v 3.036941 1.582739 0.042665
v 3.036941 1.258850 0.042665
v 3.766638 1.258850 1.543613
v 3.204242 2.226462 0.386793
v 3.599337 2.226462 1.199484
v 3.866494 1.582739 1.495068
v 3.136798 1.582739 -0.005880
v 3.136798 1.258850 -0.005880
v 3.866494 1.258850 1.495068
v 3.304098 2.226462 0.338247
v 3.699194 2.226462 1.150940
vt 0.797783 0.008203
vt 0.797783 0.008203
vt 0.797783 0.008204
vt 0.797783 0.008204
vt 0.829395 0.008204
vt 0.829395 0.008204
vt 0.829395 0.008204
vt 0.829395 0.008204
vt 0.796116 0.008203
vt 0.796116 0.008203
vt 0.796116 0.008203
vt 0.734820 0.008203
vt 0.734820 0.008203
vt 0.766698 0.008204
vt 0.766698 0.008204
vt 0.734820 0.008203
vt 0.734820 0.008203
vt 0.766698 0.008204
vt 0.766698 0.008204
vt 0.797783 0.008203
vt 0.766698 0.008203
vt 0.797783 0.008203
vt 0.734820 0.008203
vt 0.766698 0.008203
vt 0.766698 0.008203
vt 0.734918 0.008203
vt 0.706343 0.008203
vt 0.675863 0.008203
vt 0.706343 0.008203
vt 0.675863 0.008204
vt 0.675863 0.008204
vt 0.597368 0.008203
vt 0.627848 0.008203
vt 0.597368 0.008203
vt 0.597368 0.008203
vt 0.597368 0.008204
vt 0.597368 0.008204
vt 0.734820 0.008203
vt 0.734820 0.008203
vt 0.766698 0.008203
vt 0.734820 0.008203
vt 0.597368 0.008204
vt 0.597368 0.008204
vt 0.627848 0.008203
vt 0.597368 0.008203
vt 0.597368 0.008204
vt 0.597368 0.008204
vt 0.797783 0.008204
vt 0.675863 0.008204
vt 0.627848 0.008203
vt 0.597368 0.008203
vt 0.797783 0.008204
vt 0.675863 0.008204
vt 0.656423 0.008203
vt 0.627848 0.008203
vt 0.797783 0.008203
vt 0.675863 0.008203
vt 0.656423 0.008203
vt 0.597368 0.008203
vt 0.797783 0.008203
vt 0.706343 0.008203
vt 0.797783 0.008203
vt 0.734918 0.008203
vt 0.797783 0.008203
vt 0.706343 0.008203
vt 0.597368 0.008203
vt 0.597368 0.008203
vt 0.797783 0.008204
vt 0.797783 0.008204
vt 0.797783 0.008203
vt 0.797783 0.008203
vt 0.797783 0.008203
vt 0.797783 0.008203
vt 0.797783 0.008204
vt 0.797783 0.008204
vt 0.797783 0.008203
vt 0.797783 0.008203
vt 0.797783 0.008203
vt 0.797783 0.008203
vt 0.735086 0.008203
vt 0.735086 0.008203
vt 0.768919 0.008203
vt 0.735086 0.008203
vt 0.796116 0.008203
vt 0.796116 0.008203
vt 0.796116 0.008203
vt 0.796116 0.008203
vt 0.768919 0.008203
vt 0.796116 0.008203
vt 0.796116 0.008203
vt 0.735086 0.008203
vt 0.796116 0.008203
vt 0.796116 0.008203
vt 0.796116 0.008203
vt 0.735086 0.008203
vt 0.735086 0.008203
vt 0.768919 0.008203
vt 0.768919 0.008203
vt 0.735086 0.008203
vt 0.735086 0.008203
vt 0.235817 0.063601
vt 0.235817 0.063601
vt 0.235817 0.063601
vt 0.235817 0.063601
vt 0.267429 0.063601
vt 0.267429 0.063601
vt 0.267429 0.063601
vt 0.267429 0.063601
vt 0.207479 0.063601
vt 0.207479 0.063601
vt 0.207479 0.063601
vt 0.207479 0.063601
vt 0.173120 0.063601
vt 0.173120 0.063601
vt 0.173120 0.063601
vt 0.173120 0.063601
vt 0.204732 0.063601
vt 0.204732 0.063601
vt 0.204732 0.063601
vt 0.204732 0.063601
vt 0.204732 0.063601
vt 0.204732 0.063601
vt 0.204732 0.063601
vt 0.204732 0.063601
vt 0.235817 0.063601
vt 0.235817 0.063601
vt 0.235817 0.063601
vt 0.235817 0.063601
vt 0.204732 0.063601
vt 0.204732 0.063601
vt 0.204732 0.063601
vt 0.204732 0.063601
vt 0.207479 0.063601
vt 0.207479 0.063601
vt 0.207479 0.063601
vt 0.207479 0.063601
vt 0.204732 0.063601
vt 0.204732 0.063601
vt 0.204732 0.063601
vt 0.204732 0.063601
vt 0.235817 0.063601
vt 0.235817 0.063601
vt 0.235817 0.063601
vt 0.235817 0.063601
vt 0.235817 0.063601
vt 0.235817 0.063601
vt 0.235817 0.063601
vt 0.235817 0.063601
vt 0.235817 0.063601
vt 0.235817 0.063601
vt 0.235817 0.063601
vt 0.235817 0.063601
vt 0.235817 0.063601
vt 0.235817 0.063601
vt 0.235817 0.063601
vt 0.235817 0.063601
vt 0.235817 0.063601
vt 0.235817 0.063601
vt 0.235817 0.063601
vt 0.235817 0.063601
vt 0.235817 0.063601
vt 0.235817 0.063601
vt 0.235817 0.063601
vt 0.235817 0.063601
vt 0.140682 0.063601
vt 0.140682 0.063601
vt 0.140682 0.063601
vt 0.140682 0.063601
vt 0.173069 0.063601
vt 0.173069 0.063601
vt 0.173069 0.063601
vt 0.173069 0.063601
vt 0.140682 0.063601
vt 0.140682 0.063601
vt 0.140682 0.063601
vt 0.140682 0.063601
vt 0.140682 0.063601
vt 0.140682 0.063601
vt 0.140682 0.063601
vt 0.140682 0.063601
vt 0.140682 0.063601
vt 0.140682 0.063601
vt 0.140682 0.063601
vt 0.140682 0.063601
vt 0.140682 0.063601
vt 0.140682 0.063601
vt 0.140682 0.063601
vt 0.140682 0.063601
vn 0.000000 0.000000 1.000000
vn 0.000000 0.000000 1.000000
vn 0.000000 0.000000 1.000000
vn 0.000000 0.000000 1.000000
vn 0.000000 1.000000 0.000000
vn 0.000000 1.000000 0.000000
vn 0.000000 1.000000 0.000000
vn 0.000000 1.000000 0.000000
vn 1.000000 0.000000 0.000000
vn 1.000000 0.000000 0.000000
vn 1.000000 0.000000 0.000000
vn 1.000000 0.000000 0.000000
vn -1.000000 0.000000 0.000000
vn -1.000000 0.000000 0.000000
vn -1.000000 0.000000 0.000000
vn -1.000000 0.000000 0.000000
vn 0.000000 0.000000 1.000000
vn 0.000000 0.000000 1.000000
vn 0.000000 0.000000 1.000000
vn 0.000000 0.000000 1.000000
vn -0.859603 0.510963 0.000000
vn -0.859603 0.510963 0.000000
vn -0.859603 0.510963 0.000000
vn -0.859603 0.510963 0.000000
vn 0.859603 0.510963 0.000000
vn 0.859603 0.510963 0.000000
vn 0.859603 0.510963 0.000000
vn 0.859603 0.510963 0.000000
vn 0.000000 0.000000 1.000000
vn 0.000000 0.000000 1.000000
vn 0.000000 0.000000 1.000000
vn 0.000000 0.000000 1.000000
vn -0.000000 0.000000 1.000000
vn -0.000000 0.000000 1.000000
vn -0.000000 0.000000 1.000000
vn -0.000000 0.000000 1.000000
vn 0.000000 0.000000 1.000000
vn 0.000000 0.000000 1.000000
vn 0.000000 0.000000 1.000000
vn 0.000000 0.000000 1.000000
vn 0.000000 0.000000 1.000000
vn 0.000000 0.000000 1.000000
vn 0.000000 0.000000 1.000000
vn 0.000000 0.000000 1.000000
vn 0.000000 0.000000 1.000000
vn 0.000000 0.000000 1.000000
vn 0.000000 0.000000 1.000000
vn 0.000000 0.000000 1.000000
vn 0.000000 0.000000 1.000000
vn 0.000000 0.000000 1.000000
vn 0.000000 0.000000 1.000000
vn 0.000000 0.000000 1.000000
vn 0.000000 1.000000 0.000000
vn 0.000000 1.000000 0.000000
vn 0.000000 1.000000 0.000000
vn 0.000000 1.000000 0.000000
vn -1.000000 0.000000 0.000000
vn -1.000000 0.000000 0.000000
vn -1.000000 0.000000 0.000000
vn -1.000000 0.000000 0.000000
vn 1.000000 0.000000 0.000000
vn 1.000000 0.000000 0.000000
vn 1.000000 0.000000 0.000000
vn 1.000000 0.000000 0.000000
vn -0.859605 -0.510959 0.000000
vn -0.859605 -0.510959 0.000000
vn -0.859605 -0.510959 0.000000
vn -0.859605 -0.510959 0.000000
vn 0.000000 -1.000000 0.000000
vn 0.000000 -1.000000 0.000000
vn 0.000000 -1.000000 0.000000
vn 0.000000 -1.000000 0.000000
vn 0.859605 -0.510959 0.000000
vn 0.859605 -0.510959 0.000000
vn 0.859605 -0.510959 0.000000
vn 0.859605 -0.510959 0.000000
vn 1.000000 0.000000 0.000000
vn 1.000000 0.000000 0.000000
vn 1.000000 0.000000 0.000000
vn 1.000000 0.000000 0.000000
vn 0.000000 0.000000 1.000000
vn 0.000000 0.000000 1.000000
vn 0.000000 0.000000 1.000000
vn 0.000000 0.000000 1.000000
vn -1.000000 0.000000 0.000000
vn -1.000000 0.000000 0.000000
vn -1.000000 0.000000 0.000000
vn -1.000000 0.000000 0.000000
vn 0.000000 1.000000 0.000000
vn 0.000000 1.000000 0.000000
vn 0.000000 1.000000 0.000000
vn 0.000000 1.000000 0.000000
vn 0.000000 1.000000 -0.000000
vn 0.000000 1.000000 -0.000000
vn 0.000000 1.000000 -0.000000
vn 0.000000 1.000000 -0.000000
vn 0.000000 1.000000 0.000000
vn 0.000000 1.000000 0.000000
vn 0.000000 1.000000 0.000000
vn 0.000000 1.000000 0.000000
vn 0.899352 0.000000 -0.437225
vn 0.899352 0.000000 -0.437225
vn 0.899352 0.000000 -0.437225
vn 0.899352 0.000000 -0.437225
vn 0.000000 1.000000 -0.000000
vn 0.000000 1.000000 -0.000000
vn 0.000000 1.000000 -0.000000
vn 0.000000 1.000000 -0.000000
vn -0.899352 0.000000 0.437226
vn -0.899352 0.000000 0.437226
vn -0.899352 0.000000 0.437226
vn -0.899352 0.000000 0.437226
vn 0.000000 -1.000000 0.000000
vn 0.000000 -1.000000 0.000000
vn 0.000000 -1.000000 0.000000
vn 0.000000 -1.000000 0.000000
vn -0.437229 0.000000 -0.899350
vn -0.437229 0.000000 -0.899350
vn -0.437229 0.000000 -0.899350
vn -0.437229 0.000000 -0.899350
vn 0.437222 0.000000 0.899354
vn 0.437222 0.000000 0.899354
vn 0.437222 0.000000 0.899354
vn 0.437222 0.000000 0.899354
vn 0.899352 0.000002 -0.437225
vn 0.899352 0.000002 -0.437225
vn 0.899352 0.000002 -0.437225
vn 0.899352 0.000002 -0.437225
vn 0.375834 0.510962 0.773089
vn 0.375834 0.510962 0.773089
vn 0.375834 0.510962 0.773089
vn 0.375834 0.510962 0.773089
vn -0.899352 0.000000 0.437226
vn -0.899352 0.000000 0.437226
vn -0.899352 0.000000 0.437226
vn -0.899352 0.000000 0.437226
vn -0.375841 0.510963 -0.773085
vn -0.375841 0.510963 -0.773085
vn -0.375841 0.510963 -0.773085
vn -0.375841 0.510963 -0.773085
vn -0.899355 0.000000 0.437220
vn -0.899355 0.000000 0.437220
vn -0.899355 0.000000 0.437220
vn -0.899355 0.000000 0.437220
vn -0.899352 -0.000005 0.437226
vn -0.899352 -0.000005 0.437226
vn -0.899352 -0.000005 0.437226
vn -0.899352 -0.000005 0.437226
vn -0.899352 0.000000 0.437225
vn -0.899352 0.000000 0.437225
vn -0.899352 0.000000 0.437225
vn -0.899352 0.000000 0.437225
vn -0.899352 -0.000001 0.437225
vn -0.899352 -0.000001 0.437225
vn -0.899352 -0.000001 0.437226
vn -0.899352 -0.000001 0.437225
vn -0.899353 0.000002 0.437222
vn -0.899353 0.000002 0.437222
vn -0.899353 0.000002 0.437222
vn -0.899353 0.000002 0.437222
vn -0.899352 -0.000001 0.437226
vn -0.899352 -0.000001 0.437226
vn -0.899352 -0.000001 0.437226
vn -0.899352 -0.000001 0.437226
vn 0.437222 0.000000 0.899353
vn 0.437222 0.000000 0.899353
vn 0.437222 0.000000 0.899353
vn 0.437222 0.000000 0.899353
vn 0.000000 1.000000 -0.000000
vn 0.000000 1.000000 -0.000000
vn 0.000000 1.000000 -0.000000
vn 0.000000 1.000000 -0.000000
vn -0.437226 0.000000 -0.899352
vn -0.437226 0.000000 -0.899352
vn -0.437226 0.000000 -0.899352
vn -0.437226 0.000000 -0.899352
vn 0.000000 -1.000000 0.000000
vn 0.000000 -1.000000 0.000000
vn 0.000000 -1.000000 0.000000
vn 0.000000 -1.000000 0.000000
vn 0.375839 -0.510962 0.773086
vn 0.375839 -0.510963 0.773086
vn 0.375839 -0.510962 0.773086
vn 0.375839 -0.510962 0.773086
vn -0.375833 -0.510964 -0.773089
vn -0.375833 -0.510963 -0.773089
vn -0.375833 -0.510963 -0.773089
vn -0.375833 -0.510964 -0.773089
s off
f 19/32/1 20/59/2 21/51/3 22/66/4
f 3/5/5 4/6/6 6/7/7 5/8/8
f 2/12/9 8/13/10 12/38/11 9/39/12
f 7/16/13 1/17/14 10/23/15 11/41/16
f 22/35/17 21/67/18 23/47/19 24/43/20
f 11/24/21 10/40/22 3/18/23 5/19/24
f 9/21/25 12/25/26 6/14/27 4/15/28
f 1/1/29 2/78/30 14/72/31 13/64/32
f 2/2/33 9/77/34 15/71/35 14/62/36
f 10/22/37 1/79/38 13/73/39 16/56/40
f 9/20/41 4/75/42 17/69/43 15/60/44
f 4/3/45 3/74/46 18/68/47 17/52/48
f 3/4/49 10/76/50 16/70/51 18/48/52
f 13/26/53 14/63/54 20/58/55 19/54/56
f 14/27/57 15/61/58 21/50/59 20/33/60
f 16/29/61 13/65/62 19/55/63 22/44/64
f 15/28/65 17/53/66 23/46/67 21/34/68
f 17/30/69 18/49/70 24/42/71 23/36/72
f 18/31/73 16/57/74 22/45/75 24/37/76
f 29/99/77 31/91/78 27/81/79 25/100/80
f 31/97/81 32/88/82 28/82/83 27/98/84
f 32/95/85 30/83/86 26/80/87 28/96/88
f 8/9/89 2/93/90 31/90/91 29/84/92
f 2/10/93 1/92/94 32/87/95 31/85/96
f 1/11/97 7/94/98 30/89/99 32/86/100
f 33/101/101 34/102/102 41/103/103 42/104/104
f 35/105/105 36/106/106 38/107/107 37/108/108
f 51/109/109 52/110/110 53/111/111 54/112/112
f 39/113/113 40/114/114 34/115/115 33/116/116
f 34/117/117 40/118/118 44/119/119 41/120/120
f 39/121/121 33/122/122 42/123/123 43/124/124
f 42/125/125 41/126/126 36/127/127 35/128/128
f 43/129/129 42/130/130 35/131/131 37/132/132
f 56/133/133 55/134/134 52/135/135 51/136/136
f 41/137/137 44/138/138 38/139/139 36/140/140
f 44/141/141 40/142/142 47/143/143 46/144/144
f 40/145/145 39/146/146 48/147/147 47/148/148
f 39/149/149 43/150/150 45/151/151 48/152/152
f 37/153/153 38/154/154 49/155/155 50/156/156
f 38/157/157 44/158/158 46/159/159 49/160/160
f 43/161/161 37/162/162 50/163/163 45/164/164
f 46/165/165 47/166/166 53/167/167 52/168/168
f 47/169/169 48/170/170 54/171/171 53/172/172
f 48/173/173 45/174/174 51/175/175 54/176/176
f 50/177/177 49/178/178 55/179/179 56/180/180
f 49/181/181 46/182/182 52/183/183 55/184/184
f 45/185/185 50/186/186 56/187/187 51/188/188
