# This file uses meters as units for non-parametric coordinates.

v -1.145098 0.000000 0.182938
v 1.145098 0.000000 0.182938
v -1.145098 1.381552 0.182938
v 1.145098 1.381552 0.182938
v -1.145098 1.381552 0.000000
v 1.145098 1.381552 0.000000
v -1.145098 0.000000 0.000000
v 1.145098 0.000000 0.000000
v -0.995951 0.134539 0.182938
v 0.995951 0.134539 0.182938
v 0.995951 1.247012 0.182938
v -0.995951 1.247012 0.182938
v -0.995951 0.134539 0.091553
v 0.995951 0.134539 0.091553
v 0.995951 1.247012 0.091553
v -0.995951 1.247012 0.091553
vt 0.802657 0.543490
vt 0.997471 0.543490
vt 0.997471 0.662722
vt 0.802657 0.662722
vt 0.235884 0.046687
vt 0.235884 0.046687
vt 0.235884 0.046687
vt 0.235884 0.046687
vt 0.141575 0.046687
vt 0.141575 0.046687
vt 0.141575 0.046687
vt 0.141575 0.046687
vt 0.173187 0.046687
vt 0.173187 0.046687
vt 0.173187 0.046687
vt 0.173187 0.046687
vt 0.173187 0.046687
vt 0.173187 0.046687
vt 0.173187 0.046687
vt 0.173187 0.046687
vt 0.204272 0.046687
vt 0.204272 0.046687
vt 0.204272 0.046687
vt 0.204272 0.046687
vt 0.204272 0.046687
vt 0.204272 0.046687
vt 0.204272 0.046687
vt 0.204272 0.046687
vt 0.204272 0.046687
vt 0.204272 0.046687
vt 0.204272 0.046687
vt 0.204272 0.046687
vt 0.204272 0.046687
vt 0.204272 0.046687
vt 0.204272 0.046687
vt 0.204272 0.046687
vt 0.139305 0.046760
vt 0.139305 0.046760
vt 0.139305 0.046760
vt 0.139305 0.046760
vt 0.105164 0.046760
vt 0.105164 0.046760
vt 0.105164 0.046760
vt 0.105164 0.046760
vt 0.105164 0.046760
vt 0.105164 0.046760
vt 0.105164 0.046760
vt 0.105164 0.046760
vn 0.000000 0.000000 1.000000
vn 0.000000 0.000000 1.000000
vn 0.000000 0.000000 1.000000
vn 0.000000 0.000000 1.000000
vn 0.000000 1.000000 0.000000
vn 0.000000 1.000000 0.000000
vn 0.000000 1.000000 0.000000
vn 0.000000 1.000000 0.000000
vn 0.000000 -1.000000 0.000000
vn 0.000000 -1.000000 0.000000
vn 0.000000 -1.000000 0.000000
vn 0.000000 -1.000000 0.000000
vn 1.000000 0.000000 0.000000
vn 1.000000 0.000000 0.000000
vn 1.000000 0.000000 0.000000
vn 1.000000 0.000000 0.000000
vn -1.000000 0.000000 0.000000
vn -1.000000 0.000000 0.000000
vn -1.000000 0.000000 0.000000
vn -1.000000 0.000000 0.000000
vn 0.000000 0.000000 1.000000
vn 0.000000 0.000000 1.000000
vn 0.000000 0.000000 1.000000
vn 0.000000 0.000000 1.000000
vn 0.000000 0.000000 1.000000
vn 0.000000 0.000000 1.000000
vn 0.000000 0.000000 1.000000
vn 0.000000 0.000000 1.000000
vn 0.000000 0.000000 1.000000
vn 0.000000 0.000000 1.000000
vn 0.000000 0.000000 1.000000
vn 0.000000 0.000000 1.000000
vn -0.000000 0.000000 1.000000
vn -0.000000 0.000000 1.000000
vn -0.000000 0.000000 1.000000
vn -0.000000 0.000000 1.000000
vn 0.000000 1.000000 0.000000
vn 0.000000 1.000000 0.000000
vn 0.000000 1.000000 0.000000
vn 0.000000 1.000000 0.000000
vn -1.000000 0.000000 0.000000
vn -1.000000 0.000000 0.000000
vn -1.000000 0.000000 0.000000
vn -1.000000 0.000000 0.000000
vn 0.000000 -1.000000 0.000000
vn 0.000000 -1.000000 0.000000
vn 0.000000 -1.000000 0.000000
vn 0.000000 -1.000000 0.000000
vn 1.000000 0.000000 0.000000
vn 1.000000 0.000000 0.000000
vn 1.000000 0.000000 0.000000
vn 1.000000 0.000000 0.000000
s off
f 13/1/1 14/2/2 15/3/3 16/4/4
f 3/5/5 4/6/6 6/7/7 5/8/8
f 7/9/9 8/10/10 2/11/11 1/12/12
f 2/13/13 8/14/14 6/15/15 4/16/16
f 7/17/17 1/18/18 3/19/19 5/20/20
f 1/21/21 2/22/22 10/23/23 9/24/24
f 2/25/25 4/26/26 11/27/27 10/28/28
f 4/29/29 3/30/30 12/31/31 11/32/32
f 3/33/33 1/34/34 9/35/35 12/36/36
f 9/37/37 10/38/38 14/39/39 13/40/40
f 10/41/41 11/42/42 15/43/43 14/44/44
f 11/42/45 12/45/46 16/46/47 15/43/48
f 12/45/49 9/47/50 13/48/51 16/46/52
