# This file uses meters as units for non-parametric coordinates.

v 0.793175 0.000000 -1.730628
v 1.043604 0.000000 -1.730628
v 0.793175 1.257058 -1.730628
v 1.043604 1.257058 -1.730628
v 0.793175 1.257058 -1.902610
v 1.043604 1.257058 -1.902610
v 0.793175 0.000000 -1.902610
v 1.043604 0.000000 -1.902610
v -1.043604 0.000000 -1.730628
v -0.793175 0.000000 -1.730628
v -1.043604 1.257058 -1.730628
v -0.793175 1.257058 -1.730628
v -1.043604 1.257058 -1.902610
v -0.793175 1.257058 -1.902610
v -1.043604 0.000000 -1.902610
v -0.793175 0.000000 -1.902610
v 0.793175 0.000000 1.902610
v 1.043604 0.000000 1.902610
v 0.793175 1.257058 1.902610
v 1.043604 1.257058 1.902610
v 0.793175 1.257058 1.730627
v 1.043604 1.257058 1.730627
v 0.793175 0.000000 1.730627
v 1.043604 0.000000 1.730627
v -1.043604 0.000000 1.902610
v -0.793175 0.000000 1.902610
v -1.043604 1.257058 1.902610
v -0.793175 1.257058 1.902610
v -1.043604 1.257058 1.730627
v -0.793175 1.257058 1.730627
v -1.043604 0.000000 1.730627
v -0.793175 0.000000 1.730627
v -1.138936 1.114816 -2.232494
v -1.138936 1.114816 2.232494
v -1.138936 1.330245 -2.232494
v -1.138936 1.330245 2.232494
v 1.138936 1.330245 -2.232494
v 1.138936 1.330245 2.232494
v 1.138936 1.114816 -2.232494
v 1.138936 1.114816 2.232494
vt 0.235112 0.397152
vt 0.235112 0.397152
vt 0.235112 0.397152
vt 0.235112 0.397152
vt 0.296184 0.397152
vt 0.296184 0.397152
vt 0.296184 0.397152
vt 0.296184 0.397152
vt 0.235112 0.397152
vt 0.235112 0.397152
vt 0.235112 0.397152
vt 0.235112 0.397152
vt 0.201874 0.397152
vt 0.201874 0.397152
vt 0.201874 0.397152
vt 0.201874 0.397152
vt 0.266047 0.394051
vt 0.266047 0.394051
vt 0.266047 0.394051
vt 0.266047 0.394051
vt 0.266047 0.394051
vt 0.266047 0.394051
vt 0.266047 0.394051
vt 0.266047 0.394051
vt 0.235112 0.397152
vt 0.235112 0.397152
vt 0.235112 0.397152
vt 0.235112 0.397152
vt 0.296184 0.397152
vt 0.296184 0.397152
vt 0.296184 0.397152
vt 0.296184 0.397152
vt 0.235112 0.397152
vt 0.235112 0.397152
vt 0.235112 0.397152
vt 0.235112 0.397152
vt 0.201874 0.397152
vt 0.201874 0.397152
vt 0.201874 0.397152
vt 0.201874 0.397152
vt 0.266047 0.394051
vt 0.266047 0.394051
vt 0.266047 0.394051
vt 0.266047 0.394051
vt 0.266047 0.394051
vt 0.266047 0.394051
vt 0.266047 0.394051
vt 0.266047 0.394051
vt 0.235112 0.397152
vt 0.235112 0.397152
vt 0.235112 0.397152
vt 0.235112 0.397152
vt 0.296184 0.397152
vt 0.296184 0.397152
vt 0.296184 0.397152
vt 0.296184 0.397152
vt 0.235112 0.397152
vt 0.235112 0.397152
vt 0.235112 0.397152
vt 0.235112 0.397152
vt 0.201874 0.397152
vt 0.201874 0.397152
vt 0.201874 0.397152
vt 0.201874 0.397152
vt 0.266047 0.394051
vt 0.266047 0.394051
vt 0.266047 0.394051
vt 0.266047 0.394051
vt 0.266047 0.394051
vt 0.266047 0.394051
vt 0.266047 0.394051
vt 0.266047 0.394051
vt 0.235112 0.397152
vt 0.235112 0.397152
vt 0.235112 0.397152
vt 0.235112 0.397152
vt 0.296184 0.397152
vt 0.296184 0.397152
vt 0.296184 0.397152
vt 0.296184 0.397152
vt 0.235112 0.397152
vt 0.235112 0.397152
vt 0.235112 0.397152
vt 0.235112 0.397152
vt 0.201874 0.397152
vt 0.201874 0.397152
vt 0.201874 0.397152
vt 0.201874 0.397152
vt 0.266047 0.394051
vt 0.266047 0.394051
vt 0.266047 0.394051
vt 0.266047 0.394051
vt 0.266047 0.394051
vt 0.266047 0.394051
vt 0.266047 0.394051
vt 0.266047 0.394051
vt 0.261484 0.396024
vt 0.261484 0.396024
vt 0.261484 0.396024
vt 0.261484 0.396024
vt 0.521000 0.976618
vt 0.521000 0.976755
vt 0.622676 0.976755
vt 0.622676 0.976618
vt 0.261484 0.396024
vt 0.261484 0.396024
vt 0.261484 0.396024
vt 0.261484 0.396024
vt 0.196245 0.396024
vt 0.196245 0.396024
vt 0.196245 0.396024
vt 0.196245 0.396024
vt 0.229717 0.396024
vt 0.229717 0.396024
vt 0.229717 0.396024
vt 0.229717 0.396024
vt 0.229717 0.396024
vt 0.229717 0.396024
vt 0.229717 0.396024
vt 0.229717 0.396024
vn 0.000000 0.000000 1.000000
vn 0.000000 0.000000 1.000000
vn 0.000000 0.000000 1.000000
vn 0.000000 0.000000 1.000000
vn 0.000000 1.000000 0.000000
vn 0.000000 1.000000 0.000000
vn 0.000000 1.000000 0.000000
vn 0.000000 1.000000 0.000000
vn 0.000000 0.000000 -1.000000
vn 0.000000 0.000000 -1.000000
vn 0.000000 0.000000 -1.000000
vn 0.000000 0.000000 -1.000000
vn 0.000000 -1.000000 0.000000
vn 0.000000 -1.000000 0.000000
vn 0.000000 -1.000000 0.000000
vn 0.000000 -1.000000 0.000000
vn 1.000000 0.000000 0.000000
vn 1.000000 0.000000 0.000000
vn 1.000000 0.000000 0.000000
vn 1.000000 0.000000 0.000000
vn -1.000000 0.000000 0.000000
vn -1.000000 0.000000 0.000000
vn -1.000000 0.000000 0.000000
vn -1.000000 0.000000 0.000000
vn 0.000000 0.000000 1.000000
vn 0.000000 0.000000 1.000000
vn 0.000000 0.000000 1.000000
vn 0.000000 0.000000 1.000000
vn 0.000000 1.000000 0.000000
vn 0.000000 1.000000 0.000000
vn 0.000000 1.000000 0.000000
vn 0.000000 1.000000 0.000000
vn 0.000000 0.000000 -1.000000
vn 0.000000 0.000000 -1.000000
vn 0.000000 0.000000 -1.000000
vn 0.000000 0.000000 -1.000000
vn 0.000000 -1.000000 0.000000
vn 0.000000 -1.000000 0.000000
vn 0.000000 -1.000000 0.000000
vn 0.000000 -1.000000 0.000000
vn 1.000000 0.000000 0.000000
vn 1.000000 0.000000 0.000000
vn 1.000000 0.000000 0.000000
vn 1.000000 0.000000 0.000000
vn -1.000000 0.000000 0.000000
vn -1.000000 0.000000 0.000000
vn -1.000000 0.000000 0.000000
vn -1.000000 0.000000 0.000000
vn 0.000000 0.000000 1.000000
vn 0.000000 0.000000 1.000000
vn 0.000000 0.000000 1.000000
vn 0.000000 0.000000 1.000000
vn 0.000000 1.000000 0.000000
vn 0.000000 1.000000 0.000000
vn 0.000000 1.000000 0.000000
vn 0.000000 1.000000 0.000000
vn 0.000000 0.000000 -1.000000
vn 0.000000 0.000000 -1.000000
vn 0.000000 0.000000 -1.000000
vn 0.000000 0.000000 -1.000000
vn 0.000000 -1.000000 0.000000
vn 0.000000 -1.000000 0.000000
vn 0.000000 -1.000000 0.000000
vn 0.000000 -1.000000 0.000000
vn 1.000000 0.000000 0.000000
vn 1.000000 0.000000 0.000000
vn 1.000000 0.000000 0.000000
vn 1.000000 0.000000 0.000000
vn -1.000000 0.000000 0.000000
vn -1.000000 0.000000 0.000000
vn -1.000000 0.000000 0.000000
vn -1.000000 0.000000 0.000000
vn 0.000000 0.000000 1.000000
vn 0.000000 0.000000 1.000000
vn 0.000000 0.000000 1.000000
vn 0.000000 0.000000 1.000000
vn 0.000000 1.000000 0.000000
vn 0.000000 1.000000 0.000000
vn 0.000000 1.000000 0.000000
vn 0.000000 1.000000 0.000000
vn 0.000000 0.000000 -1.000000
vn 0.000000 0.000000 -1.000000
vn 0.000000 0.000000 -1.000000
vn 0.000000 0.000000 -1.000000
vn 0.000000 -1.000000 0.000000
vn 0.000000 -1.000000 0.000000
vn 0.000000 -1.000000 0.000000
vn 0.000000 -1.000000 0.000000
vn 1.000000 0.000000 0.000000
vn 1.000000 0.000000 0.000000
vn 1.000000 0.000000 0.000000
vn 1.000000 0.000000 0.000000
vn -1.000000 0.000000 0.000000
vn -1.000000 0.000000 0.000000
vn -1.000000 0.000000 0.000000
vn -1.000000 0.000000 0.000000
vn -1.000000 0.000000 0.000000
vn -1.000000 0.000000 0.000000
vn -1.000000 0.000000 0.000000
vn -1.000000 0.000000 0.000000
vn 0.000000 1.000000 -0.000000
vn 0.000000 1.000000 -0.000000
vn 0.000000 1.000000 -0.000000
vn 0.000000 1.000000 -0.000000
vn 1.000000 0.000000 0.000000
vn 1.000000 0.000000 0.000000
vn 1.000000 0.000000 0.000000
vn 1.000000 0.000000 0.000000
vn 0.000000 -1.000000 0.000000
vn 0.000000 -1.000000 0.000000
vn 0.000000 -1.000000 0.000000
vn 0.000000 -1.000000 0.000000
vn 0.000000 0.000000 1.000000
vn 0.000000 0.000000 1.000000
vn 0.000000 0.000000 1.000000
vn 0.000000 0.000000 1.000000
vn 0.000000 0.000000 -1.000000
vn 0.000000 0.000000 -1.000000
vn 0.000000 0.000000 -1.000000
vn 0.000000 0.000000 -1.000000
s off
f 1/1/1 2/2/2 4/3/3 3/4/4
f 3/5/5 4/6/6 6/7/7 5/8/8
f 5/9/9 6/10/10 8/11/11 7/12/12
f 7/13/13 8/14/14 2/15/15 1/16/16
f 2/17/17 8/18/18 6/19/19 4/20/20
f 7/21/21 1/22/22 3/23/23 5/24/24
f 9/25/25 10/26/26 12/27/27 11/28/28
f 11/29/29 12/30/30 14/31/31 13/32/32
f 13/33/33 14/34/34 16/35/35 15/36/36
f 15/37/37 16/38/38 10/39/39 9/40/40
f 10/41/41 16/42/42 14/43/43 12/44/44
f 15/45/45 9/46/46 11/47/47 13/48/48
f 17/49/49 18/50/50 20/51/51 19/52/52
f 19/53/53 20/54/54 22/55/55 21/56/56
f 21/57/57 22/58/58 24/59/59 23/60/60
f 23/61/61 24/62/62 18/63/63 17/64/64
f 18/65/65 24/66/66 22/67/67 20/68/68
f 23/69/69 17/70/70 19/71/71 21/72/72
f 25/73/73 26/74/74 28/75/75 27/76/76
f 27/77/77 28/78/78 30/79/79 29/80/80
f 29/81/81 30/82/82 32/83/83 31/84/84
f 31/85/85 32/86/86 26/87/87 25/88/88
f 26/89/89 32/90/90 30/91/91 28/92/92
f 31/93/93 25/94/94 27/95/95 29/96/96
f 33/97/97 34/98/98 36/99/99 35/100/100
f 35/101/101 36/102/102 38/103/103 37/104/104
f 37/105/105 38/106/106 40/107/107 39/108/108
f 39/109/109 40/110/110 34/111/111 33/112/112
f 34/113/113 40/114/114 38/115/115 36/116/116
f 39/117/117 33/118/118 35/119/119 37/120/120
