# Blender v2.79 (sub 0) OBJ File: '10plants.blend'
# www.blender.org
mtllib WITCHES_HAT.mtl
o Cylinder.043
v 0.181935 -0.041735 -0.318459
v 0.103258 0.984789 -0.192300
v 0.103258 -0.041735 -0.192300
v 0.173177 0.984789 -0.061085
v 0.173177 -0.041735 -0.061085
v 0.181935 0.984789 -0.318459
v 0.330530 -0.041735 -0.313402
v 0.330530 0.984789 -0.313402
v 0.400448 -0.041735 -0.182187
v 0.400448 0.984789 -0.182187
v 0.321772 -0.041735 -0.056028
v 0.321772 0.984789 -0.056028
v 0.594645 2.500386 0.030567
v 0.642590 2.422936 0.148079
v 0.673322 2.500386 -0.095591
v 0.799943 2.422936 -0.104238
v 0.847887 2.345487 0.013273
v 0.769210 2.345487 0.139432
v -0.480984 2.817064 0.007609
v -0.068301 2.150417 1.019094
v 0.196228 2.817064 -1.078307
v 1.286123 2.150417 -1.152737
v 1.698805 1.483769 -0.141252
v 1.021593 1.483769 0.944664
v 1.803179 3.896275 0.886503
v 1.047737 2.682511 0.500688
v 0.770837 2.851880 0.519598
v 1.114943 2.851880 -0.032180
v 1.219790 2.682511 0.224799
v 0.665990 3.021249 0.262619
v 0.838044 3.021249 -0.013270
v 0.443238 2.501148 0.621870
v 1.311281 2.173676 0.051882
v 0.573181 2.828621 -0.408421
v 0.978620 2.173676 0.585308
v 1.108562 2.501148 -0.444983
v 0.240519 2.828621 0.125006
vt 0.947214 0.144399
vt 0.734562 0.141321
vt 0.731049 0.109699
vt 0.947798 0.114329
vt 0.946842 0.174459
vt 0.738751 0.171697
vt 0.946492 0.204531
vt 0.738872 0.202114
vt 0.950076 0.054095
vt 0.738000 0.046075
vt 0.742716 0.015688
vt 0.951550 0.023894
vt 0.732471 0.077190
vt 0.425668 0.074516
vt 0.418264 0.044630
vt 0.948762 0.084230
vt 0.150926 0.149845
vt 0.150533 0.137121
vt 0.259392 0.076544
vt 0.259392 0.209237
vt 0.414631 0.134342
vt 0.423931 0.105146
vt 0.407335 0.194578
vt 0.406676 0.163934
vt 0.409314 0.015081
vt 0.320351 0.416607
vt 0.372188 0.395113
vt 0.468266 0.631936
vt 0.139820 0.130296
vt 0.128246 0.136548
vt 0.028930 0.074180
vt 0.145321 0.008681
vt 0.127599 0.150166
vt 0.139612 0.156584
vt 0.143699 0.275803
vt 0.027311 0.208606
vt 0.425156 0.376584
vt 0.479922 0.364348
vt 0.235775 0.488353
vt 0.272505 0.445928
vt 0.535965 0.367200
vt 0.138056 0.804578
vt 0.137746 0.705825
vt 0.193162 0.736290
vt 0.191698 0.767971
vt 0.308843 0.795805
vt 0.226539 0.848010
vt 0.220620 0.780935
vt 0.246369 0.764130
vt 0.219729 0.654447
vt 0.304128 0.699506
vt 0.243969 0.735043
vt 0.219143 0.720927
vt 0.026558 0.641941
vt 0.221691 0.520513
vt 0.427000 0.626440
vt 0.434223 0.857438
vt 0.240252 0.981612
vt 0.027282 0.878367
vn 0.8825 0.0000 -0.4703
vn 0.0340 0.0000 -0.9994
vn -0.8485 0.0000 -0.5292
vn -0.8825 0.0000 0.4703
vn -0.0251 -0.1350 0.9905
vn 0.8485 0.0000 0.5292
vn -0.0340 0.0000 0.9994
vn -0.6811 -0.5964 -0.4248
vn 0.8559 -0.2122 -0.4716
vn -0.8002 0.3328 -0.4990
vn 0.7996 -0.3346 0.4987
vn -0.8567 0.2097 0.4713
vn 0.0255 0.1366 -0.9903
vn -0.0881 -0.2516 0.9638
vn -0.5227 -0.8523 -0.0209
vn -0.2411 -0.8526 -0.4636
vn -0.4531 -0.6759 -0.5813
vn -0.7167 -0.6798 -0.1556
vn -0.2749 -0.9461 -0.1714
vn 0.8703 -0.1653 -0.4640
vn -0.4750 0.8286 -0.2963
vn 0.6963 -0.5714 0.4343
vn 0.2692 0.5299 -0.8042
vn -0.6725 0.4615 0.5786
vn -0.4820 0.6283 0.6107
vn 0.3870 0.6997 -0.6005
vn 0.8482 -0.0272 0.5290
vn -0.3443 0.9140 -0.2147
vn 0.9434 0.2455 -0.2231
vn 0.1535 0.1418 0.9779
vn 0.3329 0.4518 0.8277
vn 0.8682 0.4954 -0.0277
vn -0.0145 0.9999 -0.0091
vn 0.8061 0.3121 0.5027
vn 0.4854 0.8257 -0.2874
vn -0.1069 0.8096 0.5772
usemtl witches_hat1
s off
f 7/1/1 8/2/1 10/3/1 9/4/1
f 1/5/2 6/6/2 8/2/2 7/1/2
f 3/7/3 2/8/3 6/6/3 1/5/3
f 5/9/4 4/10/4 2/11/4 3/12/4
f 4/10/5 12/13/5 18/14/5 14/15/5
f 9/4/6 10/3/6 12/13/6 11/16/6
f 11/16/7 12/13/7 4/10/7 5/9/7
f 18/17/8 17/18/8 23/19/8 24/20/8
f 10/3/9 8/2/9 16/21/9 17/22/9
f 6/6/10 2/8/10 13/23/10 15/24/10
f 12/13/11 10/3/11 17/22/11 18/14/11
f 2/11/12 4/10/12 14/15/12 13/25/12
f 8/2/13 6/6/13 15/24/13 16/21/13
f 27/26/14 26/27/14 25/28/14
f 16/29/15 15/30/15 21/31/15 22/32/15
f 13/33/16 14/34/16 20/35/16 19/36/16
f 14/34/17 18/17/17 24/20/17 20/35/17
f 17/18/18 16/29/18 22/32/18 23/19/18
f 15/30/19 13/33/19 19/36/19 21/31/19
f 29/37/20 28/38/20 25/28/20
f 31/39/21 30/40/21 25/28/21
f 26/27/22 29/37/22 25/28/22
f 28/38/23 31/41/23 25/28/23
f 30/40/24 27/26/24 25/28/24
f 37/42/25 32/43/25 27/44/25 30/45/25
f 36/46/26 34/47/26 31/48/26 28/49/26
f 35/50/27 33/51/27 29/52/27 26/53/27
f 34/47/28 37/42/28 30/45/28 31/48/28
f 33/51/29 36/46/29 28/49/29 29/52/29
f 32/43/30 35/50/30 26/53/30 27/44/30
f 20/54/31 24/55/31 35/50/31 32/43/31
f 23/56/32 22/57/32 36/46/32 33/51/32
f 21/58/33 19/59/33 37/42/33 34/47/33
f 24/55/34 23/56/34 33/51/34 35/50/34
f 22/57/35 21/58/35 34/47/35 36/46/35
f 19/59/36 20/54/36 32/43/36 37/42/36
o Cylinder.042_Cylinder.005
v 0.000000 -0.031369 -0.089907
v 0.000000 0.727998 -0.089907
v 0.077862 -0.031369 -0.044953
v 0.077862 0.727998 -0.044953
v 0.077862 -0.031369 0.044953
v 0.077862 0.727998 0.044953
v -0.000000 -0.031369 0.089907
v -0.000000 0.727998 0.089907
v -0.077862 -0.031369 0.044953
v -0.077862 0.727998 0.044953
v -0.077862 -0.031369 -0.044953
v -0.077862 0.727998 -0.044953
v -0.310068 1.556041 -0.125552
v -0.372270 1.509208 -0.170506
v -0.310068 1.556041 -0.035645
v -0.372270 1.509208 0.009308
v -0.434472 1.462374 -0.035645
v -0.434472 1.462374 -0.125552
v 0.201717 1.852247 -0.318522
v -0.239020 1.520405 -0.637043
v 0.201717 1.852247 0.318522
v -0.239020 1.520405 0.637043
v -0.679757 1.188563 0.318521
v -0.679757 1.188563 -0.318522
v -0.745913 2.193637 0.000000
v -0.628492 1.754604 -0.098306
v -0.492466 1.857021 -0.196612
v -0.492466 1.857021 0.196612
v -0.628492 1.754604 0.098306
v -0.356441 1.959438 -0.098306
v -0.356441 1.959438 0.098306
v -0.365743 1.688713 -0.350322
v -0.608113 1.506227 0.175161
v -0.123374 1.871199 0.175161
v -0.608113 1.506227 -0.175161
v -0.365743 1.688713 0.350322
v -0.123374 1.871199 -0.175161
vt 0.947795 0.225708
vt 0.789171 0.221097
vt 0.793343 0.203108
vt 0.948298 0.207362
vt 0.946182 0.317521
vt 0.791254 0.314771
vt 0.792436 0.296536
vt 0.946507 0.299178
vt 0.789835 0.278446
vt 0.946809 0.280835
vt 0.786280 0.259940
vt 0.947167 0.262481
vt 0.785724 0.240144
vt 0.610495 0.237594
vt 0.606391 0.219484
vt 0.947391 0.244077
vt 0.336592 0.063748
vt 0.328799 0.059297
vt 0.315967 0.008681
vt 0.372748 0.041384
vt 0.609652 0.274259
vt 0.612198 0.256007
vt 0.603168 0.310452
vt 0.605207 0.292139
vt 0.603930 0.201034
vt 0.973139 0.499322
vt 0.932678 0.580945
vt 0.764238 0.446608
vt 0.321051 0.063755
vt 0.321062 0.072681
vt 0.259412 0.106587
vt 0.259412 0.041371
vt 0.328770 0.077173
vt 0.336513 0.072727
vt 0.372501 0.106928
vt 0.315789 0.139383
vt 0.862100 0.638549
vt 0.774025 0.661835
vt 0.684200 0.646639
vt 0.608686 0.595678
vt 0.560983 0.518064
vt 0.918309 0.829458
vt 0.866023 0.860363
vt 0.867970 0.821578
vt 0.886420 0.808775
vt 0.866703 0.736772
vt 0.918897 0.768567
vt 0.884929 0.785917
vt 0.864784 0.775582
vt 0.813821 0.828543
vt 0.814411 0.767659
vt 0.846293 0.788336
vt 0.847770 0.811174
vt 0.862783 0.931540
vt 0.752798 0.859941
vt 0.756264 0.731153
vt 0.869937 0.665597
vt 0.979917 0.737169
vt 0.976464 0.865963
vn 0.5000 0.0000 -0.8660
vn 1.0000 0.0000 0.0000
vn 0.5000 0.0000 0.8660
vn -0.5000 0.0000 0.8660
vn -0.4413 -0.3021 -0.8449
vn -1.0000 0.0000 0.0000
vn -0.5000 0.0000 -0.8660
vn 0.7448 -0.6672 0.0000
vn -0.4984 -0.1489 0.8540
vn 0.9055 0.4242 0.0000
vn -0.8995 -0.4368 0.0000
vn 0.4981 0.1498 -0.8541
vn 0.4445 0.2947 0.8459
vn -0.5957 0.0205 -0.8029
vn 0.5503 -0.8287 -0.1020
vn 0.5334 -0.8354 0.1323
vn 0.6694 -0.7222 0.1739
vn 0.6530 -0.7470 -0.1253
vn 0.5009 -0.8655 0.0000
vn -0.5957 0.0205 0.8029
vn 0.5153 0.8570 0.0000
vn -0.9660 -0.2584 0.0000
vn 0.1450 0.5781 0.8029
vn 0.1450 0.5781 -0.8029
vn 0.0164 0.6810 -0.7321
vn 0.0164 0.6810 0.7321
vn -0.9967 -0.0818 0.0000
vn 0.3541 0.9352 0.0000
vn -0.6590 0.1725 0.7321
vn -0.6590 0.1725 -0.7321
vn -0.7171 0.4146 -0.5603
vn -0.7171 0.4146 0.5603
vn 0.0582 0.9983 0.0000
vn -0.9755 0.2200 0.0000
vn -0.2002 0.8037 0.5603
vn -0.2002 0.8037 -0.5603
usemtl witches_hat1
s off
f 38/60/37 39/61/37 41/62/37 40/63/37
f 40/64/38 41/65/38 43/66/38 42/67/38
f 42/67/39 43/66/39 45/68/39 44/69/39
f 44/69/40 45/68/40 47/70/40 46/71/40
f 39/61/41 49/72/41 55/73/41 51/74/41
f 46/71/42 47/70/42 49/72/42 48/75/42
f 48/75/43 49/72/43 39/61/43 38/60/43
f 55/76/44 54/77/44 60/78/44 61/79/44
f 47/70/45 45/68/45 53/80/45 54/81/45
f 43/66/46 41/65/46 50/82/46 52/83/46
f 49/72/47 47/70/47 54/81/47 55/73/47
f 41/62/48 39/61/48 51/74/48 50/84/48
f 45/68/49 43/66/49 52/83/49 53/80/49
f 64/85/50 63/86/50 62/87/50
f 53/88/51 52/89/51 58/90/51 59/91/51
f 50/92/52 51/93/52 57/94/52 56/95/52
f 51/93/53 55/76/53 61/79/53 57/94/53
f 54/77/54 53/88/54 59/91/54 60/78/54
f 52/89/55 50/92/55 56/95/55 58/90/55
f 66/96/56 65/97/56 62/87/56
f 68/98/57 67/99/57 62/87/57
f 63/86/58 66/96/58 62/87/58
f 65/97/59 68/98/59 62/87/59
f 67/99/60 64/100/60 62/87/60
f 74/101/61 69/102/61 64/103/61 67/104/61
f 73/105/62 71/106/62 68/107/62 65/108/62
f 72/109/63 70/110/63 66/111/63 63/112/63
f 71/106/64 74/101/64 67/104/64 68/107/64
f 70/110/65 73/105/65 65/108/65 66/111/65
f 69/102/66 72/109/66 63/112/66 64/103/66
f 57/113/67 61/114/67 72/109/67 69/102/67
f 60/115/68 59/116/68 73/105/68 70/110/68
f 58/117/69 56/118/69 74/101/69 71/106/69
f 61/114/70 60/115/70 70/110/70 72/109/70
f 59/116/71 58/117/71 71/106/71 73/105/71
f 56/118/72 57/113/72 69/102/72 74/101/72
o Cylinder.016_Cylinder.006
v -0.045257 -0.040237 -0.461624
v 0.019990 0.568062 -0.731348
v 0.019990 -0.040237 -0.402418
v 0.103888 0.568062 -0.758251
v 0.103888 -0.040237 -0.429322
v -0.045257 0.568062 -0.790554
v -0.026608 -0.040237 -0.547733
v -0.026608 0.568062 -0.876663
v 0.057290 -0.040237 -0.574636
v 0.057290 0.568062 -0.903566
v 0.122538 -0.040237 -0.515431
v 0.122538 0.568062 -0.844361
v 0.126069 1.439639 -0.995433
v 0.199655 1.393744 -1.010972
v 0.060822 1.439639 -1.054639
v 0.069159 1.393744 -1.129383
v 0.142744 1.347849 -1.144922
v 0.207992 1.347849 -1.085716
v 0.051870 1.623220 -0.461395
v 0.551096 1.311852 -0.566815
v -0.390794 1.623220 -0.863065
v -0.334231 1.311852 -1.370156
v 0.164996 1.000486 -1.475576
v 0.607659 1.000486 -1.073906
v 0.771963 2.122657 -1.451646
v 0.523859 1.574101 -1.208835
v 0.505627 1.674466 -1.045380
v 0.220253 1.674466 -1.304327
v 0.381172 1.574101 -1.338308
v 0.344708 1.774831 -1.011400
v 0.202021 1.774831 -1.140873
v 0.489042 1.493159 -0.841776
v 0.268060 1.314950 -1.361900
v -0.050043 1.671368 -1.011333
v 0.521415 1.314950 -1.132006
v -0.017669 1.493159 -1.301563
v 0.203313 1.671368 -0.781440
vt 0.929946 0.390639
vt 0.787558 0.386534
vt 0.784908 0.368902
vt 0.927749 0.372187
vt 0.937984 0.407351
vt 0.794205 0.403155
vt 0.943424 0.425100
vt 0.797769 0.421026
vt 0.943120 0.338515
vt 0.796908 0.334638
vt 0.800571 0.316393
vt 0.946298 0.320217
vt 0.789316 0.351439
vt 0.617657 0.347243
vt 0.613699 0.329107
vt 0.934036 0.354715
vt 0.329624 0.188241
vt 0.325624 0.181009
vt 0.353030 0.139893
vt 0.383576 0.194016
vt 0.608364 0.382822
vt 0.615113 0.365602
vt 0.605509 0.419112
vt 0.603736 0.400717
vt 0.607613 0.311549
vt 0.130512 0.284866
vt 0.195037 0.284866
vt 0.176189 0.501450
vt 0.317160 0.180765
vt 0.313039 0.188138
vt 0.259412 0.193431
vt 0.290569 0.139403
vt 0.317209 0.195319
vt 0.325387 0.195203
vt 0.352102 0.247162
vt 0.290354 0.247162
vt 0.259463 0.288420
vt 0.321407 0.306485
vt 0.008439 0.320643
vt 0.066421 0.292334
vt 0.370011 0.348924
vt 0.598469 0.708681
vt 0.661331 0.747565
vt 0.620673 0.771856
vt 0.600349 0.759964
vt 0.534301 0.821212
vt 0.536855 0.747185
vt 0.581935 0.772315
vt 0.580158 0.796220
vt 0.662330 0.822767
vt 0.596997 0.860517
vt 0.600033 0.808938
vt 0.622131 0.797192
vt 0.734028 0.704059
vt 0.734173 0.867046
vt 0.590823 0.954866
vt 0.450238 0.863955
vt 0.453829 0.702403
vt 0.593997 0.613388
vn -0.2715 -0.4578 -0.8466
vn -0.9710 -0.1137 -0.2103
vn -0.6238 0.3718 0.6875
vn 0.2715 0.4578 0.8466
vn 0.9820 -0.0553 0.1805
vn 0.6238 -0.3718 -0.6875
vn 0.9710 0.1137 0.2103
vn -0.5381 -0.5990 0.5930
vn -0.3184 -0.2458 -0.9155
vn -0.6425 0.2928 0.7081
vn 0.6431 -0.2899 -0.7088
vn 0.3175 0.2415 0.9170
vn -0.9814 0.0613 -0.1821
vn 0.9151 -0.2899 0.2801
vn -0.1305 -0.8513 0.5082
vn -0.4811 -0.8474 0.2245
vn -0.6180 -0.6988 0.3602
vn -0.2740 -0.6722 0.6878
vn -0.2561 -0.9245 0.2822
vn -0.2290 -0.0378 -0.9727
vn -0.3316 0.8698 0.3654
vn 0.5681 -0.5341 -0.6261
vn -0.6314 0.6274 -0.4557
vn 0.4416 0.4442 0.7795
vn 0.5123 0.6202 0.5940
vn -0.5336 0.6929 -0.4850
vn 0.6555 -0.2203 -0.7224
vn -0.2441 0.9317 0.2691
vn -0.1193 0.1415 -0.9827
vn 0.9949 0.0199 0.0988
vn 0.9655 0.2557 -0.0493
vn 0.0112 0.3367 -0.9415
vn -0.0946 0.9901 0.1042
vn 0.6712 0.0474 -0.7397
vn -0.3370 0.7851 -0.5197
vn 0.5465 0.7505 0.3715
usemtl witches_hat1
s off
f 81/119/73 82/120/73 84/121/73 83/122/73
f 75/123/74 80/124/74 82/120/74 81/119/74
f 77/125/75 76/126/75 80/124/75 75/123/75
f 79/127/76 78/128/76 76/129/76 77/130/76
f 78/128/77 86/131/77 92/132/77 88/133/77
f 83/122/78 84/121/78 86/131/78 85/134/78
f 85/134/79 86/131/79 78/128/79 79/127/79
f 92/135/80 91/136/80 97/137/80 98/138/80
f 84/121/81 82/120/81 90/139/81 91/140/81
f 80/124/82 76/126/82 87/141/82 89/142/82
f 86/131/83 84/121/83 91/140/83 92/132/83
f 76/129/84 78/128/84 88/133/84 87/143/84
f 82/120/85 80/124/85 89/142/85 90/139/85
f 101/144/86 100/145/86 99/146/86
f 90/147/87 89/148/87 95/149/87 96/150/87
f 87/151/88 88/152/88 94/153/88 93/154/88
f 88/152/89 92/135/89 98/138/89 94/153/89
f 91/136/90 90/147/90 96/150/90 97/137/90
f 89/148/91 87/151/91 93/154/91 95/149/91
f 103/155/92 102/156/92 99/146/92
f 105/157/93 104/158/93 99/146/93
f 100/145/94 103/155/94 99/146/94
f 102/156/95 105/159/95 99/146/95
f 104/158/96 101/144/96 99/146/96
f 111/160/97 106/161/97 101/162/97 104/163/97
f 110/164/98 108/165/98 105/166/98 102/167/98
f 109/168/99 107/169/99 103/170/99 100/171/99
f 108/165/100 111/160/100 104/163/100 105/166/100
f 107/169/101 110/164/101 102/167/101 103/170/101
f 106/161/102 109/168/102 100/171/102 101/162/102
f 94/172/103 98/173/103 109/168/103 106/161/103
f 97/174/104 96/175/104 110/164/104 107/169/104
f 95/176/105 93/177/105 111/160/105 108/165/105
f 98/173/106 97/174/106 107/169/106 109/168/106
f 96/175/107 95/176/107 108/165/107 110/164/107
f 93/177/108 94/172/108 106/161/108 111/160/108
