# This file uses feet as units for non-parametric coordinates.

mtllib Mine_cart.mtl
g default
v -40.371418 9.209766 40.088852
v 40.371418 9.209766 40.088852
v -51.986839 76.928902 40.088852
v 51.986839 76.928902 40.088852
v -51.986839 76.928902 -40.088852
v 51.986839 76.928902 -40.088852
v -40.371418 9.209766 -40.088852
v 40.371418 9.209766 -40.088852
v -46.898083 76.928902 34.146519
v 46.898083 76.928902 34.146519
v 46.898083 76.928902 -34.146519
v -46.898083 76.928902 -34.146519
v -34.736725 12.207905 25.291826
v 34.736725 12.207905 25.291826
v 34.736725 12.207905 -25.291826
v -34.736725 12.207905 -25.291826
v -14.539968 21.793114 40.016743
v -24.129604 25.765270 40.016743
v -33.719238 21.793114 40.016743
v -37.691399 12.203478 40.016743
v -33.719238 2.613842 40.016743
v -24.129604 -1.358315 40.016743
v -14.539968 2.613841 40.016743
v -10.567810 12.203478 40.016743
v -14.539968 21.793114 47.515331
v -24.129604 25.765270 47.515331
v -33.719238 21.793114 47.515331
v -37.691399 12.203478 47.515331
v -33.719238 2.613842 47.515331
v -24.129604 -1.358315 47.515331
v -14.539968 2.613841 47.515331
v -10.567810 12.203478 47.515331
v -24.129604 12.203478 47.515331
v 34.431297 21.793114 40.016743
v 24.841660 25.765270 40.016743
v 15.252024 21.793114 40.016743
v 11.279866 12.203478 40.016743
v 15.252024 2.613842 40.016743
v 24.841660 -1.358315 40.016743
v 34.431297 2.613841 40.016743
v 38.403454 12.203478 40.016743
v 34.431297 21.793114 47.515331
v 24.841660 25.765270 47.515331
v 15.252024 21.793114 47.515331
v 11.279866 12.203478 47.515331
v 15.252024 2.613842 47.515331
v 24.841660 -1.358315 47.515331
v 34.431297 2.613841 47.515331
v 38.403454 12.203478 47.515331
v 24.841660 12.203478 47.515331
v -14.539967 21.793114 -39.949432
v -24.129604 25.765270 -39.949432
v -33.719238 21.793114 -39.949432
v -37.691395 12.203476 -39.949432
v -33.719238 2.613842 -39.949432
v -24.129604 -1.358316 -39.949432
v -14.539968 2.613842 -39.949432
v -10.567810 12.203476 -39.949432
v -14.539967 21.793114 -47.448021
v -24.129604 25.765270 -47.448021
v -33.719238 21.793114 -47.448021
v -37.691395 12.203478 -47.448021
v -33.719238 2.613842 -47.448021
v -24.129604 -1.358316 -47.448021
v -14.539968 2.613840 -47.448021
v -10.567810 12.203478 -47.448021
v -24.129604 12.203478 -47.448021
v 34.375179 21.793114 -39.949432
v 24.785542 25.765270 -39.949432
v 15.195908 21.793114 -39.949432
v 11.223751 12.203476 -39.949432
v 15.195908 2.613842 -39.949432
v 24.785542 -1.358316 -39.949432
v 34.375175 2.613842 -39.949432
v 38.347336 12.203476 -39.949432
v 34.375179 21.793114 -47.448021
v 24.785542 25.765270 -47.448021
v 15.195908 21.793114 -47.448021
v 11.223751 12.203478 -47.448021
v 15.195908 2.613842 -47.448021
v 24.785542 -1.358316 -47.448021
v 34.375175 2.613840 -47.448021
v 38.347336 12.203478 -47.448021
v 24.785542 12.203478 -47.448021
vt 0.945400 0.516535
vt 0.945400 0.116939
vt 0.510791 0.059454
vt 0.510791 0.574020
vt 0.119747 0.581804
vt 0.375710 0.581804
vt 0.375710 0.823483
vt 0.119747 0.823483
vt 0.513835 0.574020
vt 0.513835 0.059454
vt 0.948443 0.116939
vt 0.948443 0.516535
vt 0.448481 0.555085
vt 0.448481 0.852569
vt 0.065407 0.852569
vt 0.065407 0.555085
vt 0.510761 0.574355
vt 0.510761 0.059790
vt 0.945370 0.059790
vt 0.945370 0.574355
vt 0.508054 0.574355
vt 0.508054 0.059790
vt 0.942663 0.059790
vt 0.942663 0.574355
vt 0.019281 0.503687
vt 0.019281 0.052746
vt 0.052703 0.074817
vt 0.052703 0.481617
vt 0.470222 0.052746
vt 0.436801 0.074817
vt 0.470222 0.503687
vt 0.436801 0.481617
vt 0.521804 0.054044
vt 0.521804 0.575637
vt 0.937171 0.508009
vt 0.937171 0.121672
vt 0.513234 0.090786
vt 0.513234 0.529078
vt 0.928601 0.472250
vt 0.928601 0.147614
vt 0.514167 0.054043
vt 0.514167 0.575637
vt 0.929534 0.508009
vt 0.929534 0.121672
vt 0.498687 0.095603
vt 0.498687 0.533895
vt 0.941446 0.477067
vt 0.941446 0.152431
vt 0.026398 0.874248
vt 0.119858 0.874248
vt 0.119858 0.936492
vt 0.026398 0.936492
vt 0.213318 0.874248
vt 0.213318 0.936492
vt 0.306779 0.874248
vt 0.306779 0.936492
vt 0.400239 0.874248
vt 0.400239 0.936492
vt 0.493699 0.874248
vt 0.493699 0.936492
vt 0.587160 0.874248
vt 0.587160 0.936492
vt 0.680620 0.874248
vt 0.680620 0.936492
vt 0.774080 0.874248
vt 0.774080 0.936492
vt 0.804131 0.817585
vt 0.719485 0.852646
vt 0.719485 0.728151
vt 0.634839 0.817585
vt 0.599778 0.732939
vt 0.634839 0.648293
vt 0.719485 0.613232
vt 0.804131 0.648293
vt 0.839193 0.732939
vt 0.026398 0.874248
vt 0.119858 0.874248
vt 0.119858 0.936492
vt 0.026398 0.936492
vt 0.213318 0.874248
vt 0.213318 0.936492
vt 0.306779 0.874248
vt 0.306779 0.936492
vt 0.400239 0.874248
vt 0.400239 0.936492
vt 0.493699 0.874248
vt 0.493699 0.936492
vt 0.587160 0.874248
vt 0.587160 0.936492
vt 0.680620 0.874248
vt 0.680620 0.936492
vt 0.774080 0.874248
vt 0.774080 0.936492
vt 0.804131 0.817585
vt 0.719485 0.852646
vt 0.719485 0.728151
vt 0.634839 0.817585
vt 0.599778 0.732939
vt 0.634839 0.648293
vt 0.719485 0.613232
vt 0.804131 0.648293
vt 0.839193 0.732939
vt 0.026398 0.874248
vt 0.119858 0.874248
vt 0.119858 0.936492
vt 0.026398 0.936492
vt 0.213318 0.874248
vt 0.213318 0.936492
vt 0.306779 0.874248
vt 0.306779 0.936492
vt 0.400239 0.874248
vt 0.400239 0.936492
vt 0.493699 0.874248
vt 0.493699 0.936492
vt 0.587160 0.874248
vt 0.587160 0.936492
vt 0.680620 0.874248
vt 0.680620 0.936492
vt 0.774080 0.874248
vt 0.774080 0.936492
vt 0.804131 0.817585
vt 0.719485 0.852646
vt 0.719485 0.728151
vt 0.634839 0.817585
vt 0.599778 0.732939
vt 0.634839 0.648293
vt 0.719485 0.613232
vt 0.804131 0.648293
vt 0.839193 0.732939
vt 0.026398 0.874248
vt 0.119858 0.874248
vt 0.119858 0.936492
vt 0.026398 0.936492
vt 0.213318 0.874248
vt 0.213318 0.936492
vt 0.306779 0.874248
vt 0.306779 0.936492
vt 0.400239 0.874248
vt 0.400239 0.936492
vt 0.493699 0.874248
vt 0.493699 0.936492
vt 0.587160 0.874248
vt 0.587160 0.936492
vt 0.680620 0.874248
vt 0.680620 0.936492
vt 0.774080 0.874248
vt 0.774080 0.936492
vt 0.804131 0.817585
vt 0.719485 0.852646
vt 0.719485 0.728151
vt 0.634839 0.817585
vt 0.599778 0.732939
vt 0.634839 0.648293
vt 0.719485 0.613232
vt 0.804131 0.648293
vt 0.839193 0.732939
vn 0.000000 0.000000 1.000000
vn 0.000000 0.000000 1.000000
vn 0.000000 0.000000 1.000000
vn 0.000000 0.000000 1.000000
vn 0.000000 1.000000 0.000000
vn 0.000000 1.000000 0.000000
vn 0.000000 1.000000 0.000000
vn 0.000000 1.000000 0.000000
vn 0.000000 0.000000 -1.000000
vn 0.000000 0.000000 -1.000000
vn 0.000000 0.000000 -1.000000
vn 0.000000 0.000000 -1.000000
vn 0.000000 -1.000000 0.000000
vn 0.000000 -1.000000 0.000000
vn 0.000000 -1.000000 0.000000
vn 0.000000 -1.000000 0.000000
vn 0.985607 -0.169055 0.000000
vn 0.985607 -0.169055 0.000000
vn 0.985607 -0.169055 0.000000
vn 0.985607 -0.169055 0.000000
vn -0.985607 -0.169055 0.000000
vn -0.985607 -0.169055 0.000000
vn -0.985607 -0.169055 0.000000
vn -0.985607 -0.169055 0.000000
vn 0.000000 1.000000 0.000000
vn 0.000000 1.000000 0.000000
vn 0.000000 1.000000 0.000000
vn 0.000000 1.000000 0.000000
vn 0.000000 1.000000 0.000000
vn 0.000000 1.000000 0.000000
vn 0.000000 1.000000 0.000000
vn 0.000000 1.000000 0.000000
vn 0.000000 1.000000 -0.000000
vn 0.000000 1.000000 -0.000000
vn 0.000000 1.000000 -0.000000
vn 0.000000 1.000000 -0.000000
vn 0.000000 1.000000 0.000000
vn 0.000000 1.000000 0.000000
vn 0.000000 1.000000 0.000000
vn 0.000000 1.000000 0.000000
vn 0.000000 0.135551 -0.990770
vn 0.000000 0.135551 -0.990770
vn 0.000000 0.135551 -0.990770
vn 0.000000 0.135551 -0.990770
vn -0.982800 0.184672 0.000000
vn -0.982800 0.184672 0.000000
vn -0.982800 0.184672 0.000000
vn -0.982800 0.184672 0.000000
vn 0.000000 0.135551 0.990770
vn 0.000000 0.135551 0.990770
vn 0.000000 0.135551 0.990770
vn 0.000000 0.135551 0.990770
vn 0.982800 0.184672 0.000000
vn 0.982800 0.184672 0.000000
vn 0.982800 0.184672 0.000000
vn 0.982800 0.184672 0.000000
vn 0.382683 0.923880 0.000000
vn 0.382683 0.923880 0.000000
vn 0.382683 0.923880 0.000000
vn 0.382683 0.923880 0.000000
vn -0.382683 0.923880 0.000000
vn -0.382683 0.923880 0.000000
vn -0.382683 0.923880 0.000000
vn -0.382683 0.923880 0.000000
vn -0.923879 0.382684 0.000000
vn -0.923879 0.382684 0.000000
vn -0.923879 0.382684 0.000000
vn -0.923879 0.382684 0.000000
vn -0.923879 -0.382684 0.000000
vn -0.923879 -0.382684 0.000000
vn -0.923879 -0.382684 0.000000
vn -0.923879 -0.382684 0.000000
vn -0.382683 -0.923880 0.000000
vn -0.382683 -0.923880 0.000000
vn -0.382683 -0.923880 0.000000
vn -0.382683 -0.923880 0.000000
vn 0.382683 -0.923880 0.000000
vn 0.382683 -0.923880 0.000000
vn 0.382683 -0.923880 0.000000
vn 0.382683 -0.923880 0.000000
vn 0.923880 -0.382684 0.000000
vn 0.923880 -0.382684 0.000000
vn 0.923880 -0.382684 0.000000
vn 0.923880 -0.382684 0.000000
vn 0.923880 0.382684 0.000000
vn 0.923880 0.382684 0.000000
vn 0.923880 0.382684 0.000000
vn 0.923880 0.382684 0.000000
vn 0.000000 0.000000 1.000000
vn 0.000000 0.000000 1.000000
vn 0.000000 0.000000 1.000000
vn 0.000000 0.000000 1.000000
vn 0.000000 0.000000 1.000000
vn -0.000000 0.000000 1.000000
vn 0.000000 0.000000 1.000000
vn 0.000000 0.000000 1.000000
vn 0.000000 0.000000 1.000000
vn 0.382683 0.923880 0.000000
vn 0.382683 0.923880 0.000000
vn 0.382683 0.923880 0.000000
vn 0.382683 0.923880 0.000000
vn -0.382683 0.923880 0.000000
vn -0.382683 0.923880 0.000000
vn -0.382683 0.923880 0.000000
vn -0.382683 0.923880 0.000000
vn -0.923880 0.382684 0.000000
vn -0.923880 0.382684 0.000000
vn -0.923880 0.382684 0.000000
vn -0.923880 0.382684 0.000000
vn -0.923880 -0.382684 0.000000
vn -0.923880 -0.382684 0.000000
vn -0.923880 -0.382684 0.000000
vn -0.923880 -0.382684 0.000000
vn -0.382683 -0.923880 0.000000
vn -0.382683 -0.923880 0.000000
vn -0.382683 -0.923880 0.000000
vn -0.382683 -0.923880 0.000000
vn 0.382683 -0.923880 0.000000
vn 0.382683 -0.923880 0.000000
vn 0.382683 -0.923880 0.000000
vn 0.382683 -0.923880 0.000000
vn 0.923880 -0.382684 0.000000
vn 0.923880 -0.382684 0.000000
vn 0.923880 -0.382684 0.000000
vn 0.923880 -0.382684 0.000000
vn 0.923880 0.382684 0.000000
vn 0.923880 0.382684 0.000000
vn 0.923880 0.382684 0.000000
vn 0.923880 0.382684 0.000000
vn 0.000000 0.000000 1.000000
vn 0.000000 0.000000 1.000000
vn 0.000000 0.000000 1.000000
vn 0.000000 0.000000 1.000000
vn 0.000000 0.000000 1.000000
vn -0.000000 0.000000 1.000000
vn 0.000000 0.000000 1.000000
vn 0.000000 0.000000 1.000000
vn 0.000000 0.000000 1.000000
vn 0.382683 0.923880 0.000000
vn 0.382683 0.923880 0.000000
vn 0.382683 0.923880 0.000000
vn 0.382683 0.923880 0.000000
vn -0.382683 0.923880 0.000000
vn -0.382683 0.923880 0.000000
vn -0.382683 0.923880 0.000000
vn -0.382683 0.923880 0.000000
vn -0.923880 0.382683 0.000000
vn -0.923880 0.382683 0.000000
vn -0.923880 0.382683 0.000000
vn -0.923880 0.382683 0.000000
vn -0.923880 -0.382683 -0.000000
vn -0.923880 -0.382683 -0.000000
vn -0.923880 -0.382683 -0.000000
vn -0.923880 -0.382683 -0.000000
vn -0.382684 -0.923880 0.000000
vn -0.382684 -0.923880 0.000000
vn -0.382684 -0.923880 0.000000
vn -0.382684 -0.923880 0.000000
vn 0.382683 -0.923880 0.000000
vn 0.382683 -0.923880 0.000000
vn 0.382683 -0.923880 0.000000
vn 0.382683 -0.923880 0.000000
vn 0.923879 -0.382684 0.000000
vn 0.923879 -0.382684 0.000000
vn 0.923879 -0.382684 0.000000
vn 0.923879 -0.382684 0.000000
vn 0.923880 0.382683 0.000000
vn 0.923880 0.382683 0.000000
vn 0.923880 0.382683 0.000000
vn 0.923880 0.382683 0.000000
vn 0.000000 0.000000 -1.000000
vn 0.000000 0.000000 -1.000000
vn 0.000000 0.000000 -1.000000
vn -0.000000 0.000000 -1.000000
vn 0.000000 0.000000 -1.000000
vn 0.000000 0.000000 -1.000000
vn -0.000000 0.000000 -1.000000
vn -0.000000 0.000000 -1.000000
vn 0.000000 0.000000 -1.000000
vn 0.382683 0.923880 0.000000
vn 0.382683 0.923880 0.000000
vn 0.382683 0.923880 0.000000
vn 0.382683 0.923880 0.000000
vn -0.382683 0.923880 0.000000
vn -0.382683 0.923880 0.000000
vn -0.382683 0.923880 0.000000
vn -0.382683 0.923880 0.000000
vn -0.923880 0.382683 0.000000
vn -0.923880 0.382683 0.000000
vn -0.923880 0.382683 0.000000
vn -0.923880 0.382683 0.000000
vn -0.923880 -0.382683 -0.000000
vn -0.923880 -0.382683 -0.000000
vn -0.923880 -0.382683 -0.000000
vn -0.923880 -0.382683 -0.000000
vn -0.382684 -0.923880 0.000000
vn -0.382684 -0.923880 0.000000
vn -0.382684 -0.923880 0.000000
vn -0.382684 -0.923880 0.000000
vn 0.382684 -0.923880 0.000000
vn 0.382684 -0.923880 0.000000
vn 0.382684 -0.923880 0.000000
vn 0.382684 -0.923880 0.000000
vn 0.923879 -0.382684 0.000000
vn 0.923879 -0.382684 0.000000
vn 0.923879 -0.382684 0.000000
vn 0.923879 -0.382684 0.000000
vn 0.923880 0.382683 0.000000
vn 0.923880 0.382683 0.000000
vn 0.923880 0.382684 0.000000
vn 0.923880 0.382684 0.000000
vn 0.000000 0.000000 -1.000000
vn 0.000000 0.000000 -1.000000
vn 0.000000 0.000000 -1.000000
vn -0.000000 0.000000 -1.000000
vn 0.000000 0.000000 -1.000000
vn 0.000000 0.000000 -1.000000
vn -0.000000 0.000000 -1.000000
vn -0.000000 0.000000 -1.000000
vn 0.000000 0.000000 -1.000000
s off
g Mine_cart
usemtl lambert2SG
f 1/1/1 2/2/2 4/3/3 3/4/4
f 13/5/5 14/6/6 15/7/7 16/8/8
f 5/9/9 6/10/10 8/11/11 7/12/12
f 7/13/13 8/14/14 2/15/15 1/16/16
f 2/17/17 8/18/18 6/19/19 4/20/20
f 7/21/21 1/22/22 3/23/23 5/24/24
f 3/25/25 4/26/26 10/27/27 9/28/28
f 4/26/29 6/29/30 11/30/31 10/27/32
f 6/29/33 5/31/34 12/32/35 11/30/36
f 5/31/37 3/25/38 9/28/39 12/32/40
f 9/33/41 10/34/42 14/35/43 13/36/44
f 10/37/45 11/38/46 15/39/47 14/40/48
f 11/41/49 12/42/50 16/43/51 15/44/52
f 12/45/53 9/46/54 13/47/55 16/48/56
f 17/49/57 18/50/58 26/51/59 25/52/60
f 18/50/61 19/53/62 27/54/63 26/51/64
f 19/53/65 20/55/66 28/56/67 27/54/68
f 20/55/69 21/57/70 29/58/71 28/56/72
f 21/57/73 22/59/74 30/60/75 29/58/76
f 22/59/77 23/61/78 31/62/79 30/60/80
f 23/61/81 24/63/82 32/64/83 31/62/84
f 24/63/85 17/65/86 25/66/87 32/64/88
s 1
f 25/67/89 26/68/90 33/69/91
f 26/68/90 27/70/92 33/69/91
f 27/70/92 28/71/93 33/69/91
f 28/71/93 29/72/94 33/69/91
f 29/72/94 30/73/95 33/69/91
f 30/73/95 31/74/96 33/69/91
f 31/74/96 32/75/97 33/69/91
f 32/75/97 25/67/89 33/69/91
s off
f 34/76/98 35/77/99 43/78/100 42/79/101
f 35/77/102 36/80/103 44/81/104 43/78/105
f 36/80/106 37/82/107 45/83/108 44/81/109
f 37/82/110 38/84/111 46/85/112 45/83/113
f 38/84/114 39/86/115 47/87/116 46/85/117
f 39/86/118 40/88/119 48/89/120 47/87/121
f 40/88/122 41/90/123 49/91/124 48/89/125
f 41/90/126 34/92/127 42/93/128 49/91/129
s 2
f 42/94/130 43/95/131 50/96/132
f 43/95/131 44/97/133 50/96/132
f 44/97/133 45/98/134 50/96/132
f 45/98/134 46/99/135 50/96/132
f 46/99/135 47/100/136 50/96/132
f 47/100/136 48/101/137 50/96/132
f 48/101/137 49/102/138 50/96/132
f 49/102/138 42/94/130 50/96/132
s off
f 51/103/139 59/106/140 60/105/141 52/104/142
f 52/104/143 60/105/144 61/108/145 53/107/146
f 53/107/147 61/108/148 62/110/149 54/109/150
f 54/109/151 62/110/152 63/112/153 55/111/154
f 55/111/155 63/112/156 64/114/157 56/113/158
f 56/113/159 64/114/160 65/116/161 57/115/162
f 57/115/163 65/116/164 66/118/165 58/117/166
f 58/117/167 66/118/168 59/120/169 51/119/170
s 3
f 59/121/171 67/123/172 60/122/173
f 60/122/173 67/123/172 61/124/174
f 61/124/174 67/123/172 62/125/175
f 62/125/175 67/123/172 63/126/176
f 63/126/176 67/123/172 64/127/177
f 64/127/177 67/123/172 65/128/178
f 65/128/178 67/123/172 66/129/179
f 66/129/179 67/123/172 59/121/171
s off
f 68/130/180 76/133/181 77/132/182 69/131/183
f 69/131/184 77/132/185 78/135/186 70/134/187
f 70/134/188 78/135/189 79/137/190 71/136/191
f 71/136/192 79/137/193 80/139/194 72/138/195
f 72/138/196 80/139/197 81/141/198 73/140/199
f 73/140/200 81/141/201 82/143/202 74/142/203
f 74/142/204 82/143/205 83/145/206 75/144/207
f 75/144/208 83/145/209 76/147/210 68/146/211
s 4
f 76/148/212 84/150/213 77/149/214
f 77/149/214 84/150/213 78/151/215
f 78/151/215 84/150/213 79/152/216
f 79/152/216 84/150/213 80/153/217
f 80/153/217 84/150/213 81/154/218
f 81/154/218 84/150/213 82/155/219
f 82/155/219 84/150/213 83/156/220
f 83/156/220 84/150/213 76/148/212
