# This file uses feet as units for non-parametric coordinates.

mtllib fence_post.mtl
g default
v -15.240000 0.000000 15.240000
v 15.240000 0.000000 15.240000
v -15.240000 123.889954 15.240000
v 15.240000 123.889954 15.240000
v -15.240000 123.889954 -15.240000
v 15.240000 123.889954 -15.240000
v -15.240000 0.000000 -15.240000
v 15.240000 0.000000 -15.240000
v -15.240000 123.889954 0.000000
v -15.240000 0.000000 0.000000
v 15.240000 0.000000 0.000000
v 15.240000 123.889954 0.000000
v 0.000000 123.889954 15.240000
v 0.000000 136.356895 0.000000
v 0.000000 123.889954 -15.240000
v 0.000000 0.000000 -15.240000
v 0.000000 0.000000 0.000000
v 0.000000 0.000000 15.240000
v -15.240000 120.095654 15.240000
v -15.240000 120.095654 0.000000
v -15.240000 120.095654 -15.240000
v 0.000000 120.095654 -15.240000
v 15.240000 120.095654 -15.240000
v 15.240000 120.095654 0.000000
v 15.240000 120.095654 15.240000
v 0.000000 120.095654 15.240000
v -18.503199 120.095654 18.503199
v -18.503199 122.115513 18.503199
v -18.503199 122.115513 0.000000
v -18.503199 120.095654 0.000000
v -18.503199 120.095654 -18.503199
v -18.503199 122.115513 -18.503199
v 0.000000 122.115513 -18.503199
v 0.000000 120.095654 -18.503199
v 18.503199 120.095654 -18.503199
v 18.503199 122.115513 -18.503199
v 18.503199 120.095654 0.000000
v 18.503199 122.115513 0.000000
v 18.503199 122.115513 18.503199
v 18.503199 120.095654 18.503199
v 0.000000 120.095654 18.503199
v 0.000000 122.115513 18.503199
vt 0.296879 0.847597
vt 0.296879 0.760594
vt 0.383881 0.760594
vt 0.383881 0.847597
vt 0.209876 0.847597
vt 0.209876 0.760594
vt 0.296879 0.934600
vt 0.383881 0.934600
vt 0.209876 0.934600
vt 0.220394 0.049888
vt 0.220394 0.735494
vt 0.133391 0.735494
vt 0.133391 0.049888
vt 0.046389 0.735494
vt 0.046389 0.049888
vt 0.313730 0.049888
vt 0.313730 0.735494
vt 0.226728 0.735494
vt 0.226728 0.049888
vt 0.400733 0.049888
vt 0.400733 0.735494
vt 0.493906 0.735494
vt 0.406903 0.735494
vt 0.406903 0.049888
vt 0.493906 0.049888
vt 0.580908 0.049888
vt 0.580908 0.735494
vt 0.587078 0.049888
vt 0.674081 0.049888
vt 0.674081 0.735494
vt 0.587078 0.735494
vt 0.761084 0.049888
vt 0.761084 0.735494
vt 0.439100 0.760594
vt 0.450631 0.760594
vt 0.450631 0.866226
vt 0.439100 0.866226
vt 0.439100 0.971858
vt 0.450631 0.971858
vt 0.422412 0.971858
vt 0.422412 0.866226
vt 0.433943 0.866226
vt 0.433943 0.971858
vt 0.433943 0.760594
vt 0.422412 0.760594
vt 0.405725 0.866226
vt 0.405725 0.760594
vt 0.417256 0.760594
vt 0.417256 0.866226
vt 0.417256 0.971858
vt 0.405725 0.971858
vt 0.389038 0.866226
vt 0.389038 0.760594
vt 0.400569 0.760594
vt 0.400569 0.866226
vt 0.389038 0.971858
vt 0.400569 0.971858
vt 0.690836 0.779223
vt 0.690836 0.866226
vt 0.672207 0.866226
vt 0.672207 0.760594
vt 0.777838 0.866226
vt 0.690836 0.953229
vt 0.672207 0.971858
vt 0.777838 0.779223
vt 0.777838 0.760594
vt 0.777838 0.953229
vt 0.777838 0.971858
vt 0.864841 0.779223
vt 0.883470 0.760594
vt 0.864841 0.953229
vt 0.883470 0.971858
vt 0.864841 0.866226
vt 0.883470 0.866226
vt 0.474416 0.866226
vt 0.474416 0.953229
vt 0.455787 0.971858
vt 0.455787 0.866226
vt 0.561419 0.953229
vt 0.561419 0.971858
vt 0.474416 0.779223
vt 0.455787 0.760594
vt 0.648421 0.953229
vt 0.667050 0.971858
vt 0.561419 0.779223
vt 0.561419 0.760594
vt 0.648421 0.866226
vt 0.667050 0.866226
vt 0.648421 0.779223
vt 0.667050 0.760594
vn 0.000000 -1.000000 0.000000
vn 0.000000 -1.000000 0.000000
vn 0.000000 -1.000000 0.000000
vn 0.000000 -1.000000 0.000000
vn 0.000000 -1.000000 0.000000
vn 0.000000 -1.000000 0.000000
vn 0.000000 -1.000000 0.000000
vn 0.000000 -1.000000 0.000000
vn 0.000000 -1.000000 0.000000
vn -1.000000 0.000000 0.000000
vn -1.000000 0.000000 0.000000
vn -1.000000 0.000000 0.000000
vn -1.000000 0.000000 0.000000
vn -1.000000 0.000000 0.000000
vn -1.000000 0.000000 0.000000
vn 0.000000 0.000000 1.000000
vn 0.000000 0.000000 1.000000
vn 0.000000 0.000000 1.000000
vn 0.000000 0.000000 1.000000
vn 0.000000 0.000000 1.000000
vn 0.000000 0.000000 1.000000
vn 1.000000 0.000000 0.000000
vn 1.000000 0.000000 0.000000
vn 1.000000 0.000000 0.000000
vn 1.000000 0.000000 0.000000
vn 1.000000 0.000000 0.000000
vn 1.000000 0.000000 0.000000
vn 0.000000 0.774011 0.633172
vn 0.000000 0.774011 0.633172
vn 0.000000 0.774011 0.633172
vn 0.000000 0.000000 -1.000000
vn 0.000000 0.000000 -1.000000
vn 0.000000 0.000000 -1.000000
vn 0.000000 0.000000 -1.000000
vn -0.633172 0.774011 0.000000
vn -0.633172 0.774011 0.000000
vn -0.633172 0.774011 0.000000
vn 0.633172 0.774011 0.000000
vn 0.633172 0.774011 0.000000
vn 0.633172 0.774011 0.000000
vn 0.000000 0.774011 -0.633172
vn 0.000000 0.774011 -0.633172
vn 0.000000 0.774011 -0.633172
vn 0.000000 0.000000 -1.000000
vn 0.000000 0.000000 -1.000000
vn -0.633172 0.774011 0.000000
vn -0.633172 0.774011 0.000000
vn -0.633172 0.774011 0.000000
vn 0.000000 0.774011 -0.633172
vn 0.000000 0.774011 -0.633172
vn 0.000000 0.774011 -0.633172
vn 0.633172 0.774011 0.000000
vn 0.633172 0.774011 0.000000
vn 0.633172 0.774011 0.000000
vn 0.000000 0.774011 0.633172
vn 0.000000 0.774011 0.633172
vn 0.000000 0.774011 0.633172
vn -1.000000 0.000000 0.000000
vn -1.000000 0.000000 0.000000
vn -1.000000 0.000000 0.000000
vn -1.000000 0.000000 0.000000
vn -1.000000 0.000000 0.000000
vn -1.000000 0.000000 0.000000
vn 0.000000 0.000000 -1.000000
vn 0.000000 0.000000 -1.000000
vn 0.000000 0.000000 -1.000000
vn 0.000000 0.000000 -1.000000
vn 0.000000 0.000000 -1.000000
vn 0.000000 0.000000 -1.000000
vn 1.000000 0.000000 0.000000
vn 1.000000 0.000000 0.000000
vn 1.000000 0.000000 0.000000
vn 1.000000 0.000000 0.000000
vn 1.000000 0.000000 0.000000
vn 1.000000 0.000000 0.000000
vn 0.000000 0.000000 1.000000
vn 0.000000 0.000000 1.000000
vn 0.000000 0.000000 1.000000
vn 0.000000 0.000000 1.000000
vn 0.000000 0.000000 1.000000
vn 0.000000 0.000000 1.000000
vn -0.253774 0.933380 0.253773
vn -0.477714 0.878516 0.000000
vn -0.477714 0.878516 0.000000
vn -0.253774 0.933380 0.253773
vn 0.000000 -1.000000 0.000000
vn 0.000000 -1.000000 -0.000000
vn 0.000000 -1.000000 -0.000000
vn 0.000000 -1.000000 0.000000
vn 0.000000 -1.000000 0.000000
vn 0.000000 -1.000000 0.000000
vn -0.253774 0.933380 -0.253774
vn -0.253774 0.933380 -0.253774
vn 0.000000 0.878516 -0.477713
vn 0.000000 0.878516 -0.477713
vn 0.000000 -1.000000 0.000000
vn 0.000000 -1.000000 0.000000
vn 0.000000 -1.000000 0.000000
vn 0.000000 -1.000000 0.000000
vn 0.253774 0.933380 -0.253773
vn 0.253774 0.933380 -0.253773
vn 0.000000 -1.000000 0.000000
vn 0.000000 -1.000000 0.000000
vn 0.477714 0.878516 0.000000
vn 0.477714 0.878516 0.000000
vn 0.253774 0.933380 0.253774
vn 0.253774 0.933380 0.253774
vn 0.000000 -1.000000 0.000000
vn 0.000000 -1.000000 0.000000
vn 0.000000 -1.000000 -0.000000
vn 0.000000 -1.000000 -0.000000
vn 0.000000 0.878516 0.477713
vn 0.000000 0.878516 0.477713
s 1
g fence_post
usemtl lambert3SG
f 17/1/1 16/2/2 8/3/3 11/4/4
f 18/7/5 17/1/1 11/4/4 2/8/6
f 1/9/7 10/5/8 17/1/1 18/7/5
f 10/5/8 7/6/9 16/2/2 17/1/1
s 2
f 1/10/10 19/11/11 20/12/12 10/13/13
f 10/13/13 20/12/12 21/14/14 7/15/15
s 3
f 18/16/16 26/17/17 19/18/18 1/19/19
f 18/16/16 2/20/20 25/21/21 26/17/17
s 4
f 24/22/22 25/23/23 2/24/24 11/25/25
f 8/26/26 23/27/27 24/22/22 11/25/25
s off
f 14/62/28 3/58/29 13/65/30
s 5
f 21/28/31 22/29/32 16/30/33 7/31/34
s off
f 14/62/35 5/63/36 9/59/37
f 14/62/38 4/69/39 12/73/40
f 14/62/41 6/71/42 15/67/43
s 5
f 16/30/33 22/29/32 23/32/44 8/33/45
s off
f 3/58/46 14/62/47 9/59/48
f 5/63/49 14/62/50 15/67/51
f 6/71/52 14/62/53 12/73/54
f 4/69/55 14/62/56 13/65/57
s 6
f 27/34/58 28/35/59 29/36/60 30/37/61
f 31/38/62 30/37/61 29/36/60 32/39/63
s 7
f 32/40/64 33/41/65 34/42/66 31/43/67
f 35/44/68 34/42/66 33/41/65 36/45/69
s 8
f 37/46/70 35/47/71 36/48/72 38/49/73
f 38/49/73 39/50/74 40/51/75 37/46/70
s 9
f 41/52/76 40/53/77 39/54/78 42/55/79
f 27/56/80 41/52/76 42/55/79 28/57/81
s 10
f 3/58/82 9/59/83 29/60/84 28/61/85
s 11
f 20/75/86 19/76/87 27/77/88 30/78/89
f 21/81/90 20/75/86 30/78/89 31/82/91
s 10
f 9/59/83 5/63/92 32/64/93 29/60/84
f 5/63/92 15/67/94 33/68/95 32/64/93
s 11
f 22/85/96 21/81/90 31/82/91 34/86/97
f 23/89/98 22/85/96 34/86/97 35/90/99
s 10
f 15/67/94 6/71/100 36/72/101 33/68/95
s 11
f 24/87/102 23/89/98 35/90/99 37/88/103
s 10
f 6/71/100 12/73/104 38/74/105 36/72/101
f 12/73/104 4/69/106 39/70/107 38/74/105
s 11
f 25/83/108 24/87/102 37/88/103 40/84/109
f 26/79/110 25/83/108 40/84/109 41/80/111
s 10
f 4/69/106 13/65/112 42/66/113 39/70/107
s 11
f 19/76/87 26/79/110 41/80/111 27/77/88
s 10
f 13/65/112 3/58/82 28/61/85 42/66/113
