# This file uses centimeters as units for non-parametric coordinates.

mtllib stumpmodel.mtl
g default
v 0.707107 -1.000000 -0.707107
v 0.000000 -1.000000 -1.000000
v -0.707107 -1.000000 -0.707107
v -1.000000 -1.000000 0.000000
v -0.707107 -1.000000 0.707107
v 0.000000 -1.000000 1.000000
v 0.707107 -1.000000 0.707107
v 1.000000 -1.000000 0.000000
v 0.707107 1.000000 -0.707107
v 0.000000 1.000000 -1.000000
v -0.707107 1.000000 -0.707107
v -1.000000 1.000000 0.000000
v -0.707107 1.000000 0.707107
v 0.000000 1.000000 1.000000
v 0.707107 1.000000 0.707107
v 1.000000 1.000000 0.000000
v 0.000000 -1.000000 0.000000
v 0.000000 1.000000 0.000000
v -0.175185 -0.974779 -0.898394
v -0.531922 -0.974779 -0.808713
v -0.531922 -0.491933 -0.808713
v -0.175185 -0.491933 -0.898394
v -0.543293 -0.823422 -1.785472
v -0.627075 -0.823422 -1.764410
v -0.627075 -0.710022 -1.764410
v -0.543293 -0.710022 -1.785472
v -0.707107 -0.982964 0.707107
v 0.000000 -0.982964 1.000000
v 0.000000 -0.287448 1.000000
v -0.707107 -0.287448 0.707107
v -1.048809 -0.686918 1.777290
v -1.003087 -0.686918 1.955705
v -1.003087 -0.583494 1.955705
v -1.048809 -0.583494 1.777290
v -0.450949 -0.432857 1.609327
v -0.450949 -0.837555 1.609327
v -0.752772 -0.837555 1.250366
v -0.752772 -0.432857 1.250366
v 0.963394 0.941866 -0.020915
v 0.692306 0.942653 -0.538480
v 0.673980 1.032629 -0.011977
v 0.793137 1.181639 -0.043716
v 0.700718 1.140293 -0.579949
v 0.651543 1.177625 -0.000501
vt 0.416798 0.246905
vt 0.476432 0.222204
vt 0.416798 0.162571
vt 0.357165 0.222204
vt 0.332464 0.162571
vt 0.357165 0.102939
vt 0.416798 0.078237
vt 0.476432 0.102939
vt 0.599007 0.399822
vt 0.794346 0.306649
vt 0.724038 0.078612
vt 0.661702 0.399662
vt 0.137220 0.127975
vt 0.257258 0.127975
vt 0.661146 0.556634
vt 0.600474 0.559003
vt 0.699855 0.366535
vt 0.709559 0.366316
vt 0.706775 0.374056
vt 0.702124 0.374441
vt 0.744418 0.406402
vt 0.730635 0.603809
vt 0.719524 0.693246
vt 0.805199 0.420525
vt 0.132736 0.568673
vt 0.713884 0.563221
vt 0.542153 0.898071
vt 0.469955 0.927977
vt 0.469955 0.825873
vt 0.397756 0.898071
vt 0.367851 0.825873
vt 0.397756 0.753674
vt 0.469955 0.723769
vt 0.542153 0.753674
vt 0.501133 0.162571
vt 0.572059 0.825873
vt 0.757869 0.132502
vt 0.786878 0.243459
vt 0.294542 0.377252
vt 0.310412 0.388500
vt 0.952286 0.808387
vt 0.866470 0.802339
vt 0.589900 0.326921
vt 0.586173 0.324279
vt 0.257258 0.248013
vt 0.137220 0.248013
vt 0.569079 0.674555
vt 0.580191 0.585118
vt 0.843581 0.866789
vt 0.863735 0.868210
vt 0.508459 0.647361
vt 0.489880 0.595356
vt 0.435115 0.646957
vt 0.819706 0.716294
vt 0.989805 0.696542
vt 0.419892 0.631509
vt 0.540642 0.880854
vt 0.568322 0.828008
vt 0.538771 0.827096
vt 0.776430 0.816016
vt 0.730665 0.926502
vt 0.620180 0.809766
vt 0.192193 0.406609
vt 0.194421 0.567810
vt 0.285208 0.430582
vt 0.300016 0.430331
vt 0.300197 0.438665
vt 0.285315 0.438919
vt 0.413206 0.402808
vt 0.474958 0.401613
vt 0.477791 0.562284
vt 0.416181 0.563642
vt 0.536851 0.400572
vt 0.539264 0.560785
vt 0.717530 0.439539
vt 0.737444 0.404593
vt 0.681713 0.437475
vt 0.668574 0.399498
vt 0.414258 0.460110
vt 0.413220 0.404169
vt 0.192222 0.407987
vt 0.192995 0.464051
vt 0.352970 0.449711
vt 0.352302 0.417103
vt 0.236322 0.419106
vt 0.236771 0.451727
vt 0.130503 0.407467
vt 0.773214 0.577368
vt 0.217945 0.641122
vt 0.067299 0.641122
vt 0.067299 0.791768
vt 0.217945 0.791768
vt 0.314389 0.555935
vt 0.232610 0.555935
vt 0.232610 0.637714
vt 0.314389 0.637714
vt 0.881327 0.655450
vt 0.808721 0.679657
vt 0.748507 0.632091
vt 0.737508 0.644123
vt 0.966038 0.096933
vt 0.901784 0.310756
vt 0.824560 0.309338
vt 0.853479 0.102817
vt 0.905987 0.514946
vt 0.851894 0.530336
vt 0.986456 0.598437
vt 0.874944 0.582022
vn 0.382683 0.000000 -0.923880
vn 0.382683 0.000000 -0.923880
vn 0.382683 0.000000 -0.923880
vn 0.382683 0.000000 -0.923880
vn -0.243807 0.000000 -0.969824
vn -0.243807 0.000000 -0.969824
vn -0.243807 0.000000 -0.969824
vn -0.243807 0.000000 -0.969824
vn -0.923880 0.000000 -0.382683
vn -0.923880 0.000000 -0.382683
vn -0.923880 0.000000 -0.382683
vn -0.923880 0.000000 -0.382683
vn -0.923880 0.000000 0.382683
vn -0.923880 0.000000 0.382683
vn -0.923880 0.000000 0.382683
vn -0.923880 0.000000 0.382683
vn -0.968697 0.000000 0.248244
vn -0.968697 0.000000 0.248244
vn -0.968697 0.000000 0.248244
vn -0.968697 0.000000 0.248244
vn 0.382683 0.000000 0.923880
vn 0.382683 0.000000 0.923880
vn 0.382683 0.000000 0.923880
vn 0.382683 0.000000 0.923880
vn 0.923880 0.000000 0.382683
vn 0.923880 0.000000 0.382683
vn 0.923880 0.000000 0.382683
vn 0.923880 0.000000 0.382683
vn 0.923880 0.000000 -0.382684
vn 0.923880 0.000000 -0.382684
vn 0.923880 0.000000 -0.382684
vn 0.923880 0.000000 -0.382684
vn 0.000000 -1.000000 0.000000
vn 0.000000 -1.000000 0.000000
vn 0.000000 -1.000000 0.000000
vn 0.000000 -1.000000 0.000000
vn 0.000000 -1.000000 0.000000
vn 0.000000 -1.000000 0.000000
vn 0.000000 -1.000000 0.000000
vn 0.000000 -1.000000 0.000000
vn 0.000000 -1.000000 0.000000
vn 0.000000 1.000000 0.000000
vn 0.000000 1.000000 0.000000
vn 0.000000 1.000000 0.000000
vn 0.000000 1.000000 0.000000
vn 0.000000 1.000000 0.000000
vn 0.000000 1.000000 0.000000
vn 0.000000 1.000000 0.000000
vn 0.000000 1.000000 0.000000
vn 0.000000 1.000000 0.000000
vn -0.049114 0.996451 -0.068368
vn -0.049114 0.996451 -0.068368
vn -0.049114 0.996451 -0.068368
vn -0.338399 -0.000000 -0.941003
vn -0.338399 -0.000000 -0.941003
vn -0.338399 -0.000000 -0.941003
vn -0.338399 -0.000000 -0.941003
vn -0.501714 0.000000 -0.865034
vn -0.501714 0.000000 -0.865034
vn -0.501714 0.000000 -0.865034
vn -0.501714 0.000000 -0.865034
vn -0.338399 0.000000 -0.941003
vn -0.338399 0.000000 -0.941003
vn -0.338399 0.000000 -0.941003
vn -0.338399 0.000000 -0.941003
vn -0.501714 0.000000 -0.865034
vn -0.501714 0.000000 -0.865034
vn -0.501714 0.000000 -0.865034
vn -0.501714 0.000000 -0.865034
vn -0.038358 -0.987546 -0.152582
vn -0.038358 -0.987546 -0.152582
vn -0.038358 -0.987546 -0.152582
vn -0.038358 -0.987546 -0.152582
vn -0.995080 0.000000 0.099074
vn -0.995080 0.000000 0.099074
vn -0.995080 0.000000 0.099074
vn -0.995080 0.000000 0.099074
vn -0.054548 0.974650 -0.216983
vn -0.054548 0.974650 -0.216983
vn -0.054548 0.974650 -0.216983
vn -0.054548 0.974650 -0.216983
vn 0.923634 0.000000 -0.383277
vn 0.923633 0.000000 -0.383277
vn 0.923633 0.000000 -0.383277
vn 0.923634 0.000000 -0.383277
vn -0.382684 0.000000 0.923879
vn -0.382684 0.000000 0.923879
vn -0.382684 0.000000 0.923879
vn -0.382684 0.000000 0.923879
vn -0.000000 0.000000 0.000000
vn -0.000000 0.000000 0.000000
vn -1.000000 0.000000 0.000000
vn -1.000000 0.000000 0.000000
vn -0.382683 0.000000 0.923880
vn -0.382683 0.000000 0.923880
vn -0.382683 0.000000 0.923880
vn -0.382683 0.000000 0.923880
vn 0.000000 0.000000 0.000000
vn 0.000000 0.000000 0.000000
vn 0.000000 0.000000 0.000000
vn 0.000000 0.000000 0.000000
vn -0.124139 -0.973484 0.192140
vn -0.124139 -0.973484 0.192140
vn -0.124139 -0.973484 0.192140
vn -0.124139 -0.973484 0.192140
vn 0.803812 0.000000 0.594883
vn 0.803812 0.000000 0.594883
vn 0.803812 0.000000 0.594883
vn 0.803812 0.000000 0.594883
vn -0.124139 0.973484 0.192140
vn -0.124139 0.973484 0.192140
vn -0.124139 0.973484 0.192140
vn -0.124139 0.973484 0.192140
vn -0.996486 0.000000 -0.083763
vn -0.996486 0.000000 -0.083763
vn -0.996486 0.000000 -0.083763
vn -0.996486 0.000000 -0.083763
vn 0.531424 0.000000 0.847106
vn 0.531424 0.000000 0.847106
vn 0.531424 0.000000 0.847106
vn 0.531424 0.000000 0.847106
vn -0.206661 -0.969240 0.133657
vn -0.206661 -0.969241 0.133657
vn -0.206661 -0.969241 0.133657
vn -0.206661 -0.969240 0.133657
vn -0.871829 0.000000 -0.489811
vn -0.871829 0.000000 -0.489811
vn -0.871829 0.000000 -0.489811
vn -0.871829 0.000000 -0.489811
vn -0.206661 0.969240 0.133657
vn -0.206661 0.969240 0.133657
vn -0.206661 0.969241 0.133657
vn -0.206661 0.969240 0.133657
vn -0.661686 0.684872 0.305158
vn -0.661686 0.684872 0.305158
vn -0.661686 0.684872 0.305158
vn -0.661686 0.684872 0.305158
vn 0.048006 0.997853 -0.044550
vn 0.048006 0.997853 -0.044550
vn 0.048006 0.997853 -0.044550
vn 0.048006 0.997853 -0.044550
vn 0.061988 0.825365 0.561186
vn 0.061988 0.825365 0.561186
vn 0.061988 0.825365 0.561186
vn 0.061988 0.825365 0.561186
vn 0.902259 0.286490 -0.322261
vn 0.902259 0.286490 -0.322261
vn 0.902259 0.286490 -0.322261
vn 0.902259 0.286490 -0.322261
vn -0.997406 -0.045695 -0.055616
vn -0.997406 -0.045695 -0.055616
vn -0.997406 -0.045695 -0.055616
vn -0.997406 -0.045695 -0.055616
vn 0.139087 0.098656 0.985354
vn 0.139087 0.098656 0.985354
vn 0.139087 0.098656 0.985354
vn 0.139087 0.098656 0.985354
s off
g pCylinder1
usemtl initialShadingGroup
f 1/9/1 2/12/2 10/15/3 9/16/4
f 23/89/5 24/90/6 25/91/7 26/92/8
f 3/21/9 4/24/10 12/88/11 11/26/12
f 4/87/13 5/63/14 13/64/15 12/25/16
f 31/93/17 32/94/18 33/95/19 34/96/20
f 6/69/21 7/70/22 15/71/23 14/72/24
f 7/70/25 8/73/26 16/74/27 15/71/28
f 8/73/29 1/9/30 9/16/31 16/74/32
s 1
f 2/1/33 1/2/34 17/3/35
f 3/4/36 2/1/33 17/3/35
f 4/5/37 3/4/36 17/3/35
f 5/6/38 4/5/37 17/3/35
f 6/7/39 5/6/38 17/3/35
f 7/8/40 6/7/39 17/3/35
f 8/35/41 7/8/40 17/3/35
f 1/2/34 8/35/41 17/3/35
s 2
f 9/27/42 10/28/43 18/29/44
f 10/28/43 11/30/45 18/29/44
f 11/30/45 12/31/46 18/29/44
f 12/31/46 13/32/47 18/29/44
f 13/32/47 14/33/48 18/29/44
f 14/33/48 15/34/49 18/29/44
f 15/34/49 16/36/50 18/29/44
s off
f 42/60/51 43/61/52 44/62/53
f 2/10/54 3/11/55 20/37/56 19/38/57
f 3/21/58 11/26/59 21/75/60 20/76/61
f 11/26/62 10/15/63 22/77/64 21/75/65
f 10/15/66 2/12/67 19/78/68 22/77/69
f 19/41/70 20/42/71 24/49/72 23/50/73
f 20/76/74 21/75/75 25/19/76 24/18/77
f 21/39/78 22/40/79 26/43/80 25/44/81
f 22/77/82 19/78/83 23/17/84 26/20/85
f 5/13/86 6/14/87 28/45/88 27/46/89
f 6/69/90 14/72/91 29/79/92 28/80/93
f 14/22/94 13/23/95 30/47/96 29/48/97
f 13/64/98 5/63/99 27/81/100 30/82/101
f 27/54/102 28/55/103 36/97/104 37/98/105
f 28/80/106 29/79/107 35/83/108 36/84/109
f 29/48/110 30/47/111 38/51/112 35/52/113
f 30/82/114 27/81/115 37/85/116 38/86/117
f 36/84/118 35/83/119 33/67/120 32/66/121
f 37/98/122 36/97/123 32/99/124 31/100/125
f 38/86/126 37/85/127 31/65/128 34/68/129
f 35/52/130 38/51/131 34/53/132 33/56/133
f 16/36/134 9/27/135 40/57/136 39/58/137
f 9/27/138 18/29/139 41/59/140 40/57/141
f 18/29/142 16/36/143 39/58/144 41/59/145
f 39/101/146 40/102/147 43/103/148 42/104/149
f 40/102/150 41/105/151 44/106/152 43/103/153
f 41/105/154 39/107/155 42/108/156 44/106/157
